  0
SECTION
  2
HEADER
  9
$ACADVER
  1
AC1009
  9
$DWGCODEPAGE
  3
ANSI_1252
  9
$INSBASE
 10
0.0
 20
0.0
 30
0.0
  9
$EXTMIN
 10
1e+20
 20
1e+20
 30
1e+20
  9
$EXTMAX
 10
-1e+20
 20
-1e+20
 30
-1e+20
  9
$LIMMIN
 10
0.0
 20
0.0
  9
$LIMMAX
 10
420.0
 20
297.0
  9
$ORTHOMODE
 70
0
  9
$REGENMODE
 70
1
  9
$FILLMODE
 70
1
  9
$DRAGMODE
 70
2
  9
$QTEXTMODE
 70
0
  9
$MIRRTEXT
 70
1
  9
$OSMODE
 70
20583
  9
$LTSCALE
 40
1.0
  9
$ATTMODE
 70
1
  9
$TEXTSIZE
 40
2.5
  9
$TRACEWID
 40
1.0
  9
$TEXTSTYLE
  7
Standard
  9
$CLAYER
  8
0
  9
$CELTYPE
  6
ByLayer
  9
$CECOLOR
 62
256
  9
$DIMSCALE
 40
1.0
  9
$DIMASZ
 40
2.5
  9
$DIMEXO
 40
0.625
  9
$DIMDLI
 40
3.75
  9
$DIMRND
 40
0.0
  9
$DIMDLE
 40
0.0
  9
$DIMEXE
 40
1.25
  9
$DIMTP
 40
0.0
  9
$DIMTM
 40
0.0
  9
$DIMTXT
 40
2.5
  9
$DIMCEN
 40
2.5
  9
$DIMTSZ
 40
0.0
  9
$DIMTOL
 70
0
  9
$DIMLIM
 70
0
  9
$DIMTIH
 70
0
  9
$DIMTOH
 70
0
  9
$DIMSE1
 70
0
  9
$DIMSE2
 70
0
  9
$DIMTAD
 70
1
  9
$DIMZIN
 70
8
  9
$DIMBLK
  1

  9
$DIMASO
 70
1
  9
$DIMSHO
 70
1
  9
$DIMPOST
  1

  9
$DIMAPOST
  1

  9
$DIMALT
 70
0
  9
$DIMALTD
 70
3
  9
$DIMALTF
 40
0.03937007874
  9
$DIMLFAC
 40
1.0
  9
$DIMTOFL
 70
1
  9
$DIMTVP
 40
0.0
  9
$DIMTIX
 70
0
  9
$DIMSOXD
 70
0
  9
$DIMSAH
 70
0
  9
$DIMBLK1
  1

  9
$DIMBLK2
  1

  9
$DIMSTYLE
  2
ISO-25
  9
$DIMCLRD
 70
0
  9
$DIMCLRE
 70
0
  9
$DIMCLRT
 70
0
  9
$DIMTFAC
 40
1.0
  9
$DIMGAP
 40
0.625
  9
$COORDS
 70
1
  9
$ATTDIA
 70
0
  9
$ATTREQ
 70
1
  9
$HANDLING
 70
1
  9
$LUNITS
 70
2
  9
$LUPREC
 70
4
  9
$SKETCHINC
 40
1.0
  9
$FILLETRAD
 40
10.0
  9
$AUNITS
 70
0
  9
$AUPREC
 70
2
  9
$MENU
  1
.
  9
$ELEVATION
 40
0.0
  9
$PELEVATION
 40
0.0
  9
$THICKNESS
 40
0.0
  9
$LIMCHECK
 70
0
  9
$CHAMFERA
 40
0.0
  9
$CHAMFERB
 40
0.0
  9
$SKPOLY
 70
0
  9
$TDCREATE
 40
2451545.0
  9
$TDUPDATE
 40
2451545.0
  9
$TDINDWG
 40
0.0
  9
$TDUSRTIMER
 40
0.0
  9
$USRTIMER
 70
1
  9
$ANGBASE
 50
0.0
  9
$ANGDIR
 70
0
  9
$PDMODE
 70
0
  9
$PDSIZE
 40
0.0
  9
$PLINEWID
 40
0.0
  9
$SPLFRAME
 70
0
  9
$SPLINETYPE
 70
6
  9
$SPLINESEGS
 70
8
  9
$HANDSEED
  5
E7
  9
$SURFTAB1
 70
6
  9
$SURFTAB2
 70
6
  9
$SURFTYPE
 70
6
  9
$SURFU
 70
6
  9
$SURFV
 70
6
  9
$UCSNAME
  2

  9
$UCSORG
 10
0.0
 20
0.0
 30
0.0
  9
$UCSXDIR
 10
1.0
 20
0.0
 30
0.0
  9
$UCSYDIR
 10
0.0
 20
1.0
 30
0.0
  9
$PUCSNAME
  2

  9
$PUCSORG
 10
0.0
 20
0.0
 30
0.0
  9
$PUCSXDIR
 10
1.0
 20
0.0
 30
0.0
  9
$PUCSYDIR
 10
0.0
 20
1.0
 30
0.0
  9
$USERI1
 70
0
  9
$USERI2
 70
0
  9
$USERI3
 70
0
  9
$USERI4
 70
0
  9
$USERI5
 70
0
  9
$USERR1
 40
0.0
  9
$USERR2
 40
0.0
  9
$USERR3
 40
0.0
  9
$USERR4
 40
0.0
  9
$USERR5
 40
0.0
  9
$WORLDVIEW
 70
1
  9
$SHADEDGE
 70
3
  9
$SHADEDIF
 70
70
  9
$TILEMODE
 70
1
  9
$MAXACTVP
 70
64
  9
$PLIMCHECK
 70
0
  9
$PEXTMIN
 10
1e+20
 20
1e+20
 30
1e+20
  9
$PEXTMAX
 10
-1e+20
 20
-1e+20
 30
-1e+20
  9
$PLIMMIN
 10
0.0
 20
0.0
  9
$PLIMMAX
 10
420.0
 20
297.0
  9
$UNITMODE
 70
0
  9
$VISRETAIN
 70
1
  9
$PLINEGEN
 70
0
  9
$PSLTSCALE
 70
1
  0
ENDSEC
  0
SECTION
  2
TABLES
  0
TABLE
  2
VPORT
 70
1
  0
VPORT
  5
23
  2
*Active
 70
0
 10
0.0
 20
0.0
 11
1.0
 21
1.0
 12
0.0
 22
0.0
 13
0.0
 23
0.0
 14
0.5
 24
0.5
 15
0.5
 25
0.5
 16
0.0
 26
0.0
 36
1.0
 17
0.0
 27
0.0
 37
0.0
 40
1000.0
 41
1.34
 42
50.0
 43
0.0
 44
0.0
 50
0.0
 51
0.0
 71
0
 72
1000
 73
1
 74
3
 75
0
 76
0
 77
0
 78
0
  0
ENDTAB
  0
TABLE
  2
LTYPE
 70
3
  0
LTYPE
  5
24
  2
ByBlock
 70
0
  3

 72
65
 73
0
 40
0.0
  0
LTYPE
  5
25
  2
ByLayer
 70
0
  3

 72
65
 73
0
 40
0.0
  0
LTYPE
  5
26
  2
Continuous
 70
0
  3

 72
65
 73
0
 40
0.0
  0
ENDTAB
  0
TABLE
  2
LAYER
 70
4
  0
LAYER
  5
27
  2
0
 70
0
 62
7
  6
Continuous
  0
LAYER
  5
28
  2
Defpoints
 70
0
 62
7
  6
Continuous
  0
LAYER
  5
2D
  2
CUT
 70
0
 62
1
  6
Continuous
  0
LAYER
  5
2E
  2
PEN
 70
0
 62
5
  6
Continuous
  0
ENDTAB
  0
TABLE
  2
STYLE
 70
1
  0
STYLE
  5
29
  2
Standard
 70
0
 40
0.0
 41
1.0
 50
0.0
 71
0
 42
2.5
  3
txt
  4

  0
ENDTAB
  0
TABLE
  2
VIEW
 70
0
  0
ENDTAB
  0
TABLE
  2
UCS
 70
0
  0
ENDTAB
  0
TABLE
  2
APPID
 70
3
  0
APPID
  5
2A
  2
ACAD
 70
0
  0
APPID
  5
E5
  2
HATCHBACKGROUNDCOLOR
 70
0
  0
APPID
  5
E6
  2
EZDXF
 70
0
  0
ENDTAB
  0
TABLE
  2
DIMSTYLE
 70
1
  0
DIMSTYLE
105
2B
  2
Standard
 70
0
  3

  4

  5

  6

  7

 40
1.0
 41
2.5
 42
0.625
 43
3.75
 44
1.25
 45
0.0
 46
0.0
 47
0.0
 48
0.0
140
2.5
141
2.5
142
0.0
143
0.03937007874
144
1.0
145
0.0
146
1.0
147
0.625
 71
0
 72
0
 73
0
 74
0
 75
0
 76
0
 77
1
 78
8
170
0
171
3
172
1
173
0
174
0
175
0
176
0
177
0
178
0
  0
ENDTAB
  0
ENDSEC
  0
SECTION
  2
BLOCKS
  0
BLOCK
  5
18
  8
0
  2
$Model_Space
 70
0
 10
0.0
 20
0.0
 30
0.0
  3
$Model_Space
  1

1001
EZDXF
1000
CREATED_BY_EZDXF
1000
0.0 @ 2000-01-01T00:00:00.000000+00:00
1000
WRITTEN_BY_EZDXF
1000
0.0 @ 2000-01-01T00:00:00.000000+00:00
  0
ENDBLK
  5
19
  8
0
  0
BLOCK
  5
1C
  8
0
  2
$Paper_Space
 70
0
 10
0.0
 20
0.0
 30
0.0
  3
$Paper_Space
  1

  0
ENDBLK
  5
1D
  8
0
  0
ENDSEC
  0
SECTION
  2
ENTITIES
  0
POLYLINE
  5
2F
  8
CUT
 66
1
 10
0.0
 20
0.0
 30
0.0
 70
1
  0
VERTEX
  5
31
  8
CUT
 10
20.0
 20
20.0
 30
0.0
 70
0
  0
VERTEX
  5
32
  8
CUT
 10
1020.0
 20
20.0
 30
0.0
 70
0
  0
VERTEX
  5
33
  8
CUT
 10
1020.0
 20
120.0
 30
0.0
 70
0
  0
VERTEX
  5
34
  8
CUT
 10
20.0
 20
120.0
 30
0.0
 70
0
  0
SEQEND
  5
30
  8
CUT
  0
POLYLINE
  5
35
  8
CUT
 66
1
 10
0.0
 20
0.0
 30
0.0
 70
1
  0
VERTEX
  5
37
  8
CUT
 10
20.0
 20
160.0
 30
0.0
 70
0
  0
VERTEX
  5
38
  8
CUT
 10
220.0
 20
160.0
 30
0.0
 70
0
  0
VERTEX
  5
39
  8
CUT
 10
220.0
 20
360.0
 30
0.0
 70
0
  0
VERTEX
  5
3A
  8
CUT
 10
20.0
 20
360.0
 30
0.0
 70
0
  0
SEQEND
  5
36
  8
CUT
  0
POLYLINE
  5
3B
  8
CUT
 66
1
 10
0.0
 20
0.0
 30
0.0
 70
1
  0
VERTEX
  5
3D
  8
CUT
 10
270.0
 20
160.0
 30
0.0
 70
0
  0
VERTEX
  5
3E
  8
CUT
 10
370.0
 20
160.0
 30
0.0
 42
0.41421356237309503
 70
0
  0
VERTEX
  5
3F
  8
CUT
 10
380.0
 20
170.0
 30
0.0
 70
0
  0
VERTEX
  5
40
  8
CUT
 10
380.0
 20
210.0
 30
0.0
 42
0.41421356237309503
 70
0
  0
VERTEX
  5
41
  8
CUT
 10
370.0
 20
220.0
 30
0.0
 70
0
  0
VERTEX
  5
42
  8
CUT
 10
270.0
 20
220.0
 30
0.0
 42
0.41421356237309503
 70
0
  0
VERTEX
  5
43
  8
CUT
 10
260.0
 20
210.0
 30
0.0
 70
0
  0
VERTEX
  5
44
  8
CUT
 10
260.0
 20
170.0
 30
0.0
 42
0.41421356237309503
 70
0
  0
SEQEND
  5
3C
  8
CUT
  0
CIRCLE
  5
45
  8
CUT
 10
520.0
 20
260.0
 30
0.0
 40
100.0
  0
POLYLINE
  5
46
  8
CUT
 66
1
 10
0.0
 20
0.0
 30
0.0
 70
1
  0
VERTEX
  5
48
  8
CUT
 10
860.0
 20
260.0
 30
0.0
 42
1.0
 70
0
  0
VERTEX
  5
49
  8
CUT
 10
660.0
 20
260.0
 30
0.0
 42
1.0
 70
0
  0
SEQEND
  5
47
  8
CUT
  0
POLYLINE
  5
4A
  8
CUT
 66
1
 10
0.0
 20
0.0
 30
0.0
 70
1
  0
VERTEX
  5
4C
  8
CUT
 10
1100.0
 20
260.0
 30
0.0
 70
0
  0
VERTEX
  5
4D
  8
CUT
 10
1099.6194698091745
 20
268.7155742747658
 30
0.0
 70
0
  0
VERTEX
  5
4E
  8
CUT
 10
1098.4807753012208
 20
277.364817766693
 30
0.0
 70
0
  0
VERTEX
  5
4F
  8
CUT
 10
1096.5925826289067
 20
285.88190451025207
 30
0.0
 70
0
  0
VERTEX
  5
50
  8
CUT
 10
1093.9692620785909
 20
294.2020143325669
 30
0.0
 70
0
  0
VERTEX
  5
51
  8
CUT
 10
1090.6307787036649
 20
302.26182617406994
 30
0.0
 70
0
  0
VERTEX
  5
52
  8
CUT
 10
1086.6025403784438
 20
310.0
 30
0.0
 70
0
  0
VERTEX
  5
53
  8
CUT
 10
1081.9152044288992
 20
317.35764363510464
 30
0.0
 70
0
  0
VERTEX
  5
54
  8
CUT
 10
1076.6044443118979
 20
324.27876096865396
 30
0.0
 70
0
  0
VERTEX
  5
55
  8
CUT
 10
1070.7106781186549
 20
330.71067811865476
 30
0.0
 70
0
  0
VERTEX
  5
56
  8
CUT
 10
1064.2787609686538
 20
336.6044443118978
 30
0.0
 70
0
  0
VERTEX
  5
57
  8
CUT
 10
1057.3576436351045
 20
341.9152044288992
 30
0.0
 70
0
  0
VERTEX
  5
58
  8
CUT
 10
1050.0
 20
346.60254037844385
 30
0.0
 70
0
  0
VERTEX
  5
59
  8
CUT
 10
1042.26182617407
 20
350.630778703665
 30
0.0
 70
0
  0
VERTEX
  5
5A
  8
CUT
 10
1034.202014332567
 20
353.9692620785908
 30
0.0
 70
0
  0
VERTEX
  5
5B
  8
CUT
 10
1025.881904510252
 20
356.5925826289068
 30
0.0
 70
0
  0
VERTEX
  5
5C
  8
CUT
 10
1017.364817766693
 20
358.4807753012208
 30
0.0
 70
0
  0
VERTEX
  5
5D
  8
CUT
 10
1008.7155742747658
 20
359.6194698091746
 30
0.0
 70
0
  0
VERTEX
  5
5E
  8
CUT
 10
1000.0
 20
360.0
 30
0.0
 70
0
  0
VERTEX
  5
5F
  8
CUT
 10
991.2844257252342
 20
359.6194698091746
 30
0.0
 70
0
  0
VERTEX
  5
60
  8
CUT
 10
982.635182233307
 20
358.4807753012208
 30
0.0
 70
0
  0
VERTEX
  5
61
  8
CUT
 10
974.1180954897479
 20
356.5925826289068
 30
0.0
 70
0
  0
VERTEX
  5
62
  8
CUT
 10
965.7979856674332
 20
353.9692620785909
 30
0.0
 70
0
  0
VERTEX
  5
63
  8
CUT
 10
957.7381738259301
 20
350.630778703665
 30
0.0
 70
0
  0
VERTEX
  5
64
  8
CUT
 10
950.0
 20
346.6025403784439
 30
0.0
 70
0
  0
VERTEX
  5
65
  8
CUT
 10
942.6423563648954
 20
341.9152044288992
 30
0.0
 70
0
  0
VERTEX
  5
66
  8
CUT
 10
935.721239031346
 20
336.6044443118978
 30
0.0
 70
0
  0
VERTEX
  5
67
  8
CUT
 10
929.2893218813452
 20
330.71067811865476
 30
0.0
 70
0
  0
VERTEX
  5
68
  8
CUT
 10
923.3955556881021
 20
324.27876096865396
 30
0.0
 70
0
  0
VERTEX
  5
69
  8
CUT
 10
918.0847955711008
 20
317.3576436351046
 30
0.0
 70
0
  0
VERTEX
  5
6A
  8
CUT
 10
913.3974596215561
 20
310.0
 30
0.0
 70
0
  0
VERTEX
  5
6B
  8
CUT
 10
909.369221296335
 20
302.26182617406994
 30
0.0
 70
0
  0
VERTEX
  5
6C
  8
CUT
 10
906.0307379214091
 20
294.2020143325669
 30
0.0
 70
0
  0
VERTEX
  5
6D
  8
CUT
 10
903.4074173710932
 20
285.8819045102521
 30
0.0
 70
0
  0
VERTEX
  5
6E
  8
CUT
 10
901.5192246987792
 20
277.364817766693
 30
0.0
 70
0
  0
VERTEX
  5
6F
  8
CUT
 10
900.3805301908254
 20
268.7155742747658
 30
0.0
 70
0
  0
VERTEX
  5
70
  8
CUT
 10
900.0
 20
260.0
 30
0.0
 70
0
  0
VERTEX
  5
71
  8
CUT
 10
900.3805301908254
 20
251.2844257252342
 30
0.0
 70
0
  0
VERTEX
  5
72
  8
CUT
 10
901.5192246987792
 20
242.63518223330695
 30
0.0
 70
0
  0
VERTEX
  5
73
  8
CUT
 10
903.4074173710932
 20
234.11809548974793
 30
0.0
 70
0
  0
VERTEX
  5
74
  8
CUT
 10
906.0307379214091
 20
225.79798566743312
 30
0.0
 70
0
  0
VERTEX
  5
75
  8
CUT
 10
909.369221296335
 20
217.73817382593006
 30
0.0
 70
0
  0
VERTEX
  5
76
  8
CUT
 10
913.3974596215561
 20
210.0
 30
0.0
 70
0
  0
VERTEX
  5
77
  8
CUT
 10
918.0847955711008
 20
202.6423563648954
 30
0.0
 70
0
  0
VERTEX
  5
78
  8
CUT
 10
923.3955556881021
 20
195.72123903134607
 30
0.0
 70
0
  0
VERTEX
  5
79
  8
CUT
 10
929.2893218813452
 20
189.28932188134524
 30
0.0
 70
0
  0
VERTEX
  5
7A
  8
CUT
 10
935.721239031346
 20
183.3955556881022
 30
0.0
 70
0
  0
VERTEX
  5
7B
  8
CUT
 10
942.6423563648954
 20
178.08479557110084
 30
0.0
 70
0
  0
VERTEX
  5
7C
  8
CUT
 10
950.0
 20
173.39745962155615
 30
0.0
 70
0
  0
VERTEX
  5
7D
  8
CUT
 10
957.7381738259301
 20
169.369221296335
 30
0.0
 70
0
  0
VERTEX
  5
7E
  8
CUT
 10
965.7979856674332
 20
166.03073792140916
 30
0.0
 70
0
  0
VERTEX
  5
7F
  8
CUT
 10
974.1180954897479
 20
163.40741737109317
 30
0.0
 70
0
  0
VERTEX
  5
80
  8
CUT
 10
982.635182233307
 20
161.5192246987792
 30
0.0
 70
0
  0
VERTEX
  5
81
  8
CUT
 10
991.2844257252342
 20
160.38053019082543
 30
0.0
 70
0
  0
VERTEX
  5
82
  8
CUT
 10
1000.0
 20
160.0
 30
0.0
 70
0
  0
VERTEX
  5
83
  8
CUT
 10
1008.7155742747658
 20
160.38053019082543
 30
0.0
 70
0
  0
VERTEX
  5
84
  8
CUT
 10
1017.364817766693
 20
161.51922469877917
 30
0.0
 70
0
  0
VERTEX
  5
85
  8
CUT
 10
1025.881904510252
 20
163.40741737109317
 30
0.0
 70
0
  0
VERTEX
  5
86
  8
CUT
 10
1034.202014332567
 20
166.03073792140918
 30
0.0
 70
0
  0
VERTEX
  5
87
  8
CUT
 10
1042.26182617407
 20
169.369221296335
 30
0.0
 70
0
  0
VERTEX
  5
88
  8
CUT
 10
1050.0
 20
173.39745962155615
 30
0.0
 70
0
  0
VERTEX
  5
89
  8
CUT
 10
1057.3576436351045
 20
178.0847955711008
 30
0.0
 70
0
  0
VERTEX
  5
8A
  8
CUT
 10
1064.2787609686538
 20
183.3955556881022
 30
0.0
 70
0
  0
VERTEX
  5
8B
  8
CUT
 10
1070.7106781186546
 20
189.28932188134524
 30
0.0
 70
0
  0
VERTEX
  5
8C
  8
CUT
 10
1076.6044443118979
 20
195.72123903134604
 30
0.0
 70
0
  0
VERTEX
  5
8D
  8
CUT
 10
1081.9152044288992
 20
202.64235636489536
 30
0.0
 70
0
  0
VERTEX
  5
8E
  8
CUT
 10
1086.6025403784438
 20
209.99999999999994
 30
0.0
 70
0
  0
VERTEX
  5
8F
  8
CUT
 10
1090.630778703665
 20
217.73817382593006
 30
0.0
 70
0
  0
VERTEX
  5
90
  8
CUT
 10
1093.9692620785909
 20
225.79798566743312
 30
0.0
 70
0
  0
VERTEX
  5
91
  8
CUT
 10
1096.5925826289067
 20
234.11809548974793
 30
0.0
 70
0
  0
VERTEX
  5
92
  8
CUT
 10
1098.4807753012208
 20
242.63518223330695
 30
0.0
 70
0
  0
VERTEX
  5
93
  8
CUT
 10
1099.6194698091745
 20
251.28442572523417
 30
0.0
 70
0
  0
SEQEND
  5
4B
  8
CUT
  0
TEXT
  5
94
  8
PEN
 10
40.0
 20
80.0
 30
0.0
 40
15.0
  1
R1 1000 X 100
 11
40.0
 21
80.0
 31
0.0
  0
TEXT
  5
95
  8
PEN
 10
40.0
 20
40.0
 30
0.0
 40
8.0
  1
SMALL TEXT 8 MM - SCALE STRIP R1
 11
40.0
 21
40.0
 31
0.0
  0
TEXT
  5
96
  8
PEN
 10
45.0
 20
300.0
 30
0.0
 40
12.0
  1
R2 200 X 200
 11
45.0
 21
300.0
 31
0.0
  0
TEXT
  5
97
  8
PEN
 10
45.0
 20
280.0
 30
0.0
 40
8.0
  1
PEN LINE 20 INSIDE
 11
45.0
 21
280.0
 31
0.0
  0
TEXT
  5
98
  8
PEN
 10
270.0
 20
185.0
 30
0.0
 40
8.0
  1
R3 120X60 R10
 11
270.0
 21
185.0
 31
0.0
  0
TEXT
  5
99
  8
PEN
 10
450.0
 20
255.0
 30
0.0
 40
15.0
  1
O1 CIRCLE
 11
450.0
 21
255.0
 31
0.0
  0
TEXT
  5
9A
  8
PEN
 10
690.0
 20
255.0
 30
0.0
 40
15.0
  1
O2 BULGE
 11
690.0
 21
255.0
 31
0.0
  0
TEXT
  5
9B
  8
PEN
 10
925.0
 20
255.0
 30
0.0
 40
15.0
  1
O3 72 SEG
 11
925.0
 21
255.0
 31
0.0
  0
TEXT
  5
9C
  8
PEN
 10
470.0
 20
225.0
 30
0.0
 40
8.0
  1
D200 ENTITY
 11
470.0
 21
225.0
 31
0.0
  0
TEXT
  5
9D
  8
PEN
 10
715.0
 20
225.0
 30
0.0
 40
8.0
  1
D200 2 ARCS
 11
715.0
 21
225.0
 31
0.0
  0
TEXT
  5
9E
  8
PEN
 10
945.0
 20
225.0
 30
0.0
 40
8.0
  1
D200 LINES
 11
945.0
 21
225.0
 31
0.0
  0
LINE
  5
9F
  8
PEN
 10
70.0
 20
160.0
 30
0.0
 11
70.0
 21
170.0
 31
0.0
  0
LINE
  5
A0
  8
PEN
 10
70.0
 20
360.0
 30
0.0
 11
70.0
 21
350.0
 31
0.0
  0
LINE
  5
A1
  8
PEN
 10
120.0
 20
160.0
 30
0.0
 11
120.0
 21
170.0
 31
0.0
  0
LINE
  5
A2
  8
PEN
 10
120.0
 20
360.0
 30
0.0
 11
120.0
 21
350.0
 31
0.0
  0
LINE
  5
A3
  8
PEN
 10
170.0
 20
160.0
 30
0.0
 11
170.0
 21
170.0
 31
0.0
  0
LINE
  5
A4
  8
PEN
 10
170.0
 20
360.0
 30
0.0
 11
170.0
 21
350.0
 31
0.0
  0
LINE
  5
A5
  8
PEN
 10
20.0
 20
210.0
 30
0.0
 11
30.0
 21
210.0
 31
0.0
  0
LINE
  5
A6
  8
PEN
 10
220.0
 20
210.0
 30
0.0
 11
210.0
 21
210.0
 31
0.0
  0
LINE
  5
A7
  8
PEN
 10
20.0
 20
260.0
 30
0.0
 11
30.0
 21
260.0
 31
0.0
  0
LINE
  5
A8
  8
PEN
 10
220.0
 20
260.0
 30
0.0
 11
210.0
 21
260.0
 31
0.0
  0
LINE
  5
A9
  8
PEN
 10
20.0
 20
310.0
 30
0.0
 11
30.0
 21
310.0
 31
0.0
  0
LINE
  5
AA
  8
PEN
 10
220.0
 20
310.0
 30
0.0
 11
210.0
 21
310.0
 31
0.0
  0
POLYLINE
  5
AB
  8
PEN
 66
1
 10
0.0
 20
0.0
 30
0.0
 70
1
  0
VERTEX
  5
AD
  8
PEN
 10
40.0
 20
180.0
 30
0.0
 70
0
  0
VERTEX
  5
AE
  8
PEN
 10
200.0
 20
180.0
 30
0.0
 70
0
  0
VERTEX
  5
AF
  8
PEN
 10
200.0
 20
340.0
 30
0.0
 70
0
  0
VERTEX
  5
B0
  8
PEN
 10
40.0
 20
340.0
 30
0.0
 70
0
  0
SEQEND
  5
AC
  8
PEN
  0
ARC
  5
B1
  8
PEN
 10
480.0
 20
400.0
 30
0.0
 40
100.0
 50
30.0
 51
150.0
  0
POLYLINE
  5
B2
  8
PEN
 66
1
 10
0.0
 20
0.0
 30
0.0
 70
0
  0
VERTEX
  5
B4
  8
PEN
 10
866.6025403784439
 20
450.0
 30
0.0
 70
0
  0
VERTEX
  5
B5
  8
PEN
 10
863.1469612302545
 20
455.5570233019602
 30
0.0
 70
0
  0
VERTEX
  5
B6
  8
PEN
 10
859.3353340291235
 20
460.8761429008721
 30
0.0
 70
0
  0
VERTEX
  5
B7
  8
PEN
 10
855.1839807478977
 20
465.93458151000686
 30
0.0
 70
0
  0
VERTEX
  5
B8
  8
PEN
 10
850.7106781186548
 20
470.71067811865476
 30
0.0
 70
0
  0
VERTEX
  5
B9
  8
PEN
 10
845.9345815100069
 20
475.18398074789775
 30
0.0
 70
0
  0
VERTEX
  5
BA
  8
PEN
 10
840.8761429008721
 20
479.3353340291235
 30
0.0
 70
0
  0
VERTEX
  5
BB
  8
PEN
 10
835.5570233019603
 20
483.14696123025453
 30
0.0
 70
0
  0
VERTEX
  5
BC
  8
PEN
 10
830.0
 20
486.60254037844385
 30
0.0
 70
0
  0
VERTEX
  5
BD
  8
PEN
 10
824.2288690219001
 20
489.68727415326885
 30
0.0
 70
0
  0
VERTEX
  5
BE
  8
PEN
 10
818.2683432365089
 20
492.3879532511287
 30
0.0
 70
0
  0
VERTEX
  5
BF
  8
PEN
 10
812.1439465303162
 20
494.69301294951055
 30
0.0
 70
0
  0
VERTEX
  5
C0
  8
PEN
 10
805.8819045102521
 20
496.5925826289068
 30
0.0
 70
0
  0
VERTEX
  5
C1
  8
PEN
 10
799.5090322016129
 20
498.078528040323
 30
0.0
 70
0
  0
VERTEX
  5
C2
  8
PEN
 10
793.0526192220052
 20
499.144486137381
 30
0.0
 70
0
  0
VERTEX
  5
C3
  8
PEN
 10
786.5403129230143
 20
499.78589232386037
 30
0.0
 70
0
  0
VERTEX
  5
C4
  8
PEN
 10
780.0
 20
500.0
 30
0.0
 70
0
  0
VERTEX
  5
C5
  8
PEN
 10
773.4596870769857
 20
499.78589232386037
 30
0.0
 70
0
  0
VERTEX
  5
C6
  8
PEN
 10
766.9473807779948
 20
499.144486137381
 30
0.0
 70
0
  0
VERTEX
  5
C7
  8
PEN
 10
760.4909677983871
 20
498.078528040323
 30
0.0
 70
0
  0
VERTEX
  5
C8
  8
PEN
 10
754.1180954897479
 20
496.5925826289068
 30
0.0
 70
0
  0
VERTEX
  5
C9
  8
PEN
 10
747.8560534696838
 20
494.6930129495106
 30
0.0
 70
0
  0
VERTEX
  5
CA
  8
PEN
 10
741.7316567634911
 20
492.3879532511287
 30
0.0
 70
0
  0
VERTEX
  5
CB
  8
PEN
 10
735.7711309780999
 20
489.68727415326885
 30
0.0
 70
0
  0
VERTEX
  5
CC
  8
PEN
 10
730.0
 20
486.6025403784439
 30
0.0
 70
0
  0
VERTEX
  5
CD
  8
PEN
 10
724.4429766980397
 20
483.14696123025453
 30
0.0
 70
0
  0
VERTEX
  5
CE
  8
PEN
 10
719.1238570991279
 20
479.3353340291235
 30
0.0
 70
0
  0
VERTEX
  5
CF
  8
PEN
 10
714.0654184899931
 20
475.18398074789775
 30
0.0
 70
0
  0
VERTEX
  5
D0
  8
PEN
 10
709.2893218813452
 20
470.71067811865476
 30
0.0
 70
0
  0
VERTEX
  5
D1
  8
PEN
 10
704.8160192521023
 20
465.93458151000686
 30
0.0
 70
0
  0
VERTEX
  5
D2
  8
PEN
 10
700.6646659708765
 20
460.8761429008721
 30
0.0
 70
0
  0
VERTEX
  5
D3
  8
PEN
 10
696.8530387697455
 20
455.5570233019602
 30
0.0
 70
0
  0
VERTEX
  5
D4
  8
PEN
 10
693.3974596215561
 20
450.0
 30
0.0
 70
0
  0
SEQEND
  5
B3
  8
PEN
  0
TEXT
  5
D5
  8
PEN
 10
430.0
 20
415.0
 30
0.0
 40
8.0
  1
G1 ARC
 11
430.0
 21
415.0
 31
0.0
  0
TEXT
  5
D6
  8
PEN
 10
720.0
 20
415.0
 30
0.0
 40
8.0
  1
G2 LINES
 11
720.0
 21
415.0
 31
0.0
  0
LINE
  5
D7
  8
PEN
 10
20.0
 20
420.0
 30
0.0
 11
120.0
 21
420.0
 31
0.0
  0
LINE
  5
D8
  8
PEN
 10
20.0
 20
420.0
 30
0.0
 11
20.0
 21
430.0
 31
0.0
  0
LINE
  5
D9
  8
PEN
 10
30.0
 20
420.0
 30
0.0
 11
30.0
 21
425.0
 31
0.0
  0
LINE
  5
DA
  8
PEN
 10
40.0
 20
420.0
 30
0.0
 11
40.0
 21
425.0
 31
0.0
  0
LINE
  5
DB
  8
PEN
 10
50.0
 20
420.0
 30
0.0
 11
50.0
 21
425.0
 31
0.0
  0
LINE
  5
DC
  8
PEN
 10
60.0
 20
420.0
 30
0.0
 11
60.0
 21
425.0
 31
0.0
  0
LINE
  5
DD
  8
PEN
 10
70.0
 20
420.0
 30
0.0
 11
70.0
 21
430.0
 31
0.0
  0
LINE
  5
DE
  8
PEN
 10
80.0
 20
420.0
 30
0.0
 11
80.0
 21
425.0
 31
0.0
  0
LINE
  5
DF
  8
PEN
 10
90.0
 20
420.0
 30
0.0
 11
90.0
 21
425.0
 31
0.0
  0
LINE
  5
E0
  8
PEN
 10
100.0
 20
420.0
 30
0.0
 11
100.0
 21
425.0
 31
0.0
  0
LINE
  5
E1
  8
PEN
 10
110.0
 20
420.0
 30
0.0
 11
110.0
 21
425.0
 31
0.0
  0
LINE
  5
E2
  8
PEN
 10
120.0
 20
420.0
 30
0.0
 11
120.0
 21
430.0
 31
0.0
  0
TEXT
  5
E3
  8
PEN
 10
20.0
 20
440.0
 30
0.0
 40
8.0
  1
100 MM
 11
20.0
 21
440.0
 31
0.0
  0
TEXT
  5
E4
  8
PEN
 10
20.0
 20
530.0
 30
0.0
 40
20.0
  1
COVER ENGINE TEST SHEET - VARIANT A12 - OLD FORMAT R12
 11
20.0
 21
530.0
 31
0.0
  0
ENDSEC
  0
EOF
