  0
SECTION
  2
HEADER
  9
$ACADVER
  1
AC1024
  9
$ACADMAINTVER
 70
6
  9
$DWGCODEPAGE
  3
ANSI_1252
  9
$LASTSAVEDBY
  1
ezdxf
  9
$INSBASE
 10
0.0
 20
0.0
 30
0.0
  9
$EXTMIN
 10
1e+20
 20
1e+20
 30
1e+20
  9
$EXTMAX
 10
-1e+20
 20
-1e+20
 30
-1e+20
  9
$LIMMIN
 10
0.0
 20
0.0
  9
$LIMMAX
 10
420.0
 20
297.0
  9
$ORTHOMODE
 70
0
  9
$REGENMODE
 70
1
  9
$FILLMODE
 70
1
  9
$QTEXTMODE
 70
0
  9
$MIRRTEXT
 70
1
  9
$LTSCALE
 40
1.0
  9
$ATTMODE
 70
1
  9
$TEXTSIZE
 40
2.5
  9
$TRACEWID
 40
1.0
  9
$TEXTSTYLE
  7
Standard
  9
$CLAYER
  8
0
  9
$CELTYPE
  6
ByLayer
  9
$CECOLOR
 62
256
  9
$CELTSCALE
 40
1.0
  9
$DISPSILH
 70
0
  9
$DIMSCALE
 40
1.0
  9
$DIMASZ
 40
2.5
  9
$DIMEXO
 40
0.625
  9
$DIMDLI
 40
3.75
  9
$DIMRND
 40
0.0
  9
$DIMDLE
 40
0.0
  9
$DIMEXE
 40
1.25
  9
$DIMTP
 40
0.0
  9
$DIMTM
 40
0.0
  9
$DIMTXT
 40
2.5
  9
$DIMCEN
 40
2.5
  9
$DIMTSZ
 40
0.0
  9
$DIMTOL
 70
0
  9
$DIMLIM
 70
0
  9
$DIMTIH
 70
0
  9
$DIMTOH
 70
0
  9
$DIMSE1
 70
0
  9
$DIMSE2
 70
0
  9
$DIMTAD
 70
1
  9
$DIMZIN
 70
8
  9
$DIMBLK
  1

  9
$DIMASO
 70
1
  9
$DIMSHO
 70
1
  9
$DIMPOST
  1

  9
$DIMAPOST
  1

  9
$DIMALT
 70
0
  9
$DIMALTD
 70
3
  9
$DIMALTF
 40
0.03937007874
  9
$DIMLFAC
 40
1.0
  9
$DIMTOFL
 70
1
  9
$DIMTVP
 40
0.0
  9
$DIMTIX
 70
0
  9
$DIMSOXD
 70
0
  9
$DIMSAH
 70
0
  9
$DIMBLK1
  1

  9
$DIMBLK2
  1

  9
$DIMSTYLE
  2
ISO-25
  9
$DIMCLRD
 70
0
  9
$DIMCLRE
 70
0
  9
$DIMCLRT
 70
0
  9
$DIMTFAC
 40
1.0
  9
$DIMGAP
 40
0.625
  9
$DIMJUST
 70
0
  9
$DIMSD1
 70
0
  9
$DIMSD2
 70
0
  9
$DIMTOLJ
 70
0
  9
$DIMTZIN
 70
8
  9
$DIMALTZ
 70
0
  9
$DIMALTTZ
 70
0
  9
$DIMUPT
 70
0
  9
$DIMDEC
 70
2
  9
$DIMTDEC
 70
2
  9
$DIMALTU
 70
2
  9
$DIMALTTD
 70
3
  9
$DIMTXSTY
  7
Standard
  9
$DIMAUNIT
 70
0
  9
$DIMADEC
 70
0
  9
$DIMALTRND
 40
0.0
  9
$DIMAZIN
 70
0
  9
$DIMDSEP
 70
44
  9
$DIMATFIT
 70
3
  9
$DIMFRAC
 70
0
  9
$DIMLDRBLK
  1

  9
$DIMLUNIT
 70
2
  9
$DIMLWD
 70
-2
  9
$DIMLWE
 70
-2
  9
$DIMTMOVE
 70
0
  9
$DIMFXL
 40
1.0
  9
$DIMFXLON
 70
0
  9
$DIMJOGANG
 40
0.785398163397
  9
$DIMTFILL
 70
0
  9
$DIMTFILLCLR
 70
0
  9
$DIMARCSYM
 70
0
  9
$DIMLTYPE
  6

  9
$DIMLTEX1
  6

  9
$DIMLTEX2
  6

  9
$DIMTXTDIRECTION
 70
0
  9
$LUNITS
 70
2
  9
$LUPREC
 70
4
  9
$SKETCHINC
 40
1.0
  9
$FILLETRAD
 40
10.0
  9
$AUNITS
 70
0
  9
$AUPREC
 70
2
  9
$MENU
  1
.
  9
$ELEVATION
 40
0.0
  9
$PELEVATION
 40
0.0
  9
$THICKNESS
 40
0.0
  9
$LIMCHECK
 70
0
  9
$CHAMFERA
 40
0.0
  9
$CHAMFERB
 40
0.0
  9
$CHAMFERC
 40
0.0
  9
$CHAMFERD
 40
0.0
  9
$SKPOLY
 70
0
  9
$TDCREATE
 40
2451545.0
  9
$TDUCREATE
 40
2451545.0
  9
$TDUPDATE
 40
2451545.0
  9
$TDUUPDATE
 40
2451545.0
  9
$TDINDWG
 40
0.0
  9
$TDUSRTIMER
 40
0.0
  9
$USRTIMER
 70
1
  9
$ANGBASE
 50
0.0
  9
$ANGDIR
 70
0
  9
$PDMODE
 70
0
  9
$PDSIZE
 40
0.0
  9
$PLINEWID
 40
0.0
  9
$SPLFRAME
 70
0
  9
$SPLINETYPE
 70
6
  9
$SPLINESEGS
 70
8
  9
$HANDSEED
  5
176
  9
$SURFTAB1
 70
6
  9
$SURFTAB2
 70
6
  9
$SURFTYPE
 70
6
  9
$SURFU
 70
6
  9
$SURFV
 70
6
  9
$UCSBASE
  2

  9
$UCSNAME
  2

  9
$UCSORG
 10
0.0
 20
0.0
 30
0.0
  9
$UCSXDIR
 10
1.0
 20
0.0
 30
0.0
  9
$UCSYDIR
 10
0.0
 20
1.0
 30
0.0
  9
$UCSORTHOREF
  2

  9
$UCSORTHOVIEW
 70
0
  9
$UCSORGTOP
 10
0.0
 20
0.0
 30
0.0
  9
$UCSORGBOTTOM
 10
0.0
 20
0.0
 30
0.0
  9
$UCSORGLEFT
 10
0.0
 20
0.0
 30
0.0
  9
$UCSORGRIGHT
 10
0.0
 20
0.0
 30
0.0
  9
$UCSORGFRONT
 10
0.0
 20
0.0
 30
0.0
  9
$UCSORGBACK
 10
0.0
 20
0.0
 30
0.0
  9
$PUCSBASE
  2

  9
$PUCSNAME
  2

  9
$PUCSORG
 10
0.0
 20
0.0
 30
0.0
  9
$PUCSXDIR
 10
1.0
 20
0.0
 30
0.0
  9
$PUCSYDIR
 10
0.0
 20
1.0
 30
0.0
  9
$PUCSORTHOREF
  2

  9
$PUCSORTHOVIEW
 70
0
  9
$PUCSORGTOP
 10
0.0
 20
0.0
 30
0.0
  9
$PUCSORGBOTTOM
 10
0.0
 20
0.0
 30
0.0
  9
$PUCSORGLEFT
 10
0.0
 20
0.0
 30
0.0
  9
$PUCSORGRIGHT
 10
0.0
 20
0.0
 30
0.0
  9
$PUCSORGFRONT
 10
0.0
 20
0.0
 30
0.0
  9
$PUCSORGBACK
 10
0.0
 20
0.0
 30
0.0
  9
$USERI1
 70
0
  9
$USERI2
 70
0
  9
$USERI3
 70
0
  9
$USERI4
 70
0
  9
$USERI5
 70
0
  9
$USERR1
 40
0.0
  9
$USERR2
 40
0.0
  9
$USERR3
 40
0.0
  9
$USERR4
 40
0.0
  9
$USERR5
 40
0.0
  9
$WORLDVIEW
 70
1
  9
$SHADEDGE
 70
3
  9
$SHADEDIF
 70
70
  9
$TILEMODE
 70
1
  9
$MAXACTVP
 70
64
  9
$PINSBASE
 10
0.0
 20
0.0
 30
0.0
  9
$PLIMCHECK
 70
0
  9
$PEXTMIN
 10
1e+20
 20
1e+20
 30
1e+20
  9
$PEXTMAX
 10
-1e+20
 20
-1e+20
 30
-1e+20
  9
$PLIMMIN
 10
0.0
 20
0.0
  9
$PLIMMAX
 10
420.0
 20
297.0
  9
$UNITMODE
 70
0
  9
$VISRETAIN
 70
1
  9
$PLINEGEN
 70
0
  9
$PSLTSCALE
 70
1
  9
$TREEDEPTH
 70
3020
  9
$CMLSTYLE
  2
Standard
  9
$CMLJUST
 70
0
  9
$CMLSCALE
 40
20.0
  9
$PROXYGRAPHICS
 70
1
  9
$MEASUREMENT
 70
1
  9
$CELWEIGHT
370
-1
  9
$ENDCAPS
280
0
  9
$JOINSTYLE
280
0
  9
$LWDISPLAY
290
0
  9
$INSUNITS
 70
4
  9
$HYPERLINKBASE
  1

  9
$STYLESHEET
  1

  9
$XEDIT
290
1
  9
$CEPSNTYPE
380
0
  9
$PSTYLEMODE
290
1
  9
$FINGERPRINTGUID
  2
{00000000-0000-0000-0000-000000000000}
  9
$VERSIONGUID
  2
{00000000-0000-0000-0000-000000000000}
  9
$EXTNAMES
290
1
  9
$PSVPSCALE
 40
0.0
  9
$OLESTARTUP
290
0
  9
$SORTENTS
280
127
  9
$INDEXCTL
280
0
  9
$HIDETEXT
280
1
  9
$XCLIPFRAME
280
1
  9
$HALOGAP
280
0
  9
$OBSCOLOR
 70
257
  9
$OBSLTYPE
280
0
  9
$INTERSECTIONDISPLAY
280
0
  9
$INTERSECTIONCOLOR
 70
257
  9
$DIMASSOC
280
2
  9
$PROJECTNAME
  1

  9
$CAMERADISPLAY
290
0
  9
$LENSLENGTH
 40
50.0
  9
$CAMERAHEIGHT
 40
0.0
  9
$STEPSPERSEC
 40
24.0
  9
$STEPSIZE
 40
100.0
  9
$3DDWFPREC
 40
2.0
  9
$PSOLWIDTH
 40
0.005
  9
$PSOLHEIGHT
 40
0.08
  9
$LOFTANG1
 40
1.570796326795
  9
$LOFTANG2
 40
1.570796326795
  9
$LOFTMAG1
 40
0.0
  9
$LOFTMAG2
 40
0.0
  9
$LOFTPARAM
 70
7
  9
$LOFTNORMALS
280
1
  9
$LATITUDE
 40
37.795
  9
$LONGITUDE
 40
-122.394
  9
$NORTHDIRECTION
 40
0.0
  9
$TIMEZONE
 70
-8000
  9
$LIGHTGLYPHDISPLAY
280
1
  9
$TILEMODELIGHTSYNCH
280
1
  9
$CMATERIAL
347
20
  9
$SOLIDHIST
280
0
  9
$SHOWHIST
280
1
  9
$DWFFRAME
280
2
  9
$DGNFRAME
280
2
  9
$REALWORLDSCALE
290
1
  9
$INTERFERECOLOR
 62
256
  9
$CSHADOW
280
0
  9
$SHADOWPLANELOCATION
 40
0.0
  0
ENDSEC
  0
SECTION
  2
CLASSES
  0
CLASS
  1
ACDBDETAILVIEWSTYLE
  2
AcDbDetailViewStyle
  3
ObjectDBX Classes
 90
1025
 91
0
280
0
281
0
  0
CLASS
  1
ACDBDICTIONARYWDFLT
  2
AcDbDictionaryWithDefault
  3
ObjectDBX Classes
 90
0
 91
0
280
0
281
0
  0
CLASS
  1
ACDBPLACEHOLDER
  2
AcDbPlaceHolder
  3
ObjectDBX Classes
 90
0
 91
0
280
0
281
0
  0
CLASS
  1
ACDBSECTIONVIEWSTYLE
  2
AcDbSectionViewStyle
  3
ObjectDBX Classes
 90
1025
 91
0
280
0
281
0
  0
CLASS
  1
CELLSTYLEMAP
  2
AcDbCellStyleMap
  3
ObjectDBX Classes
 90
1152
 91
0
280
0
281
0
  0
CLASS
  1
DICTIONARYVAR
  2
AcDbDictionaryVar
  3
ObjectDBX Classes
 90
0
 91
0
280
0
281
0
  0
CLASS
  1
LAYOUT
  2
AcDbLayout
  3
ObjectDBX Classes
 90
0
 91
0
280
0
281
0
  0
CLASS
  1
MATERIAL
  2
AcDbMaterial
  3
ObjectDBX Classes
 90
1153
 91
0
280
0
281
0
  0
CLASS
  1
MENTALRAYRENDERSETTINGS
  2
AcDbMentalRayRenderSettings
  3
SCENEOE
 90
1024
 91
0
280
0
281
0
  0
CLASS
  1
MLEADERSTYLE
  2
AcDbMLeaderStyle
  3
ACDB_MLEADERSTYLE_CLASS
 90
4095
 91
0
280
0
281
0
  0
CLASS
  1
RASTERVARIABLES
  2
AcDbRasterVariables
  3
ISM
 90
0
 91
0
280
0
281
0
  0
CLASS
  1
SCALE
  2
AcDbScale
  3
ObjectDBX Classes
 90
1153
 91
0
280
0
281
0
  0
CLASS
  1
SUN
  2
AcDbSun
  3
SCENEOE
 90
1153
 91
0
280
0
281
0
  0
CLASS
  1
TABLESTYLE
  2
AcDbTableStyle
  3
ObjectDBX Classes
 90
4095
 91
0
280
0
281
0
  0
CLASS
  1
VISUALSTYLE
  2
AcDbVisualStyle
  3
ObjectDBX Classes
 90
4095
 91
0
280
0
281
0
  0
ENDSEC
  0
SECTION
  2
TABLES
  0
TABLE
  2
VPORT
  5
8
330
0
100
AcDbSymbolTable
 70
1
  0
VPORT
  5
23
330
8
100
AcDbSymbolTableRecord
100
AcDbViewportTableRecord
  2
*Active
 70
0
 10
0.0
 20
0.0
 11
1.0
 21
1.0
 12
0.0
 22
0.0
 13
0.0
 23
0.0
 14
0.5
 24
0.5
 15
0.5
 25
0.5
 16
0.0
 26
0.0
 36
1.0
 17
0.0
 27
0.0
 37
0.0
 40
1000.0
 41
1.34
 42
50.0
 43
0.0
 44
0.0
 50
0.0
 51
0.0
 71
0
 72
1000
 73
1
 74
3
 75
0
 76
0
 77
0
 78
0
281
0
 65
0
146
0.0
  0
ENDTAB
  0
TABLE
  2
LTYPE
  5
2
330
0
100
AcDbSymbolTable
 70
3
  0
LTYPE
  5
24
330
2
100
AcDbSymbolTableRecord
100
AcDbLinetypeTableRecord
  2
ByBlock
 70
0
  3

 72
65
 73
0
 40
0.0
  0
LTYPE
  5
25
330
2
100
AcDbSymbolTableRecord
100
AcDbLinetypeTableRecord
  2
ByLayer
 70
0
  3

 72
65
 73
0
 40
0.0
  0
LTYPE
  5
26
330
2
100
AcDbSymbolTableRecord
100
AcDbLinetypeTableRecord
  2
Continuous
 70
0
  3

 72
65
 73
0
 40
0.0
  0
ENDTAB
  0
TABLE
  2
LAYER
  5
1
330
0
100
AcDbSymbolTable
 70
4
  0
LAYER
  5
27
330
1
100
AcDbSymbolTableRecord
100
AcDbLayerTableRecord
  2
0
 70
0
 62
7
  6
Continuous
370
-3
390
13
347
21
  0
LAYER
  5
28
330
1
100
AcDbSymbolTableRecord
100
AcDbLayerTableRecord
  2
Defpoints
 70
0
 62
7
  6
Continuous
290
0
370
-3
390
13
347
21
  0
LAYER
  5
2F
330
1
100
AcDbSymbolTableRecord
100
AcDbLayerTableRecord
  2
CUT
 70
0
 62
1
  6
Continuous
370
-3
390
13
347
21
  0
LAYER
  5
30
330
1
100
AcDbSymbolTableRecord
100
AcDbLayerTableRecord
  2
PEN
 70
0
 62
5
  6
Continuous
370
-3
390
13
347
21
  0
ENDTAB
  0
TABLE
  2
STYLE
  5
5
330
0
100
AcDbSymbolTable
 70
1
  0
STYLE
  5
29
330
5
100
AcDbSymbolTableRecord
100
AcDbTextStyleTableRecord
  2
Standard
 70
0
 40
0.0
 41
1.0
 50
0.0
 71
0
 42
2.5
  3
txt
  4

  0
ENDTAB
  0
TABLE
  2
VIEW
  5
7
330
0
100
AcDbSymbolTable
 70
0
  0
ENDTAB
  0
TABLE
  2
UCS
  5
6
330
0
100
AcDbSymbolTable
 70
0
  0
ENDTAB
  0
TABLE
  2
APPID
  5
3
330
0
100
AcDbSymbolTable
 70
3
  0
APPID
  5
2A
330
3
100
AcDbSymbolTableRecord
100
AcDbRegAppTableRecord
  2
ACAD
 70
0
  0
APPID
  5
173
330
3
100
AcDbSymbolTableRecord
100
AcDbRegAppTableRecord
  2
HATCHBACKGROUNDCOLOR
 70
0
  0
APPID
  5
174
330
3
100
AcDbSymbolTableRecord
100
AcDbRegAppTableRecord
  2
EZDXF
 70
0
  0
ENDTAB
  0
TABLE
  2
DIMSTYLE
  5
4
330
0
100
AcDbSymbolTable
 70
1
100
AcDbDimStyleTable
  0
DIMSTYLE
105
2B
330
4
100
AcDbSymbolTableRecord
100
AcDbDimStyleTableRecord
  2
Standard
 70
0
 40
1.0
 41
2.5
 42
0.625
 43
3.75
 44
1.25
 45
0.0
 46
0.0
 47
0.0
 48
0.0
 49
2.5
140
2.5
141
2.5
142
0.0
143
0.03937007874
144
1.0
145
0.0
146
1.0
147
0.625
148
0.0
 69
0
 70
0
 71
0
 72
0
 73
0
 74
0
 75
0
 76
0
 77
1
 78
8
 79
3
170
0
171
3
172
1
173
0
174
0
175
0
176
0
177
0
178
0
179
2
271
2
272
2
273
2
274
3
275
0
276
0
277
2
278
44
279
0
280
0
281
0
282
0
283
0
284
8
285
0
286
0
288
0
289
3
290
0
371
-2
372
-2
  0
ENDTAB
  0
TABLE
  2
BLOCK_RECORD
  5
9
330
0
100
AcDbSymbolTable
 70
2
  0
BLOCK_RECORD
  5
17
330
9
100
AcDbSymbolTableRecord
100
AcDbBlockTableRecord
  2
*Model_Space
340
1A
 70
0
280
1
281
0
  0
BLOCK_RECORD
  5
1B
330
9
100
AcDbSymbolTableRecord
100
AcDbBlockTableRecord
  2
*Paper_Space
340
1E
 70
0
280
1
281
0
  0
ENDTAB
  0
ENDSEC
  0
SECTION
  2
BLOCKS
  0
BLOCK
  5
18
330
17
100
AcDbEntity
  8
0
100
AcDbBlockBegin
  2
*Model_Space
 70
0
 10
0.0
 20
0.0
 30
0.0
  3
*Model_Space
  1

  0
ENDBLK
  5
19
330
17
100
AcDbEntity
  8
0
100
AcDbBlockEnd
  0
BLOCK
  5
1C
330
1B
100
AcDbEntity
  8
0
100
AcDbBlockBegin
  2
*Paper_Space
 70
0
 10
0.0
 20
0.0
 30
0.0
  3
*Paper_Space
  1

  0
ENDBLK
  5
1D
330
1B
100
AcDbEntity
  8
0
100
AcDbBlockEnd
  0
ENDSEC
  0
SECTION
  2
ENTITIES
  0
LWPOLYLINE
  5
31
330
17
100
AcDbEntity
  8
CUT
100
AcDbPolyline
 90
4
 70
1
 10
20.0
 20
20.0
 10
1020.0
 20
20.0
 10
1020.0
 20
120.0
 10
20.0
 20
120.0
  0
LWPOLYLINE
  5
32
330
17
100
AcDbEntity
  8
CUT
100
AcDbPolyline
 90
4
 70
1
 10
20.0
 20
160.0
 10
220.0
 20
160.0
 10
220.0
 20
360.0
 10
20.0
 20
360.0
  0
LWPOLYLINE
  5
33
330
17
100
AcDbEntity
  8
CUT
100
AcDbPolyline
 90
8
 70
1
 10
270.0
 20
160.0
 10
370.0
 20
160.0
 42
0.41421356237309503
 10
380.0
 20
170.0
 10
380.0
 20
210.0
 42
0.41421356237309503
 10
370.0
 20
220.0
 10
270.0
 20
220.0
 42
0.41421356237309503
 10
260.0
 20
210.0
 10
260.0
 20
170.0
 42
0.41421356237309503
  0
CIRCLE
  5
34
330
17
100
AcDbEntity
  8
CUT
100
AcDbCircle
 10
520.0
 20
260.0
 30
0.0
 40
100.0
  0
LWPOLYLINE
  5
35
330
17
100
AcDbEntity
  8
CUT
100
AcDbPolyline
 90
2
 70
1
 10
860.0
 20
260.0
 42
1.0
 10
660.0
 20
260.0
 42
1.0
  0
LWPOLYLINE
  5
36
330
17
100
AcDbEntity
  8
CUT
100
AcDbPolyline
 90
72
 70
1
 10
1100.0
 20
260.0
 10
1099.6194698091745
 20
268.7155742747658
 10
1098.4807753012208
 20
277.364817766693
 10
1096.5925826289067
 20
285.88190451025207
 10
1093.9692620785909
 20
294.2020143325669
 10
1090.6307787036649
 20
302.26182617406994
 10
1086.6025403784438
 20
310.0
 10
1081.9152044288992
 20
317.35764363510464
 10
1076.6044443118979
 20
324.27876096865396
 10
1070.7106781186549
 20
330.71067811865476
 10
1064.2787609686538
 20
336.6044443118978
 10
1057.3576436351045
 20
341.9152044288992
 10
1050.0
 20
346.60254037844385
 10
1042.26182617407
 20
350.630778703665
 10
1034.202014332567
 20
353.9692620785908
 10
1025.881904510252
 20
356.5925826289068
 10
1017.364817766693
 20
358.4807753012208
 10
1008.7155742747658
 20
359.6194698091746
 10
1000.0
 20
360.0
 10
991.2844257252342
 20
359.6194698091746
 10
982.635182233307
 20
358.4807753012208
 10
974.1180954897479
 20
356.5925826289068
 10
965.7979856674332
 20
353.9692620785909
 10
957.7381738259301
 20
350.630778703665
 10
950.0
 20
346.6025403784439
 10
942.6423563648954
 20
341.9152044288992
 10
935.721239031346
 20
336.6044443118978
 10
929.2893218813452
 20
330.71067811865476
 10
923.3955556881021
 20
324.27876096865396
 10
918.0847955711008
 20
317.3576436351046
 10
913.3974596215561
 20
310.0
 10
909.369221296335
 20
302.26182617406994
 10
906.0307379214091
 20
294.2020143325669
 10
903.4074173710932
 20
285.8819045102521
 10
901.5192246987792
 20
277.364817766693
 10
900.3805301908254
 20
268.7155742747658
 10
900.0
 20
260.0
 10
900.3805301908254
 20
251.2844257252342
 10
901.5192246987792
 20
242.63518223330695
 10
903.4074173710932
 20
234.11809548974793
 10
906.0307379214091
 20
225.79798566743312
 10
909.369221296335
 20
217.73817382593006
 10
913.3974596215561
 20
210.0
 10
918.0847955711008
 20
202.6423563648954
 10
923.3955556881021
 20
195.72123903134607
 10
929.2893218813452
 20
189.28932188134524
 10
935.721239031346
 20
183.3955556881022
 10
942.6423563648954
 20
178.08479557110084
 10
950.0
 20
173.39745962155615
 10
957.7381738259301
 20
169.369221296335
 10
965.7979856674332
 20
166.03073792140916
 10
974.1180954897479
 20
163.40741737109317
 10
982.635182233307
 20
161.5192246987792
 10
991.2844257252342
 20
160.38053019082543
 10
1000.0
 20
160.0
 10
1008.7155742747658
 20
160.38053019082543
 10
1017.364817766693
 20
161.51922469877917
 10
1025.881904510252
 20
163.40741737109317
 10
1034.202014332567
 20
166.03073792140918
 10
1042.26182617407
 20
169.369221296335
 10
1050.0
 20
173.39745962155615
 10
1057.3576436351045
 20
178.0847955711008
 10
1064.2787609686538
 20
183.3955556881022
 10
1070.7106781186546
 20
189.28932188134524
 10
1076.6044443118979
 20
195.72123903134604
 10
1081.9152044288992
 20
202.64235636489536
 10
1086.6025403784438
 20
209.99999999999994
 10
1090.630778703665
 20
217.73817382593006
 10
1093.9692620785909
 20
225.79798566743312
 10
1096.5925826289067
 20
234.11809548974793
 10
1098.4807753012208
 20
242.63518223330695
 10
1099.6194698091745
 20
251.28442572523417
  0
LWPOLYLINE
  5
37
330
17
100
AcDbEntity
  8
PEN
100
AcDbPolyline
 90
7
 70
0
 10
40.0
 20
80.0
 10
40.0
 20
95.0
 10
47.5
 20
95.0
 10
50.0
 20
92.5
 10
50.0
 20
90.0
 10
47.5
 20
87.5
 10
40.0
 20
87.5
  0
LWPOLYLINE
  5
38
330
17
100
AcDbEntity
  8
PEN
100
AcDbPolyline
 90
2
 70
0
 10
45.0
 20
87.5
 10
50.0
 20
80.0
  0
LWPOLYLINE
  5
39
330
17
100
AcDbEntity
  8
PEN
100
AcDbPolyline
 90
3
 70
0
 10
57.5
 20
92.5
 10
60.0
 20
95.0
 10
60.0
 20
80.0
  0
LWPOLYLINE
  5
3A
330
17
100
AcDbEntity
  8
PEN
100
AcDbPolyline
 90
2
 70
0
 10
57.5
 20
80.0
 10
62.5
 20
80.0
  0
LWPOLYLINE
  5
3B
330
17
100
AcDbEntity
  8
PEN
100
AcDbPolyline
 90
3
 70
0
 10
87.5
 20
92.5
 10
90.0
 20
95.0
 10
90.0
 20
80.0
  0
LWPOLYLINE
  5
3C
330
17
100
AcDbEntity
  8
PEN
100
AcDbPolyline
 90
2
 70
0
 10
87.5
 20
80.0
 10
92.5
 20
80.0
  0
LWPOLYLINE
  5
3D
330
17
100
AcDbEntity
  8
PEN
100
AcDbPolyline
 90
9
 70
0
 10
102.5
 20
80.0
 10
100.0
 20
82.5
 10
100.0
 20
92.5
 10
102.5
 20
95.0
 10
107.5
 20
95.0
 10
110.0
 20
92.5
 10
110.0
 20
82.5
 10
107.5
 20
80.0
 10
102.5
 20
80.0
  0
LWPOLYLINE
  5
3E
330
17
100
AcDbEntity
  8
PEN
100
AcDbPolyline
 90
2
 70
0
 10
100.0
 20
82.5
 10
110.0
 20
92.5
  0
LWPOLYLINE
  5
3F
330
17
100
AcDbEntity
  8
PEN
100
AcDbPolyline
 90
9
 70
0
 10
117.5
 20
80.0
 10
115.0
 20
82.5
 10
115.0
 20
92.5
 10
117.5
 20
95.0
 10
122.5
 20
95.0
 10
125.0
 20
92.5
 10
125.0
 20
82.5
 10
122.5
 20
80.0
 10
117.5
 20
80.0
  0
LWPOLYLINE
  5
40
330
17
100
AcDbEntity
  8
PEN
100
AcDbPolyline
 90
2
 70
0
 10
115.0
 20
82.5
 10
125.0
 20
92.5
  0
LWPOLYLINE
  5
41
330
17
100
AcDbEntity
  8
PEN
100
AcDbPolyline
 90
9
 70
0
 10
132.5
 20
80.0
 10
130.0
 20
82.5
 10
130.0
 20
92.5
 10
132.5
 20
95.0
 10
137.5
 20
95.0
 10
140.0
 20
92.5
 10
140.0
 20
82.5
 10
137.5
 20
80.0
 10
132.5
 20
80.0
  0
LWPOLYLINE
  5
42
330
17
100
AcDbEntity
  8
PEN
100
AcDbPolyline
 90
2
 70
0
 10
130.0
 20
82.5
 10
140.0
 20
92.5
  0
LWPOLYLINE
  5
43
330
17
100
AcDbEntity
  8
PEN
100
AcDbPolyline
 90
2
 70
0
 10
160.0
 20
80.0
 10
170.0
 20
95.0
  0
LWPOLYLINE
  5
44
330
17
100
AcDbEntity
  8
PEN
100
AcDbPolyline
 90
2
 70
0
 10
160.0
 20
95.0
 10
170.0
 20
80.0
  0
LWPOLYLINE
  5
45
330
17
100
AcDbEntity
  8
PEN
100
AcDbPolyline
 90
3
 70
0
 10
192.5
 20
92.5
 10
195.0
 20
95.0
 10
195.0
 20
80.0
  0
LWPOLYLINE
  5
46
330
17
100
AcDbEntity
  8
PEN
100
AcDbPolyline
 90
2
 70
0
 10
192.5
 20
80.0
 10
197.5
 20
80.0
  0
LWPOLYLINE
  5
47
330
17
100
AcDbEntity
  8
PEN
100
AcDbPolyline
 90
9
 70
0
 10
207.5
 20
80.0
 10
205.0
 20
82.5
 10
205.0
 20
92.5
 10
207.5
 20
95.0
 10
212.5
 20
95.0
 10
215.0
 20
92.5
 10
215.0
 20
82.5
 10
212.5
 20
80.0
 10
207.5
 20
80.0
  0
LWPOLYLINE
  5
48
330
17
100
AcDbEntity
  8
PEN
100
AcDbPolyline
 90
2
 70
0
 10
205.0
 20
82.5
 10
215.0
 20
92.5
  0
LWPOLYLINE
  5
49
330
17
100
AcDbEntity
  8
PEN
100
AcDbPolyline
 90
9
 70
0
 10
222.5
 20
80.0
 10
220.0
 20
82.5
 10
220.0
 20
92.5
 10
222.5
 20
95.0
 10
227.5
 20
95.0
 10
230.0
 20
92.5
 10
230.0
 20
82.5
 10
227.5
 20
80.0
 10
222.5
 20
80.0
  0
LWPOLYLINE
  5
4A
330
17
100
AcDbEntity
  8
PEN
100
AcDbPolyline
 90
2
 70
0
 10
220.0
 20
82.5
 10
230.0
 20
92.5
  0
LWPOLYLINE
  5
4B
330
17
100
AcDbEntity
  8
PEN
100
AcDbPolyline
 90
12
 70
0
 10
45.333333333333336
 20
46.666666666666664
 10
44.0
 20
48.0
 10
41.333333333333336
 20
48.0
 10
40.0
 20
46.666666666666664
 10
40.0
 20
45.333333333333336
 10
41.333333333333336
 20
44.0
 10
44.0
 20
44.0
 10
45.333333333333336
 20
42.666666666666664
 10
45.333333333333336
 20
41.333333333333336
 10
44.0
 20
40.0
 10
41.333333333333336
 20
40.0
 10
40.0
 20
41.333333333333336
  0
LWPOLYLINE
  5
4C
330
17
100
AcDbEntity
  8
PEN
100
AcDbPolyline
 90
5
 70
0
 10
48.0
 20
40.0
 10
48.0
 20
48.0
 10
50.666666666666664
 20
44.0
 10
53.333333333333336
 20
48.0
 10
53.333333333333336
 20
40.0
  0
LWPOLYLINE
  5
4D
330
17
100
AcDbEntity
  8
PEN
100
AcDbPolyline
 90
5
 70
0
 10
56.0
 20
40.0
 10
56.0
 20
45.333333333333336
 10
58.666666666666664
 20
48.0
 10
61.333333333333336
 20
45.333333333333336
 10
61.333333333333336
 20
40.0
  0
LWPOLYLINE
  5
4E
330
17
100
AcDbEntity
  8
PEN
100
AcDbPolyline
 90
2
 70
0
 10
56.0
 20
44.0
 10
61.333333333333336
 20
44.0
  0
LWPOLYLINE
  5
4F
330
17
100
AcDbEntity
  8
PEN
100
AcDbPolyline
 90
3
 70
0
 10
64.0
 20
48.0
 10
64.0
 20
40.0
 10
69.33333333333333
 20
40.0
  0
LWPOLYLINE
  5
50
330
17
100
AcDbEntity
  8
PEN
100
AcDbPolyline
 90
3
 70
0
 10
72.0
 20
48.0
 10
72.0
 20
40.0
 10
77.33333333333333
 20
40.0
  0
LWPOLYLINE
  5
51
330
17
100
AcDbEntity
  8
PEN
100
AcDbPolyline
 90
2
 70
0
 10
88.0
 20
48.0
 10
93.33333333333333
 20
48.0
  0
LWPOLYLINE
  5
52
330
17
100
AcDbEntity
  8
PEN
100
AcDbPolyline
 90
2
 70
0
 10
90.66666666666667
 20
48.0
 10
90.66666666666667
 20
40.0
  0
LWPOLYLINE
  5
53
330
17
100
AcDbEntity
  8
PEN
100
AcDbPolyline
 90
4
 70
0
 10
101.33333333333333
 20
48.0
 10
96.0
 20
48.0
 10
96.0
 20
40.0
 10
101.33333333333333
 20
40.0
  0
LWPOLYLINE
  5
54
330
17
100
AcDbEntity
  8
PEN
100
AcDbPolyline
 90
2
 70
0
 10
96.0
 20
44.0
 10
100.0
 20
44.0
  0
LWPOLYLINE
  5
55
330
17
100
AcDbEntity
  8
PEN
100
AcDbPolyline
 90
2
 70
0
 10
104.0
 20
40.0
 10
109.33333333333333
 20
48.0
  0
LWPOLYLINE
  5
56
330
17
100
AcDbEntity
  8
PEN
100
AcDbPolyline
 90
2
 70
0
 10
104.0
 20
48.0
 10
109.33333333333333
 20
40.0
  0
LWPOLYLINE
  5
57
330
17
100
AcDbEntity
  8
PEN
100
AcDbPolyline
 90
2
 70
0
 10
112.0
 20
48.0
 10
117.33333333333333
 20
48.0
  0
LWPOLYLINE
  5
58
330
17
100
AcDbEntity
  8
PEN
100
AcDbPolyline
 90
2
 70
0
 10
114.66666666666667
 20
48.0
 10
114.66666666666667
 20
40.0
  0
LWPOLYLINE
  5
59
330
17
100
AcDbEntity
  8
PEN
100
AcDbPolyline
 90
16
 70
0
 10
129.33333333333334
 20
44.0
 10
128.0
 20
45.333333333333336
 10
128.0
 20
46.666666666666664
 10
129.33333333333334
 20
48.0
 10
132.0
 20
48.0
 10
133.33333333333334
 20
46.666666666666664
 10
133.33333333333334
 20
45.333333333333336
 10
132.0
 20
44.0
 10
129.33333333333334
 20
44.0
 10
128.0
 20
42.666666666666664
 10
128.0
 20
41.333333333333336
 10
129.33333333333334
 20
40.0
 10
132.0
 20
40.0
 10
133.33333333333334
 20
41.333333333333336
 10
133.33333333333334
 20
42.666666666666664
 10
132.0
 20
44.0
  0
LWPOLYLINE
  5
5A
330
17
100
AcDbEntity
  8
PEN
100
AcDbPolyline
 90
5
 70
0
 10
144.0
 20
40.0
 10
144.0
 20
48.0
 10
146.66666666666666
 20
44.0
 10
149.33333333333334
 20
48.0
 10
149.33333333333334
 20
40.0
  0
LWPOLYLINE
  5
5B
330
17
100
AcDbEntity
  8
PEN
100
AcDbPolyline
 90
5
 70
0
 10
152.0
 20
40.0
 10
152.0
 20
48.0
 10
154.66666666666666
 20
44.0
 10
157.33333333333334
 20
48.0
 10
157.33333333333334
 20
40.0
  0
LWPOLYLINE
  5
5C
330
17
100
AcDbEntity
  8
PEN
100
AcDbPolyline
 90
2
 70
0
 10
169.33333333333334
 20
44.0
 10
172.0
 20
44.0
  0
LWPOLYLINE
  5
5D
330
17
100
AcDbEntity
  8
PEN
100
AcDbPolyline
 90
12
 70
0
 10
189.33333333333334
 20
46.666666666666664
 10
188.0
 20
48.0
 10
185.33333333333334
 20
48.0
 10
184.0
 20
46.666666666666664
 10
184.0
 20
45.333333333333336
 10
185.33333333333334
 20
44.0
 10
188.0
 20
44.0
 10
189.33333333333334
 20
42.666666666666664
 10
189.33333333333334
 20
41.333333333333336
 10
188.0
 20
40.0
 10
185.33333333333334
 20
40.0
 10
184.0
 20
41.333333333333336
  0
LWPOLYLINE
  5
5E
330
17
100
AcDbEntity
  8
PEN
100
AcDbPolyline
 90
8
 70
0
 10
197.33333333333334
 20
46.666666666666664
 10
196.0
 20
48.0
 10
193.33333333333334
 20
48.0
 10
192.0
 20
46.666666666666664
 10
192.0
 20
41.333333333333336
 10
193.33333333333334
 20
40.0
 10
196.0
 20
40.0
 10
197.33333333333334
 20
41.333333333333336
  0
LWPOLYLINE
  5
5F
330
17
100
AcDbEntity
  8
PEN
100
AcDbPolyline
 90
5
 70
0
 10
200.0
 20
40.0
 10
200.0
 20
45.333333333333336
 10
202.66666666666666
 20
48.0
 10
205.33333333333334
 20
45.333333333333336
 10
205.33333333333334
 20
40.0
  0
LWPOLYLINE
  5
60
330
17
100
AcDbEntity
  8
PEN
100
AcDbPolyline
 90
2
 70
0
 10
200.0
 20
44.0
 10
205.33333333333334
 20
44.0
  0
LWPOLYLINE
  5
61
330
17
100
AcDbEntity
  8
PEN
100
AcDbPolyline
 90
3
 70
0
 10
208.0
 20
48.0
 10
208.0
 20
40.0
 10
213.33333333333334
 20
40.0
  0
LWPOLYLINE
  5
62
330
17
100
AcDbEntity
  8
PEN
100
AcDbPolyline
 90
4
 70
0
 10
221.33333333333334
 20
48.0
 10
216.0
 20
48.0
 10
216.0
 20
40.0
 10
221.33333333333334
 20
40.0
  0
LWPOLYLINE
  5
63
330
17
100
AcDbEntity
  8
PEN
100
AcDbPolyline
 90
2
 70
0
 10
216.0
 20
44.0
 10
220.0
 20
44.0
  0
LWPOLYLINE
  5
64
330
17
100
AcDbEntity
  8
PEN
100
AcDbPolyline
 90
12
 70
0
 10
237.33333333333334
 20
46.666666666666664
 10
236.0
 20
48.0
 10
233.33333333333334
 20
48.0
 10
232.0
 20
46.666666666666664
 10
232.0
 20
45.333333333333336
 10
233.33333333333334
 20
44.0
 10
236.0
 20
44.0
 10
237.33333333333334
 20
42.666666666666664
 10
237.33333333333334
 20
41.333333333333336
 10
236.0
 20
40.0
 10
233.33333333333334
 20
40.0
 10
232.0
 20
41.333333333333336
  0
LWPOLYLINE
  5
65
330
17
100
AcDbEntity
  8
PEN
100
AcDbPolyline
 90
2
 70
0
 10
240.0
 20
48.0
 10
245.33333333333334
 20
48.0
  0
LWPOLYLINE
  5
66
330
17
100
AcDbEntity
  8
PEN
100
AcDbPolyline
 90
2
 70
0
 10
242.66666666666666
 20
48.0
 10
242.66666666666666
 20
40.0
  0
LWPOLYLINE
  5
67
330
17
100
AcDbEntity
  8
PEN
100
AcDbPolyline
 90
7
 70
0
 10
248.0
 20
40.0
 10
248.0
 20
48.0
 10
252.0
 20
48.0
 10
253.33333333333334
 20
46.666666666666664
 10
253.33333333333334
 20
45.333333333333336
 10
252.0
 20
44.0
 10
248.0
 20
44.0
  0
LWPOLYLINE
  5
68
330
17
100
AcDbEntity
  8
PEN
100
AcDbPolyline
 90
2
 70
0
 10
250.66666666666666
 20
44.0
 10
253.33333333333334
 20
40.0
  0
LWPOLYLINE
  5
69
330
17
100
AcDbEntity
  8
PEN
100
AcDbPolyline
 90
2
 70
0
 10
257.3333333333333
 20
48.0
 10
260.0
 20
48.0
  0
LWPOLYLINE
  5
6A
330
17
100
AcDbEntity
  8
PEN
100
AcDbPolyline
 90
2
 70
0
 10
258.6666666666667
 20
48.0
 10
258.6666666666667
 20
40.0
  0
LWPOLYLINE
  5
6B
330
17
100
AcDbEntity
  8
PEN
100
AcDbPolyline
 90
2
 70
0
 10
257.3333333333333
 20
40.0
 10
260.0
 20
40.0
  0
LWPOLYLINE
  5
6C
330
17
100
AcDbEntity
  8
PEN
100
AcDbPolyline
 90
7
 70
0
 10
264.0
 20
40.0
 10
264.0
 20
48.0
 10
268.0
 20
48.0
 10
269.3333333333333
 20
46.666666666666664
 10
269.3333333333333
 20
45.333333333333336
 10
268.0
 20
44.0
 10
264.0
 20
44.0
  0
LWPOLYLINE
  5
6D
330
17
100
AcDbEntity
  8
PEN
100
AcDbPolyline
 90
7
 70
0
 10
280.0
 20
40.0
 10
280.0
 20
48.0
 10
284.0
 20
48.0
 10
285.3333333333333
 20
46.666666666666664
 10
285.3333333333333
 20
45.333333333333336
 10
284.0
 20
44.0
 10
280.0
 20
44.0
  0
LWPOLYLINE
  5
6E
330
17
100
AcDbEntity
  8
PEN
100
AcDbPolyline
 90
2
 70
0
 10
282.6666666666667
 20
44.0
 10
285.3333333333333
 20
40.0
  0
LWPOLYLINE
  5
6F
330
17
100
AcDbEntity
  8
PEN
100
AcDbPolyline
 90
3
 70
0
 10
289.3333333333333
 20
46.666666666666664
 10
290.6666666666667
 20
48.0
 10
290.6666666666667
 20
40.0
  0
LWPOLYLINE
  5
70
330
17
100
AcDbEntity
  8
PEN
100
AcDbPolyline
 90
2
 70
0
 10
289.3333333333333
 20
40.0
 10
292.0
 20
40.0
  0
LWPOLYLINE
  5
71
330
17
100
AcDbEntity
  8
PEN
100
AcDbPolyline
 90
7
 70
0
 10
45.0
 20
300.0
 10
45.0
 20
312.0
 10
51.0
 20
312.0
 10
53.0
 20
310.0
 10
53.0
 20
308.0
 10
51.0
 20
306.0
 10
45.0
 20
306.0
  0
LWPOLYLINE
  5
72
330
17
100
AcDbEntity
  8
PEN
100
AcDbPolyline
 90
2
 70
0
 10
49.0
 20
306.0
 10
53.0
 20
300.0
  0
LWPOLYLINE
  5
73
330
17
100
AcDbEntity
  8
PEN
100
AcDbPolyline
 90
7
 70
0
 10
57.0
 20
310.0
 10
59.0
 20
312.0
 10
63.0
 20
312.0
 10
65.0
 20
310.0
 10
65.0
 20
308.0
 10
57.0
 20
300.0
 10
65.0
 20
300.0
  0
LWPOLYLINE
  5
74
330
17
100
AcDbEntity
  8
PEN
100
AcDbPolyline
 90
7
 70
0
 10
81.0
 20
310.0
 10
83.0
 20
312.0
 10
87.0
 20
312.0
 10
89.0
 20
310.0
 10
89.0
 20
308.0
 10
81.0
 20
300.0
 10
89.0
 20
300.0
  0
LWPOLYLINE
  5
75
330
17
100
AcDbEntity
  8
PEN
100
AcDbPolyline
 90
9
 70
0
 10
95.0
 20
300.0
 10
93.0
 20
302.0
 10
93.0
 20
310.0
 10
95.0
 20
312.0
 10
99.0
 20
312.0
 10
101.0
 20
310.0
 10
101.0
 20
302.0
 10
99.0
 20
300.0
 10
95.0
 20
300.0
  0
LWPOLYLINE
  5
76
330
17
100
AcDbEntity
  8
PEN
100
AcDbPolyline
 90
2
 70
0
 10
93.0
 20
302.0
 10
101.0
 20
310.0
  0
LWPOLYLINE
  5
77
330
17
100
AcDbEntity
  8
PEN
100
AcDbPolyline
 90
9
 70
0
 10
107.0
 20
300.0
 10
105.0
 20
302.0
 10
105.0
 20
310.0
 10
107.0
 20
312.0
 10
111.0
 20
312.0
 10
113.0
 20
310.0
 10
113.0
 20
302.0
 10
111.0
 20
300.0
 10
107.0
 20
300.0
  0
LWPOLYLINE
  5
78
330
17
100
AcDbEntity
  8
PEN
100
AcDbPolyline
 90
2
 70
0
 10
105.0
 20
302.0
 10
113.0
 20
310.0
  0
LWPOLYLINE
  5
79
330
17
100
AcDbEntity
  8
PEN
100
AcDbPolyline
 90
2
 70
0
 10
129.0
 20
300.0
 10
137.0
 20
312.0
  0
LWPOLYLINE
  5
7A
330
17
100
AcDbEntity
  8
PEN
100
AcDbPolyline
 90
2
 70
0
 10
129.0
 20
312.0
 10
137.0
 20
300.0
  0
LWPOLYLINE
  5
7B
330
17
100
AcDbEntity
  8
PEN
100
AcDbPolyline
 90
7
 70
0
 10
153.0
 20
310.0
 10
155.0
 20
312.0
 10
159.0
 20
312.0
 10
161.0
 20
310.0
 10
161.0
 20
308.0
 10
153.0
 20
300.0
 10
161.0
 20
300.0
  0
LWPOLYLINE
  5
7C
330
17
100
AcDbEntity
  8
PEN
100
AcDbPolyline
 90
9
 70
0
 10
167.0
 20
300.0
 10
165.0
 20
302.0
 10
165.0
 20
310.0
 10
167.0
 20
312.0
 10
171.0
 20
312.0
 10
173.0
 20
310.0
 10
173.0
 20
302.0
 10
171.0
 20
300.0
 10
167.0
 20
300.0
  0
LWPOLYLINE
  5
7D
330
17
100
AcDbEntity
  8
PEN
100
AcDbPolyline
 90
2
 70
0
 10
165.0
 20
302.0
 10
173.0
 20
310.0
  0
LWPOLYLINE
  5
7E
330
17
100
AcDbEntity
  8
PEN
100
AcDbPolyline
 90
9
 70
0
 10
179.0
 20
300.0
 10
177.0
 20
302.0
 10
177.0
 20
310.0
 10
179.0
 20
312.0
 10
183.0
 20
312.0
 10
185.0
 20
310.0
 10
185.0
 20
302.0
 10
183.0
 20
300.0
 10
179.0
 20
300.0
  0
LWPOLYLINE
  5
7F
330
17
100
AcDbEntity
  8
PEN
100
AcDbPolyline
 90
2
 70
0
 10
177.0
 20
302.0
 10
185.0
 20
310.0
  0
LWPOLYLINE
  5
80
330
17
100
AcDbEntity
  8
PEN
100
AcDbPolyline
 90
7
 70
0
 10
45.0
 20
280.0
 10
45.0
 20
288.0
 10
49.0
 20
288.0
 10
50.333333333333336
 20
286.6666666666667
 10
50.333333333333336
 20
285.3333333333333
 10
49.0
 20
284.0
 10
45.0
 20
284.0
  0
LWPOLYLINE
  5
81
330
17
100
AcDbEntity
  8
PEN
100
AcDbPolyline
 90
4
 70
0
 10
58.333333333333336
 20
288.0
 10
53.0
 20
288.0
 10
53.0
 20
280.0
 10
58.333333333333336
 20
280.0
  0
LWPOLYLINE
  5
82
330
17
100
AcDbEntity
  8
PEN
100
AcDbPolyline
 90
2
 70
0
 10
53.0
 20
284.0
 10
57.0
 20
284.0
  0
LWPOLYLINE
  5
83
330
17
100
AcDbEntity
  8
PEN
100
AcDbPolyline
 90
4
 70
0
 10
61.0
 20
280.0
 10
61.0
 20
288.0
 10
66.33333333333333
 20
280.0
 10
66.33333333333333
 20
288.0
  0
LWPOLYLINE
  5
84
330
17
100
AcDbEntity
  8
PEN
100
AcDbPolyline
 90
3
 70
0
 10
77.0
 20
288.0
 10
77.0
 20
280.0
 10
82.33333333333333
 20
280.0
  0
LWPOLYLINE
  5
85
330
17
100
AcDbEntity
  8
PEN
100
AcDbPolyline
 90
2
 70
0
 10
86.33333333333333
 20
288.0
 10
89.0
 20
288.0
  0
LWPOLYLINE
  5
86
330
17
100
AcDbEntity
  8
PEN
100
AcDbPolyline
 90
2
 70
0
 10
87.66666666666667
 20
288.0
 10
87.66666666666667
 20
280.0
  0
LWPOLYLINE
  5
87
330
17
100
AcDbEntity
  8
PEN
100
AcDbPolyline
 90
2
 70
0
 10
86.33333333333333
 20
280.0
 10
89.0
 20
280.0
  0
LWPOLYLINE
  5
88
330
17
100
AcDbEntity
  8
PEN
100
AcDbPolyline
 90
4
 70
0
 10
93.0
 20
280.0
 10
93.0
 20
288.0
 10
98.33333333333333
 20
280.0
 10
98.33333333333333
 20
288.0
  0
LWPOLYLINE
  5
89
330
17
100
AcDbEntity
  8
PEN
100
AcDbPolyline
 90
4
 70
0
 10
106.33333333333333
 20
288.0
 10
101.0
 20
288.0
 10
101.0
 20
280.0
 10
106.33333333333333
 20
280.0
  0
LWPOLYLINE
  5
8A
330
17
100
AcDbEntity
  8
PEN
100
AcDbPolyline
 90
2
 70
0
 10
101.0
 20
284.0
 10
105.0
 20
284.0
  0
LWPOLYLINE
  5
8B
330
17
100
AcDbEntity
  8
PEN
100
AcDbPolyline
 90
7
 70
0
 10
117.0
 20
286.6666666666667
 10
118.33333333333333
 20
288.0
 10
121.0
 20
288.0
 10
122.33333333333333
 20
286.6666666666667
 10
122.33333333333333
 20
285.3333333333333
 10
117.0
 20
280.0
 10
122.33333333333333
 20
280.0
  0
LWPOLYLINE
  5
8C
330
17
100
AcDbEntity
  8
PEN
100
AcDbPolyline
 90
9
 70
0
 10
126.33333333333333
 20
280.0
 10
125.0
 20
281.3333333333333
 10
125.0
 20
286.6666666666667
 10
126.33333333333333
 20
288.0
 10
129.0
 20
288.0
 10
130.33333333333334
 20
286.6666666666667
 10
130.33333333333334
 20
281.3333333333333
 10
129.0
 20
280.0
 10
126.33333333333333
 20
280.0
  0
LWPOLYLINE
  5
8D
330
17
100
AcDbEntity
  8
PEN
100
AcDbPolyline
 90
2
 70
0
 10
125.0
 20
281.3333333333333
 10
130.33333333333334
 20
286.6666666666667
  0
LWPOLYLINE
  5
8E
330
17
100
AcDbEntity
  8
PEN
100
AcDbPolyline
 90
2
 70
0
 10
142.33333333333334
 20
288.0
 10
145.0
 20
288.0
  0
LWPOLYLINE
  5
8F
330
17
100
AcDbEntity
  8
PEN
100
AcDbPolyline
 90
2
 70
0
 10
143.66666666666666
 20
288.0
 10
143.66666666666666
 20
280.0
  0
LWPOLYLINE
  5
90
330
17
100
AcDbEntity
  8
PEN
100
AcDbPolyline
 90
2
 70
0
 10
142.33333333333334
 20
280.0
 10
145.0
 20
280.0
  0
LWPOLYLINE
  5
91
330
17
100
AcDbEntity
  8
PEN
100
AcDbPolyline
 90
4
 70
0
 10
149.0
 20
280.0
 10
149.0
 20
288.0
 10
154.33333333333334
 20
280.0
 10
154.33333333333334
 20
288.0
  0
LWPOLYLINE
  5
92
330
17
100
AcDbEntity
  8
PEN
100
AcDbPolyline
 90
12
 70
0
 10
162.33333333333334
 20
286.6666666666667
 10
161.0
 20
288.0
 10
158.33333333333334
 20
288.0
 10
157.0
 20
286.6666666666667
 10
157.0
 20
285.3333333333333
 10
158.33333333333334
 20
284.0
 10
161.0
 20
284.0
 10
162.33333333333334
 20
282.6666666666667
 10
162.33333333333334
 20
281.3333333333333
 10
161.0
 20
280.0
 10
158.33333333333334
 20
280.0
 10
157.0
 20
281.3333333333333
  0
LWPOLYLINE
  5
93
330
17
100
AcDbEntity
  8
PEN
100
AcDbPolyline
 90
2
 70
0
 10
166.33333333333334
 20
288.0
 10
169.0
 20
288.0
  0
LWPOLYLINE
  5
94
330
17
100
AcDbEntity
  8
PEN
100
AcDbPolyline
 90
2
 70
0
 10
167.66666666666666
 20
288.0
 10
167.66666666666666
 20
280.0
  0
LWPOLYLINE
  5
95
330
17
100
AcDbEntity
  8
PEN
100
AcDbPolyline
 90
2
 70
0
 10
166.33333333333334
 20
280.0
 10
169.0
 20
280.0
  0
LWPOLYLINE
  5
96
330
17
100
AcDbEntity
  8
PEN
100
AcDbPolyline
 90
7
 70
0
 10
173.0
 20
280.0
 10
173.0
 20
288.0
 10
175.66666666666666
 20
288.0
 10
178.33333333333334
 20
285.3333333333333
 10
178.33333333333334
 20
282.6666666666667
 10
175.66666666666666
 20
280.0
 10
173.0
 20
280.0
  0
LWPOLYLINE
  5
97
330
17
100
AcDbEntity
  8
PEN
100
AcDbPolyline
 90
4
 70
0
 10
186.33333333333334
 20
288.0
 10
181.0
 20
288.0
 10
181.0
 20
280.0
 10
186.33333333333334
 20
280.0
  0
LWPOLYLINE
  5
98
330
17
100
AcDbEntity
  8
PEN
100
AcDbPolyline
 90
2
 70
0
 10
181.0
 20
284.0
 10
185.0
 20
284.0
  0
LWPOLYLINE
  5
99
330
17
100
AcDbEntity
  8
PEN
100
AcDbPolyline
 90
7
 70
0
 10
270.0
 20
185.0
 10
270.0
 20
193.0
 10
274.0
 20
193.0
 10
275.3333333333333
 20
191.66666666666666
 10
275.3333333333333
 20
190.33333333333334
 10
274.0
 20
189.0
 10
270.0
 20
189.0
  0
LWPOLYLINE
  5
9A
330
17
100
AcDbEntity
  8
PEN
100
AcDbPolyline
 90
2
 70
0
 10
272.6666666666667
 20
189.0
 10
275.3333333333333
 20
185.0
  0
LWPOLYLINE
  5
9B
330
17
100
AcDbEntity
  8
PEN
100
AcDbPolyline
 90
11
 70
0
 10
278.0
 20
191.66666666666666
 10
279.3333333333333
 20
193.0
 10
282.0
 20
193.0
 10
283.3333333333333
 20
191.66666666666666
 10
283.3333333333333
 20
190.33333333333334
 10
282.0
 20
189.0
 10
283.3333333333333
 20
187.66666666666666
 10
283.3333333333333
 20
186.33333333333334
 10
282.0
 20
185.0
 10
279.3333333333333
 20
185.0
 10
278.0
 20
186.33333333333334
  0
LWPOLYLINE
  5
9C
330
17
100
AcDbEntity
  8
PEN
100
AcDbPolyline
 90
2
 70
0
 10
279.3333333333333
 20
189.0
 10
282.0
 20
189.0
  0
LWPOLYLINE
  5
9D
330
17
100
AcDbEntity
  8
PEN
100
AcDbPolyline
 90
3
 70
0
 10
295.3333333333333
 20
191.66666666666666
 10
296.6666666666667
 20
193.0
 10
296.6666666666667
 20
185.0
  0
LWPOLYLINE
  5
9E
330
17
100
AcDbEntity
  8
PEN
100
AcDbPolyline
 90
2
 70
0
 10
295.3333333333333
 20
185.0
 10
298.0
 20
185.0
  0
LWPOLYLINE
  5
9F
330
17
100
AcDbEntity
  8
PEN
100
AcDbPolyline
 90
7
 70
0
 10
302.0
 20
191.66666666666666
 10
303.3333333333333
 20
193.0
 10
306.0
 20
193.0
 10
307.3333333333333
 20
191.66666666666666
 10
307.3333333333333
 20
190.33333333333334
 10
302.0
 20
185.0
 10
307.3333333333333
 20
185.0
  0
LWPOLYLINE
  5
A0
330
17
100
AcDbEntity
  8
PEN
100
AcDbPolyline
 90
9
 70
0
 10
311.3333333333333
 20
185.0
 10
310.0
 20
186.33333333333334
 10
310.0
 20
191.66666666666666
 10
311.3333333333333
 20
193.0
 10
314.0
 20
193.0
 10
315.3333333333333
 20
191.66666666666666
 10
315.3333333333333
 20
186.33333333333334
 10
314.0
 20
185.0
 10
311.3333333333333
 20
185.0
  0
LWPOLYLINE
  5
A1
330
17
100
AcDbEntity
  8
PEN
100
AcDbPolyline
 90
2
 70
0
 10
310.0
 20
186.33333333333334
 10
315.3333333333333
 20
191.66666666666666
  0
LWPOLYLINE
  5
A2
330
17
100
AcDbEntity
  8
PEN
100
AcDbPolyline
 90
2
 70
0
 10
318.0
 20
185.0
 10
323.3333333333333
 20
193.0
  0
LWPOLYLINE
  5
A3
330
17
100
AcDbEntity
  8
PEN
100
AcDbPolyline
 90
2
 70
0
 10
318.0
 20
193.0
 10
323.3333333333333
 20
185.0
  0
LWPOLYLINE
  5
A4
330
17
100
AcDbEntity
  8
PEN
100
AcDbPolyline
 90
11
 70
0
 10
331.3333333333333
 20
191.66666666666666
 10
330.0
 20
193.0
 10
327.3333333333333
 20
193.0
 10
326.0
 20
191.66666666666666
 10
326.0
 20
186.33333333333334
 10
327.3333333333333
 20
185.0
 10
330.0
 20
185.0
 10
331.3333333333333
 20
186.33333333333334
 10
331.3333333333333
 20
187.66666666666666
 10
330.0
 20
189.0
 10
326.0
 20
189.0
  0
LWPOLYLINE
  5
A5
330
17
100
AcDbEntity
  8
PEN
100
AcDbPolyline
 90
9
 70
0
 10
335.3333333333333
 20
185.0
 10
334.0
 20
186.33333333333334
 10
334.0
 20
191.66666666666666
 10
335.3333333333333
 20
193.0
 10
338.0
 20
193.0
 10
339.3333333333333
 20
191.66666666666666
 10
339.3333333333333
 20
186.33333333333334
 10
338.0
 20
185.0
 10
335.3333333333333
 20
185.0
  0
LWPOLYLINE
  5
A6
330
17
100
AcDbEntity
  8
PEN
100
AcDbPolyline
 90
2
 70
0
 10
334.0
 20
186.33333333333334
 10
339.3333333333333
 20
191.66666666666666
  0
LWPOLYLINE
  5
A7
330
17
100
AcDbEntity
  8
PEN
100
AcDbPolyline
 90
7
 70
0
 10
350.0
 20
185.0
 10
350.0
 20
193.0
 10
354.0
 20
193.0
 10
355.3333333333333
 20
191.66666666666666
 10
355.3333333333333
 20
190.33333333333334
 10
354.0
 20
189.0
 10
350.0
 20
189.0
  0
LWPOLYLINE
  5
A8
330
17
100
AcDbEntity
  8
PEN
100
AcDbPolyline
 90
2
 70
0
 10
352.6666666666667
 20
189.0
 10
355.3333333333333
 20
185.0
  0
LWPOLYLINE
  5
A9
330
17
100
AcDbEntity
  8
PEN
100
AcDbPolyline
 90
3
 70
0
 10
359.3333333333333
 20
191.66666666666666
 10
360.6666666666667
 20
193.0
 10
360.6666666666667
 20
185.0
  0
LWPOLYLINE
  5
AA
330
17
100
AcDbEntity
  8
PEN
100
AcDbPolyline
 90
2
 70
0
 10
359.3333333333333
 20
185.0
 10
362.0
 20
185.0
  0
LWPOLYLINE
  5
AB
330
17
100
AcDbEntity
  8
PEN
100
AcDbPolyline
 90
9
 70
0
 10
367.3333333333333
 20
185.0
 10
366.0
 20
186.33333333333334
 10
366.0
 20
191.66666666666666
 10
367.3333333333333
 20
193.0
 10
370.0
 20
193.0
 10
371.3333333333333
 20
191.66666666666666
 10
371.3333333333333
 20
186.33333333333334
 10
370.0
 20
185.0
 10
367.3333333333333
 20
185.0
  0
LWPOLYLINE
  5
AC
330
17
100
AcDbEntity
  8
PEN
100
AcDbPolyline
 90
2
 70
0
 10
366.0
 20
186.33333333333334
 10
371.3333333333333
 20
191.66666666666666
  0
LWPOLYLINE
  5
AD
330
17
100
AcDbEntity
  8
PEN
100
AcDbPolyline
 90
9
 70
0
 10
452.5
 20
255.0
 10
450.0
 20
257.5
 10
450.0
 20
267.5
 10
452.5
 20
270.0
 10
457.5
 20
270.0
 10
460.0
 20
267.5
 10
460.0
 20
257.5
 10
457.5
 20
255.0
 10
452.5
 20
255.0
  0
LWPOLYLINE
  5
AE
330
17
100
AcDbEntity
  8
PEN
100
AcDbPolyline
 90
3
 70
0
 10
467.5
 20
267.5
 10
470.0
 20
270.0
 10
470.0
 20
255.0
  0
LWPOLYLINE
  5
AF
330
17
100
AcDbEntity
  8
PEN
100
AcDbPolyline
 90
2
 70
0
 10
467.5
 20
255.0
 10
472.5
 20
255.0
  0
LWPOLYLINE
  5
B0
330
17
100
AcDbEntity
  8
PEN
100
AcDbPolyline
 90
8
 70
0
 10
505.0
 20
267.5
 10
502.5
 20
270.0
 10
497.5
 20
270.0
 10
495.0
 20
267.5
 10
495.0
 20
257.5
 10
497.5
 20
255.0
 10
502.5
 20
255.0
 10
505.0
 20
257.5
  0
LWPOLYLINE
  5
B1
330
17
100
AcDbEntity
  8
PEN
100
AcDbPolyline
 90
2
 70
0
 10
512.5
 20
270.0
 10
517.5
 20
270.0
  0
LWPOLYLINE
  5
B2
330
17
100
AcDbEntity
  8
PEN
100
AcDbPolyline
 90
2
 70
0
 10
515.0
 20
270.0
 10
515.0
 20
255.0
  0
LWPOLYLINE
  5
B3
330
17
100
AcDbEntity
  8
PEN
100
AcDbPolyline
 90
2
 70
0
 10
512.5
 20
255.0
 10
517.5
 20
255.0
  0
LWPOLYLINE
  5
B4
330
17
100
AcDbEntity
  8
PEN
100
AcDbPolyline
 90
7
 70
0
 10
525.0
 20
255.0
 10
525.0
 20
270.0
 10
532.5
 20
270.0
 10
535.0
 20
267.5
 10
535.0
 20
265.0
 10
532.5
 20
262.5
 10
525.0
 20
262.5
  0
LWPOLYLINE
  5
B5
330
17
100
AcDbEntity
  8
PEN
100
AcDbPolyline
 90
2
 70
0
 10
530.0
 20
262.5
 10
535.0
 20
255.0
  0
LWPOLYLINE
  5
B6
330
17
100
AcDbEntity
  8
PEN
100
AcDbPolyline
 90
8
 70
0
 10
550.0
 20
267.5
 10
547.5
 20
270.0
 10
542.5
 20
270.0
 10
540.0
 20
267.5
 10
540.0
 20
257.5
 10
542.5
 20
255.0
 10
547.5
 20
255.0
 10
550.0
 20
257.5
  0
LWPOLYLINE
  5
B7
330
17
100
AcDbEntity
  8
PEN
100
AcDbPolyline
 90
3
 70
0
 10
555.0
 20
270.0
 10
555.0
 20
255.0
 10
565.0
 20
255.0
  0
LWPOLYLINE
  5
B8
330
17
100
AcDbEntity
  8
PEN
100
AcDbPolyline
 90
4
 70
0
 10
580.0
 20
270.0
 10
570.0
 20
270.0
 10
570.0
 20
255.0
 10
580.0
 20
255.0
  0
LWPOLYLINE
  5
B9
330
17
100
AcDbEntity
  8
PEN
100
AcDbPolyline
 90
2
 70
0
 10
570.0
 20
262.5
 10
577.5
 20
262.5
  0
LWPOLYLINE
  5
BA
330
17
100
AcDbEntity
  8
PEN
100
AcDbPolyline
 90
9
 70
0
 10
692.5
 20
255.0
 10
690.0
 20
257.5
 10
690.0
 20
267.5
 10
692.5
 20
270.0
 10
697.5
 20
270.0
 10
700.0
 20
267.5
 10
700.0
 20
257.5
 10
697.5
 20
255.0
 10
692.5
 20
255.0
  0
LWPOLYLINE
  5
BB
330
17
100
AcDbEntity
  8
PEN
100
AcDbPolyline
 90
7
 70
0
 10
705.0
 20
267.5
 10
707.5
 20
270.0
 10
712.5
 20
270.0
 10
715.0
 20
267.5
 10
715.0
 20
265.0
 10
705.0
 20
255.0
 10
715.0
 20
255.0
  0
LWPOLYLINE
  5
BC
330
17
100
AcDbEntity
  8
PEN
100
AcDbPolyline
 90
7
 70
0
 10
735.0
 20
255.0
 10
735.0
 20
270.0
 10
742.5
 20
270.0
 10
745.0
 20
267.5
 10
745.0
 20
265.0
 10
742.5
 20
262.5
 10
735.0
 20
262.5
  0
LWPOLYLINE
  5
BD
330
17
100
AcDbEntity
  8
PEN
100
AcDbPolyline
 90
5
 70
0
 10
742.5
 20
262.5
 10
745.0
 20
260.0
 10
745.0
 20
257.5
 10
742.5
 20
255.0
 10
735.0
 20
255.0
  0
LWPOLYLINE
  5
BE
330
17
100
AcDbEntity
  8
PEN
100
AcDbPolyline
 90
6
 70
0
 10
750.0
 20
270.0
 10
750.0
 20
257.5
 10
752.5
 20
255.0
 10
757.5
 20
255.0
 10
760.0
 20
257.5
 10
760.0
 20
270.0
  0
LWPOLYLINE
  5
BF
330
17
100
AcDbEntity
  8
PEN
100
AcDbPolyline
 90
3
 70
0
 10
765.0
 20
270.0
 10
765.0
 20
255.0
 10
775.0
 20
255.0
  0
LWPOLYLINE
  5
C0
330
17
100
AcDbEntity
  8
PEN
100
AcDbPolyline
 90
10
 70
0
 10
790.0
 20
267.5
 10
787.5
 20
270.0
 10
782.5
 20
270.0
 10
780.0
 20
267.5
 10
780.0
 20
257.5
 10
782.5
 20
255.0
 10
787.5
 20
255.0
 10
790.0
 20
257.5
 10
790.0
 20
262.5
 10
785.0
 20
262.5
  0
LWPOLYLINE
  5
C1
330
17
100
AcDbEntity
  8
PEN
100
AcDbPolyline
 90
4
 70
0
 10
805.0
 20
270.0
 10
795.0
 20
270.0
 10
795.0
 20
255.0
 10
805.0
 20
255.0
  0
LWPOLYLINE
  5
C2
330
17
100
AcDbEntity
  8
PEN
100
AcDbPolyline
 90
2
 70
0
 10
795.0
 20
262.5
 10
802.5
 20
262.5
  0
LWPOLYLINE
  5
C3
330
17
100
AcDbEntity
  8
PEN
100
AcDbPolyline
 90
9
 70
0
 10
927.5
 20
255.0
 10
925.0
 20
257.5
 10
925.0
 20
267.5
 10
927.5
 20
270.0
 10
932.5
 20
270.0
 10
935.0
 20
267.5
 10
935.0
 20
257.5
 10
932.5
 20
255.0
 10
927.5
 20
255.0
  0
LWPOLYLINE
  5
C4
330
17
100
AcDbEntity
  8
PEN
100
AcDbPolyline
 90
11
 70
0
 10
940.0
 20
267.5
 10
942.5
 20
270.0
 10
947.5
 20
270.0
 10
950.0
 20
267.5
 10
950.0
 20
265.0
 10
947.5
 20
262.5
 10
950.0
 20
260.0
 10
950.0
 20
257.5
 10
947.5
 20
255.0
 10
942.5
 20
255.0
 10
940.0
 20
257.5
  0
LWPOLYLINE
  5
C5
330
17
100
AcDbEntity
  8
PEN
100
AcDbPolyline
 90
2
 70
0
 10
942.5
 20
262.5
 10
947.5
 20
262.5
  0
LWPOLYLINE
  5
C6
330
17
100
AcDbEntity
  8
PEN
100
AcDbPolyline
 90
3
 70
0
 10
970.0
 20
270.0
 10
980.0
 20
270.0
 10
972.5
 20
255.0
  0
LWPOLYLINE
  5
C7
330
17
100
AcDbEntity
  8
PEN
100
AcDbPolyline
 90
7
 70
0
 10
985.0
 20
267.5
 10
987.5
 20
270.0
 10
992.5
 20
270.0
 10
995.0
 20
267.5
 10
995.0
 20
265.0
 10
985.0
 20
255.0
 10
995.0
 20
255.0
  0
LWPOLYLINE
  5
C8
330
17
100
AcDbEntity
  8
PEN
100
AcDbPolyline
 90
12
 70
0
 10
1025.0
 20
267.5
 10
1022.5
 20
270.0
 10
1017.5
 20
270.0
 10
1015.0
 20
267.5
 10
1015.0
 20
265.0
 10
1017.5
 20
262.5
 10
1022.5
 20
262.5
 10
1025.0
 20
260.0
 10
1025.0
 20
257.5
 10
1022.5
 20
255.0
 10
1017.5
 20
255.0
 10
1015.0
 20
257.5
  0
LWPOLYLINE
  5
C9
330
17
100
AcDbEntity
  8
PEN
100
AcDbPolyline
 90
4
 70
0
 10
1040.0
 20
270.0
 10
1030.0
 20
270.0
 10
1030.0
 20
255.0
 10
1040.0
 20
255.0
  0
LWPOLYLINE
  5
CA
330
17
100
AcDbEntity
  8
PEN
100
AcDbPolyline
 90
2
 70
0
 10
1030.0
 20
262.5
 10
1037.5
 20
262.5
  0
LWPOLYLINE
  5
CB
330
17
100
AcDbEntity
  8
PEN
100
AcDbPolyline
 90
10
 70
0
 10
1055.0
 20
267.5
 10
1052.5
 20
270.0
 10
1047.5
 20
270.0
 10
1045.0
 20
267.5
 10
1045.0
 20
257.5
 10
1047.5
 20
255.0
 10
1052.5
 20
255.0
 10
1055.0
 20
257.5
 10
1055.0
 20
262.5
 10
1050.0
 20
262.5
  0
LWPOLYLINE
  5
CC
330
17
100
AcDbEntity
  8
PEN
100
AcDbPolyline
 90
7
 70
0
 10
470.0
 20
225.0
 10
470.0
 20
233.0
 10
472.6666666666667
 20
233.0
 10
475.3333333333333
 20
230.33333333333334
 10
475.3333333333333
 20
227.66666666666666
 10
472.6666666666667
 20
225.0
 10
470.0
 20
225.0
  0
LWPOLYLINE
  5
CD
330
17
100
AcDbEntity
  8
PEN
100
AcDbPolyline
 90
7
 70
0
 10
478.0
 20
231.66666666666666
 10
479.3333333333333
 20
233.0
 10
482.0
 20
233.0
 10
483.3333333333333
 20
231.66666666666666
 10
483.3333333333333
 20
230.33333333333334
 10
478.0
 20
225.0
 10
483.3333333333333
 20
225.0
  0
LWPOLYLINE
  5
CE
330
17
100
AcDbEntity
  8
PEN
100
AcDbPolyline
 90
9
 70
0
 10
487.3333333333333
 20
225.0
 10
486.0
 20
226.33333333333334
 10
486.0
 20
231.66666666666666
 10
487.3333333333333
 20
233.0
 10
490.0
 20
233.0
 10
491.3333333333333
 20
231.66666666666666
 10
491.3333333333333
 20
226.33333333333334
 10
490.0
 20
225.0
 10
487.3333333333333
 20
225.0
  0
LWPOLYLINE
  5
CF
330
17
100
AcDbEntity
  8
PEN
100
AcDbPolyline
 90
2
 70
0
 10
486.0
 20
226.33333333333334
 10
491.3333333333333
 20
231.66666666666666
  0
LWPOLYLINE
  5
D0
330
17
100
AcDbEntity
  8
PEN
100
AcDbPolyline
 90
9
 70
0
 10
495.3333333333333
 20
225.0
 10
494.0
 20
226.33333333333334
 10
494.0
 20
231.66666666666666
 10
495.3333333333333
 20
233.0
 10
498.0
 20
233.0
 10
499.3333333333333
 20
231.66666666666666
 10
499.3333333333333
 20
226.33333333333334
 10
498.0
 20
225.0
 10
495.3333333333333
 20
225.0
  0
LWPOLYLINE
  5
D1
330
17
100
AcDbEntity
  8
PEN
100
AcDbPolyline
 90
2
 70
0
 10
494.0
 20
226.33333333333334
 10
499.3333333333333
 20
231.66666666666666
  0
LWPOLYLINE
  5
D2
330
17
100
AcDbEntity
  8
PEN
100
AcDbPolyline
 90
4
 70
0
 10
515.3333333333334
 20
233.0
 10
510.0
 20
233.0
 10
510.0
 20
225.0
 10
515.3333333333334
 20
225.0
  0
LWPOLYLINE
  5
D3
330
17
100
AcDbEntity
  8
PEN
100
AcDbPolyline
 90
2
 70
0
 10
510.0
 20
229.0
 10
514.0
 20
229.0
  0
LWPOLYLINE
  5
D4
330
17
100
AcDbEntity
  8
PEN
100
AcDbPolyline
 90
4
 70
0
 10
518.0
 20
225.0
 10
518.0
 20
233.0
 10
523.3333333333334
 20
225.0
 10
523.3333333333334
 20
233.0
  0
LWPOLYLINE
  5
D5
330
17
100
AcDbEntity
  8
PEN
100
AcDbPolyline
 90
2
 70
0
 10
526.0
 20
233.0
 10
531.3333333333334
 20
233.0
  0
LWPOLYLINE
  5
D6
330
17
100
AcDbEntity
  8
PEN
100
AcDbPolyline
 90
2
 70
0
 10
528.6666666666666
 20
233.0
 10
528.6666666666666
 20
225.0
  0
LWPOLYLINE
  5
D7
330
17
100
AcDbEntity
  8
PEN
100
AcDbPolyline
 90
2
 70
0
 10
535.3333333333334
 20
233.0
 10
538.0
 20
233.0
  0
LWPOLYLINE
  5
D8
330
17
100
AcDbEntity
  8
PEN
100
AcDbPolyline
 90
2
 70
0
 10
536.6666666666666
 20
233.0
 10
536.6666666666666
 20
225.0
  0
LWPOLYLINE
  5
D9
330
17
100
AcDbEntity
  8
PEN
100
AcDbPolyline
 90
2
 70
0
 10
535.3333333333334
 20
225.0
 10
538.0
 20
225.0
  0
LWPOLYLINE
  5
DA
330
17
100
AcDbEntity
  8
PEN
100
AcDbPolyline
 90
2
 70
0
 10
542.0
 20
233.0
 10
547.3333333333334
 20
233.0
  0
LWPOLYLINE
  5
DB
330
17
100
AcDbEntity
  8
PEN
100
AcDbPolyline
 90
2
 70
0
 10
544.6666666666666
 20
233.0
 10
544.6666666666666
 20
225.0
  0
LWPOLYLINE
  5
DC
330
17
100
AcDbEntity
  8
PEN
100
AcDbPolyline
 90
3
 70
0
 10
550.0
 20
233.0
 10
552.6666666666666
 20
229.0
 10
555.3333333333334
 20
233.0
  0
LWPOLYLINE
  5
DD
330
17
100
AcDbEntity
  8
PEN
100
AcDbPolyline
 90
2
 70
0
 10
552.6666666666666
 20
229.0
 10
552.6666666666666
 20
225.0
  0
LWPOLYLINE
  5
DE
330
17
100
AcDbEntity
  8
PEN
100
AcDbPolyline
 90
7
 70
0
 10
715.0
 20
225.0
 10
715.0
 20
233.0
 10
717.6666666666666
 20
233.0
 10
720.3333333333334
 20
230.33333333333334
 10
720.3333333333334
 20
227.66666666666666
 10
717.6666666666666
 20
225.0
 10
715.0
 20
225.0
  0
LWPOLYLINE
  5
DF
330
17
100
AcDbEntity
  8
PEN
100
AcDbPolyline
 90
7
 70
0
 10
723.0
 20
231.66666666666666
 10
724.3333333333334
 20
233.0
 10
727.0
 20
233.0
 10
728.3333333333334
 20
231.66666666666666
 10
728.3333333333334
 20
230.33333333333334
 10
723.0
 20
225.0
 10
728.3333333333334
 20
225.0
  0
LWPOLYLINE
  5
E0
330
17
100
AcDbEntity
  8
PEN
100
AcDbPolyline
 90
9
 70
0
 10
732.3333333333334
 20
225.0
 10
731.0
 20
226.33333333333334
 10
731.0
 20
231.66666666666666
 10
732.3333333333334
 20
233.0
 10
735.0
 20
233.0
 10
736.3333333333334
 20
231.66666666666666
 10
736.3333333333334
 20
226.33333333333334
 10
735.0
 20
225.0
 10
732.3333333333334
 20
225.0
  0
LWPOLYLINE
  5
E1
330
17
100
AcDbEntity
  8
PEN
100
AcDbPolyline
 90
2
 70
0
 10
731.0
 20
226.33333333333334
 10
736.3333333333334
 20
231.66666666666666
  0
LWPOLYLINE
  5
E2
330
17
100
AcDbEntity
  8
PEN
100
AcDbPolyline
 90
9
 70
0
 10
740.3333333333334
 20
225.0
 10
739.0
 20
226.33333333333334
 10
739.0
 20
231.66666666666666
 10
740.3333333333334
 20
233.0
 10
743.0
 20
233.0
 10
744.3333333333334
 20
231.66666666666666
 10
744.3333333333334
 20
226.33333333333334
 10
743.0
 20
225.0
 10
740.3333333333334
 20
225.0
  0
LWPOLYLINE
  5
E3
330
17
100
AcDbEntity
  8
PEN
100
AcDbPolyline
 90
2
 70
0
 10
739.0
 20
226.33333333333334
 10
744.3333333333334
 20
231.66666666666666
  0
LWPOLYLINE
  5
E4
330
17
100
AcDbEntity
  8
PEN
100
AcDbPolyline
 90
7
 70
0
 10
755.0
 20
231.66666666666666
 10
756.3333333333334
 20
233.0
 10
759.0
 20
233.0
 10
760.3333333333334
 20
231.66666666666666
 10
760.3333333333334
 20
230.33333333333334
 10
755.0
 20
225.0
 10
760.3333333333334
 20
225.0
  0
LWPOLYLINE
  5
E5
330
17
100
AcDbEntity
  8
PEN
100
AcDbPolyline
 90
5
 70
0
 10
771.0
 20
225.0
 10
771.0
 20
230.33333333333334
 10
773.6666666666666
 20
233.0
 10
776.3333333333334
 20
230.33333333333334
 10
776.3333333333334
 20
225.0
  0
LWPOLYLINE
  5
E6
330
17
100
AcDbEntity
  8
PEN
100
AcDbPolyline
 90
2
 70
0
 10
771.0
 20
229.0
 10
776.3333333333334
 20
229.0
  0
LWPOLYLINE
  5
E7
330
17
100
AcDbEntity
  8
PEN
100
AcDbPolyline
 90
7
 70
0
 10
779.0
 20
225.0
 10
779.0
 20
233.0
 10
783.0
 20
233.0
 10
784.3333333333334
 20
231.66666666666666
 10
784.3333333333334
 20
230.33333333333334
 10
783.0
 20
229.0
 10
779.0
 20
229.0
  0
LWPOLYLINE
  5
E8
330
17
100
AcDbEntity
  8
PEN
100
AcDbPolyline
 90
2
 70
0
 10
781.6666666666666
 20
229.0
 10
784.3333333333334
 20
225.0
  0
LWPOLYLINE
  5
E9
330
17
100
AcDbEntity
  8
PEN
100
AcDbPolyline
 90
8
 70
0
 10
792.3333333333334
 20
231.66666666666666
 10
791.0
 20
233.0
 10
788.3333333333334
 20
233.0
 10
787.0
 20
231.66666666666666
 10
787.0
 20
226.33333333333334
 10
788.3333333333334
 20
225.0
 10
791.0
 20
225.0
 10
792.3333333333334
 20
226.33333333333334
  0
LWPOLYLINE
  5
EA
330
17
100
AcDbEntity
  8
PEN
100
AcDbPolyline
 90
12
 70
0
 10
800.3333333333334
 20
231.66666666666666
 10
799.0
 20
233.0
 10
796.3333333333334
 20
233.0
 10
795.0
 20
231.66666666666666
 10
795.0
 20
230.33333333333334
 10
796.3333333333334
 20
229.0
 10
799.0
 20
229.0
 10
800.3333333333334
 20
227.66666666666666
 10
800.3333333333334
 20
226.33333333333334
 10
799.0
 20
225.0
 10
796.3333333333334
 20
225.0
 10
795.0
 20
226.33333333333334
  0
LWPOLYLINE
  5
EB
330
17
100
AcDbEntity
  8
PEN
100
AcDbPolyline
 90
7
 70
0
 10
945.0
 20
225.0
 10
945.0
 20
233.0
 10
947.6666666666666
 20
233.0
 10
950.3333333333334
 20
230.33333333333334
 10
950.3333333333334
 20
227.66666666666666
 10
947.6666666666666
 20
225.0
 10
945.0
 20
225.0
  0
LWPOLYLINE
  5
EC
330
17
100
AcDbEntity
  8
PEN
100
AcDbPolyline
 90
7
 70
0
 10
953.0
 20
231.66666666666666
 10
954.3333333333334
 20
233.0
 10
957.0
 20
233.0
 10
958.3333333333334
 20
231.66666666666666
 10
958.3333333333334
 20
230.33333333333334
 10
953.0
 20
225.0
 10
958.3333333333334
 20
225.0
  0
LWPOLYLINE
  5
ED
330
17
100
AcDbEntity
  8
PEN
100
AcDbPolyline
 90
9
 70
0
 10
962.3333333333334
 20
225.0
 10
961.0
 20
226.33333333333334
 10
961.0
 20
231.66666666666666
 10
962.3333333333334
 20
233.0
 10
965.0
 20
233.0
 10
966.3333333333334
 20
231.66666666666666
 10
966.3333333333334
 20
226.33333333333334
 10
965.0
 20
225.0
 10
962.3333333333334
 20
225.0
  0
LWPOLYLINE
  5
EE
330
17
100
AcDbEntity
  8
PEN
100
AcDbPolyline
 90
2
 70
0
 10
961.0
 20
226.33333333333334
 10
966.3333333333334
 20
231.66666666666666
  0
LWPOLYLINE
  5
EF
330
17
100
AcDbEntity
  8
PEN
100
AcDbPolyline
 90
9
 70
0
 10
970.3333333333334
 20
225.0
 10
969.0
 20
226.33333333333334
 10
969.0
 20
231.66666666666666
 10
970.3333333333334
 20
233.0
 10
973.0
 20
233.0
 10
974.3333333333334
 20
231.66666666666666
 10
974.3333333333334
 20
226.33333333333334
 10
973.0
 20
225.0
 10
970.3333333333334
 20
225.0
  0
LWPOLYLINE
  5
F0
330
17
100
AcDbEntity
  8
PEN
100
AcDbPolyline
 90
2
 70
0
 10
969.0
 20
226.33333333333334
 10
974.3333333333334
 20
231.66666666666666
  0
LWPOLYLINE
  5
F1
330
17
100
AcDbEntity
  8
PEN
100
AcDbPolyline
 90
3
 70
0
 10
985.0
 20
233.0
 10
985.0
 20
225.0
 10
990.3333333333334
 20
225.0
  0
LWPOLYLINE
  5
F2
330
17
100
AcDbEntity
  8
PEN
100
AcDbPolyline
 90
2
 70
0
 10
994.3333333333334
 20
233.0
 10
997.0
 20
233.0
  0
LWPOLYLINE
  5
F3
330
17
100
AcDbEntity
  8
PEN
100
AcDbPolyline
 90
2
 70
0
 10
995.6666666666666
 20
233.0
 10
995.6666666666666
 20
225.0
  0
LWPOLYLINE
  5
F4
330
17
100
AcDbEntity
  8
PEN
100
AcDbPolyline
 90
2
 70
0
 10
994.3333333333334
 20
225.0
 10
997.0
 20
225.0
  0
LWPOLYLINE
  5
F5
330
17
100
AcDbEntity
  8
PEN
100
AcDbPolyline
 90
4
 70
0
 10
1001.0
 20
225.0
 10
1001.0
 20
233.0
 10
1006.3333333333334
 20
225.0
 10
1006.3333333333334
 20
233.0
  0
LWPOLYLINE
  5
F6
330
17
100
AcDbEntity
  8
PEN
100
AcDbPolyline
 90
4
 70
0
 10
1014.3333333333334
 20
233.0
 10
1009.0
 20
233.0
 10
1009.0
 20
225.0
 10
1014.3333333333334
 20
225.0
  0
LWPOLYLINE
  5
F7
330
17
100
AcDbEntity
  8
PEN
100
AcDbPolyline
 90
2
 70
0
 10
1009.0
 20
229.0
 10
1013.0
 20
229.0
  0
LWPOLYLINE
  5
F8
330
17
100
AcDbEntity
  8
PEN
100
AcDbPolyline
 90
12
 70
0
 10
1022.3333333333334
 20
231.66666666666666
 10
1021.0
 20
233.0
 10
1018.3333333333334
 20
233.0
 10
1017.0
 20
231.66666666666666
 10
1017.0
 20
230.33333333333334
 10
1018.3333333333334
 20
229.0
 10
1021.0
 20
229.0
 10
1022.3333333333334
 20
227.66666666666666
 10
1022.3333333333334
 20
226.33333333333334
 10
1021.0
 20
225.0
 10
1018.3333333333334
 20
225.0
 10
1017.0
 20
226.33333333333334
  0
LINE
  5
F9
330
17
100
AcDbEntity
  8
PEN
100
AcDbLine
 10
70.0
 20
160.0
 30
0.0
 11
70.0
 21
170.0
 31
0.0
  0
LINE
  5
FA
330
17
100
AcDbEntity
  8
PEN
100
AcDbLine
 10
70.0
 20
360.0
 30
0.0
 11
70.0
 21
350.0
 31
0.0
  0
LINE
  5
FB
330
17
100
AcDbEntity
  8
PEN
100
AcDbLine
 10
120.0
 20
160.0
 30
0.0
 11
120.0
 21
170.0
 31
0.0
  0
LINE
  5
FC
330
17
100
AcDbEntity
  8
PEN
100
AcDbLine
 10
120.0
 20
360.0
 30
0.0
 11
120.0
 21
350.0
 31
0.0
  0
LINE
  5
FD
330
17
100
AcDbEntity
  8
PEN
100
AcDbLine
 10
170.0
 20
160.0
 30
0.0
 11
170.0
 21
170.0
 31
0.0
  0
LINE
  5
FE
330
17
100
AcDbEntity
  8
PEN
100
AcDbLine
 10
170.0
 20
360.0
 30
0.0
 11
170.0
 21
350.0
 31
0.0
  0
LINE
  5
FF
330
17
100
AcDbEntity
  8
PEN
100
AcDbLine
 10
20.0
 20
210.0
 30
0.0
 11
30.0
 21
210.0
 31
0.0
  0
LINE
  5
100
330
17
100
AcDbEntity
  8
PEN
100
AcDbLine
 10
220.0
 20
210.0
 30
0.0
 11
210.0
 21
210.0
 31
0.0
  0
LINE
  5
101
330
17
100
AcDbEntity
  8
PEN
100
AcDbLine
 10
20.0
 20
260.0
 30
0.0
 11
30.0
 21
260.0
 31
0.0
  0
LINE
  5
102
330
17
100
AcDbEntity
  8
PEN
100
AcDbLine
 10
220.0
 20
260.0
 30
0.0
 11
210.0
 21
260.0
 31
0.0
  0
LINE
  5
103
330
17
100
AcDbEntity
  8
PEN
100
AcDbLine
 10
20.0
 20
310.0
 30
0.0
 11
30.0
 21
310.0
 31
0.0
  0
LINE
  5
104
330
17
100
AcDbEntity
  8
PEN
100
AcDbLine
 10
220.0
 20
310.0
 30
0.0
 11
210.0
 21
310.0
 31
0.0
  0
LWPOLYLINE
  5
105
330
17
100
AcDbEntity
  8
PEN
100
AcDbPolyline
 90
4
 70
1
 10
40.0
 20
180.0
 10
200.0
 20
180.0
 10
200.0
 20
340.0
 10
40.0
 20
340.0
  0
ARC
  5
106
330
17
100
AcDbEntity
  8
PEN
100
AcDbCircle
 10
480.0
 20
400.0
 30
0.0
 40
100.0
100
AcDbArc
 50
30.0
 51
150.0
  0
LWPOLYLINE
  5
107
330
17
100
AcDbEntity
  8
PEN
100
AcDbPolyline
 90
33
 70
0
 10
866.6025403784439
 20
450.0
 10
863.1469612302545
 20
455.5570233019602
 10
859.3353340291235
 20
460.8761429008721
 10
855.1839807478977
 20
465.93458151000686
 10
850.7106781186548
 20
470.71067811865476
 10
845.9345815100069
 20
475.18398074789775
 10
840.8761429008721
 20
479.3353340291235
 10
835.5570233019603
 20
483.14696123025453
 10
830.0
 20
486.60254037844385
 10
824.2288690219001
 20
489.68727415326885
 10
818.2683432365089
 20
492.3879532511287
 10
812.1439465303162
 20
494.69301294951055
 10
805.8819045102521
 20
496.5925826289068
 10
799.5090322016129
 20
498.078528040323
 10
793.0526192220052
 20
499.144486137381
 10
786.5403129230143
 20
499.78589232386037
 10
780.0
 20
500.0
 10
773.4596870769857
 20
499.78589232386037
 10
766.9473807779948
 20
499.144486137381
 10
760.4909677983871
 20
498.078528040323
 10
754.1180954897479
 20
496.5925826289068
 10
747.8560534696838
 20
494.6930129495106
 10
741.7316567634911
 20
492.3879532511287
 10
735.7711309780999
 20
489.68727415326885
 10
730.0
 20
486.6025403784439
 10
724.4429766980397
 20
483.14696123025453
 10
719.1238570991279
 20
479.3353340291235
 10
714.0654184899931
 20
475.18398074789775
 10
709.2893218813452
 20
470.71067811865476
 10
704.8160192521023
 20
465.93458151000686
 10
700.6646659708765
 20
460.8761429008721
 10
696.8530387697455
 20
455.5570233019602
 10
693.3974596215561
 20
450.0
  0
LWPOLYLINE
  5
108
330
17
100
AcDbEntity
  8
PEN
100
AcDbPolyline
 90
10
 70
0
 10
435.3333333333333
 20
421.6666666666667
 10
434.0
 20
423.0
 10
431.3333333333333
 20
423.0
 10
430.0
 20
421.6666666666667
 10
430.0
 20
416.3333333333333
 10
431.3333333333333
 20
415.0
 10
434.0
 20
415.0
 10
435.3333333333333
 20
416.3333333333333
 10
435.3333333333333
 20
419.0
 10
432.6666666666667
 20
419.0
  0
LWPOLYLINE
  5
109
330
17
100
AcDbEntity
  8
PEN
100
AcDbPolyline
 90
3
 70
0
 10
439.3333333333333
 20
421.6666666666667
 10
440.6666666666667
 20
423.0
 10
440.6666666666667
 20
415.0
  0
LWPOLYLINE
  5
10A
330
17
100
AcDbEntity
  8
PEN
100
AcDbPolyline
 90
2
 70
0
 10
439.3333333333333
 20
415.0
 10
442.0
 20
415.0
  0
LWPOLYLINE
  5
10B
330
17
100
AcDbEntity
  8
PEN
100
AcDbPolyline
 90
5
 70
0
 10
454.0
 20
415.0
 10
454.0
 20
420.3333333333333
 10
456.6666666666667
 20
423.0
 10
459.3333333333333
 20
420.3333333333333
 10
459.3333333333333
 20
415.0
  0
LWPOLYLINE
  5
10C
330
17
100
AcDbEntity
  8
PEN
100
AcDbPolyline
 90
2
 70
0
 10
454.0
 20
419.0
 10
459.3333333333333
 20
419.0
  0
LWPOLYLINE
  5
10D
330
17
100
AcDbEntity
  8
PEN
100
AcDbPolyline
 90
7
 70
0
 10
462.0
 20
415.0
 10
462.0
 20
423.0
 10
466.0
 20
423.0
 10
467.3333333333333
 20
421.6666666666667
 10
467.3333333333333
 20
420.3333333333333
 10
466.0
 20
419.0
 10
462.0
 20
419.0
  0
LWPOLYLINE
  5
10E
330
17
100
AcDbEntity
  8
PEN
100
AcDbPolyline
 90
2
 70
0
 10
464.6666666666667
 20
419.0
 10
467.3333333333333
 20
415.0
  0
LWPOLYLINE
  5
10F
330
17
100
AcDbEntity
  8
PEN
100
AcDbPolyline
 90
8
 70
0
 10
475.3333333333333
 20
421.6666666666667
 10
474.0
 20
423.0
 10
471.3333333333333
 20
423.0
 10
470.0
 20
421.6666666666667
 10
470.0
 20
416.3333333333333
 10
471.3333333333333
 20
415.0
 10
474.0
 20
415.0
 10
475.3333333333333
 20
416.3333333333333
  0
LWPOLYLINE
  5
110
330
17
100
AcDbEntity
  8
PEN
100
AcDbPolyline
 90
10
 70
0
 10
725.3333333333334
 20
421.6666666666667
 10
724.0
 20
423.0
 10
721.3333333333334
 20
423.0
 10
720.0
 20
421.6666666666667
 10
720.0
 20
416.3333333333333
 10
721.3333333333334
 20
415.0
 10
724.0
 20
415.0
 10
725.3333333333334
 20
416.3333333333333
 10
725.3333333333334
 20
419.0
 10
722.6666666666666
 20
419.0
  0
LWPOLYLINE
  5
111
330
17
100
AcDbEntity
  8
PEN
100
AcDbPolyline
 90
7
 70
0
 10
728.0
 20
421.6666666666667
 10
729.3333333333334
 20
423.0
 10
732.0
 20
423.0
 10
733.3333333333334
 20
421.6666666666667
 10
733.3333333333334
 20
420.3333333333333
 10
728.0
 20
415.0
 10
733.3333333333334
 20
415.0
  0
LWPOLYLINE
  5
112
330
17
100
AcDbEntity
  8
PEN
100
AcDbPolyline
 90
3
 70
0
 10
744.0
 20
423.0
 10
744.0
 20
415.0
 10
749.3333333333334
 20
415.0
  0
LWPOLYLINE
  5
113
330
17
100
AcDbEntity
  8
PEN
100
AcDbPolyline
 90
2
 70
0
 10
753.3333333333334
 20
423.0
 10
756.0
 20
423.0
  0
LWPOLYLINE
  5
114
330
17
100
AcDbEntity
  8
PEN
100
AcDbPolyline
 90
2
 70
0
 10
754.6666666666666
 20
423.0
 10
754.6666666666666
 20
415.0
  0
LWPOLYLINE
  5
115
330
17
100
AcDbEntity
  8
PEN
100
AcDbPolyline
 90
2
 70
0
 10
753.3333333333334
 20
415.0
 10
756.0
 20
415.0
  0
LWPOLYLINE
  5
116
330
17
100
AcDbEntity
  8
PEN
100
AcDbPolyline
 90
4
 70
0
 10
760.0
 20
415.0
 10
760.0
 20
423.0
 10
765.3333333333334
 20
415.0
 10
765.3333333333334
 20
423.0
  0
LWPOLYLINE
  5
117
330
17
100
AcDbEntity
  8
PEN
100
AcDbPolyline
 90
4
 70
0
 10
773.3333333333334
 20
423.0
 10
768.0
 20
423.0
 10
768.0
 20
415.0
 10
773.3333333333334
 20
415.0
  0
LWPOLYLINE
  5
118
330
17
100
AcDbEntity
  8
PEN
100
AcDbPolyline
 90
2
 70
0
 10
768.0
 20
419.0
 10
772.0
 20
419.0
  0
LWPOLYLINE
  5
119
330
17
100
AcDbEntity
  8
PEN
100
AcDbPolyline
 90
12
 70
0
 10
781.3333333333334
 20
421.6666666666667
 10
780.0
 20
423.0
 10
777.3333333333334
 20
423.0
 10
776.0
 20
421.6666666666667
 10
776.0
 20
420.3333333333333
 10
777.3333333333334
 20
419.0
 10
780.0
 20
419.0
 10
781.3333333333334
 20
417.6666666666667
 10
781.3333333333334
 20
416.3333333333333
 10
780.0
 20
415.0
 10
777.3333333333334
 20
415.0
 10
776.0
 20
416.3333333333333
  0
LINE
  5
11A
330
17
100
AcDbEntity
  8
PEN
100
AcDbLine
 10
20.0
 20
420.0
 30
0.0
 11
120.0
 21
420.0
 31
0.0
  0
LINE
  5
11B
330
17
100
AcDbEntity
  8
PEN
100
AcDbLine
 10
20.0
 20
420.0
 30
0.0
 11
20.0
 21
430.0
 31
0.0
  0
LINE
  5
11C
330
17
100
AcDbEntity
  8
PEN
100
AcDbLine
 10
30.0
 20
420.0
 30
0.0
 11
30.0
 21
425.0
 31
0.0
  0
LINE
  5
11D
330
17
100
AcDbEntity
  8
PEN
100
AcDbLine
 10
40.0
 20
420.0
 30
0.0
 11
40.0
 21
425.0
 31
0.0
  0
LINE
  5
11E
330
17
100
AcDbEntity
  8
PEN
100
AcDbLine
 10
50.0
 20
420.0
 30
0.0
 11
50.0
 21
425.0
 31
0.0
  0
LINE
  5
11F
330
17
100
AcDbEntity
  8
PEN
100
AcDbLine
 10
60.0
 20
420.0
 30
0.0
 11
60.0
 21
425.0
 31
0.0
  0
LINE
  5
120
330
17
100
AcDbEntity
  8
PEN
100
AcDbLine
 10
70.0
 20
420.0
 30
0.0
 11
70.0
 21
430.0
 31
0.0
  0
LINE
  5
121
330
17
100
AcDbEntity
  8
PEN
100
AcDbLine
 10
80.0
 20
420.0
 30
0.0
 11
80.0
 21
425.0
 31
0.0
  0
LINE
  5
122
330
17
100
AcDbEntity
  8
PEN
100
AcDbLine
 10
90.0
 20
420.0
 30
0.0
 11
90.0
 21
425.0
 31
0.0
  0
LINE
  5
123
330
17
100
AcDbEntity
  8
PEN
100
AcDbLine
 10
100.0
 20
420.0
 30
0.0
 11
100.0
 21
425.0
 31
0.0
  0
LINE
  5
124
330
17
100
AcDbEntity
  8
PEN
100
AcDbLine
 10
110.0
 20
420.0
 30
0.0
 11
110.0
 21
425.0
 31
0.0
  0
LINE
  5
125
330
17
100
AcDbEntity
  8
PEN
100
AcDbLine
 10
120.0
 20
420.0
 30
0.0
 11
120.0
 21
430.0
 31
0.0
  0
LWPOLYLINE
  5
126
330
17
100
AcDbEntity
  8
PEN
100
AcDbPolyline
 90
3
 70
0
 10
21.333333333333332
 20
446.6666666666667
 10
22.666666666666668
 20
448.0
 10
22.666666666666668
 20
440.0
  0
LWPOLYLINE
  5
127
330
17
100
AcDbEntity
  8
PEN
100
AcDbPolyline
 90
2
 70
0
 10
21.333333333333332
 20
440.0
 10
24.0
 20
440.0
  0
LWPOLYLINE
  5
128
330
17
100
AcDbEntity
  8
PEN
100
AcDbPolyline
 90
9
 70
0
 10
29.333333333333332
 20
440.0
 10
28.0
 20
441.3333333333333
 10
28.0
 20
446.6666666666667
 10
29.333333333333332
 20
448.0
 10
32.0
 20
448.0
 10
33.333333333333336
 20
446.6666666666667
 10
33.333333333333336
 20
441.3333333333333
 10
32.0
 20
440.0
 10
29.333333333333332
 20
440.0
  0
LWPOLYLINE
  5
129
330
17
100
AcDbEntity
  8
PEN
100
AcDbPolyline
 90
2
 70
0
 10
28.0
 20
441.3333333333333
 10
33.333333333333336
 20
446.6666666666667
  0
LWPOLYLINE
  5
12A
330
17
100
AcDbEntity
  8
PEN
100
AcDbPolyline
 90
9
 70
0
 10
37.333333333333336
 20
440.0
 10
36.0
 20
441.3333333333333
 10
36.0
 20
446.6666666666667
 10
37.333333333333336
 20
448.0
 10
40.0
 20
448.0
 10
41.333333333333336
 20
446.6666666666667
 10
41.333333333333336
 20
441.3333333333333
 10
40.0
 20
440.0
 10
37.333333333333336
 20
440.0
  0
LWPOLYLINE
  5
12B
330
17
100
AcDbEntity
  8
PEN
100
AcDbPolyline
 90
2
 70
0
 10
36.0
 20
441.3333333333333
 10
41.333333333333336
 20
446.6666666666667
  0
LWPOLYLINE
  5
12C
330
17
100
AcDbEntity
  8
PEN
100
AcDbPolyline
 90
5
 70
0
 10
52.0
 20
440.0
 10
52.0
 20
448.0
 10
54.666666666666664
 20
444.0
 10
57.333333333333336
 20
448.0
 10
57.333333333333336
 20
440.0
  0
LWPOLYLINE
  5
12D
330
17
100
AcDbEntity
  8
PEN
100
AcDbPolyline
 90
5
 70
0
 10
60.0
 20
440.0
 10
60.0
 20
448.0
 10
62.666666666666664
 20
444.0
 10
65.33333333333333
 20
448.0
 10
65.33333333333333
 20
440.0
  0
LWPOLYLINE
  5
12E
330
17
100
AcDbEntity
  8
PEN
100
AcDbPolyline
 90
8
 70
0
 10
33.333333333333336
 20
546.6666666666666
 10
30.0
 20
550.0
 10
23.333333333333332
 20
550.0
 10
20.0
 20
546.6666666666666
 10
20.0
 20
533.3333333333334
 10
23.333333333333332
 20
530.0
 10
30.0
 20
530.0
 10
33.333333333333336
 20
533.3333333333334
  0
LWPOLYLINE
  5
12F
330
17
100
AcDbEntity
  8
PEN
100
AcDbPolyline
 90
9
 70
0
 10
43.333333333333336
 20
530.0
 10
40.0
 20
533.3333333333334
 10
40.0
 20
546.6666666666666
 10
43.333333333333336
 20
550.0
 10
50.0
 20
550.0
 10
53.333333333333336
 20
546.6666666666666
 10
53.333333333333336
 20
533.3333333333334
 10
50.0
 20
530.0
 10
43.333333333333336
 20
530.0
  0
LWPOLYLINE
  5
130
330
17
100
AcDbEntity
  8
PEN
100
AcDbPolyline
 90
3
 70
0
 10
60.0
 20
550.0
 10
66.66666666666667
 20
530.0
 10
73.33333333333333
 20
550.0
  0
LWPOLYLINE
  5
131
330
17
100
AcDbEntity
  8
PEN
100
AcDbPolyline
 90
4
 70
0
 10
93.33333333333333
 20
550.0
 10
80.0
 20
550.0
 10
80.0
 20
530.0
 10
93.33333333333333
 20
530.0
  0
LWPOLYLINE
  5
132
330
17
100
AcDbEntity
  8
PEN
100
AcDbPolyline
 90
2
 70
0
 10
80.0
 20
540.0
 10
90.0
 20
540.0
  0
LWPOLYLINE
  5
133
330
17
100
AcDbEntity
  8
PEN
100
AcDbPolyline
 90
7
 70
0
 10
100.0
 20
530.0
 10
100.0
 20
550.0
 10
110.0
 20
550.0
 10
113.33333333333333
 20
546.6666666666666
 10
113.33333333333333
 20
543.3333333333334
 10
110.0
 20
540.0
 10
100.0
 20
540.0
  0
LWPOLYLINE
  5
134
330
17
100
AcDbEntity
  8
PEN
100
AcDbPolyline
 90
2
 70
0
 10
106.66666666666667
 20
540.0
 10
113.33333333333333
 20
530.0
  0
LWPOLYLINE
  5
135
330
17
100
AcDbEntity
  8
PEN
100
AcDbPolyline
 90
4
 70
0
 10
153.33333333333334
 20
550.0
 10
140.0
 20
550.0
 10
140.0
 20
530.0
 10
153.33333333333334
 20
530.0
  0
LWPOLYLINE
  5
136
330
17
100
AcDbEntity
  8
PEN
100
AcDbPolyline
 90
2
 70
0
 10
140.0
 20
540.0
 10
150.0
 20
540.0
  0
LWPOLYLINE
  5
137
330
17
100
AcDbEntity
  8
PEN
100
AcDbPolyline
 90
4
 70
0
 10
160.0
 20
530.0
 10
160.0
 20
550.0
 10
173.33333333333334
 20
530.0
 10
173.33333333333334
 20
550.0
  0
LWPOLYLINE
  5
138
330
17
100
AcDbEntity
  8
PEN
100
AcDbPolyline
 90
10
 70
0
 10
193.33333333333334
 20
546.6666666666666
 10
190.0
 20
550.0
 10
183.33333333333334
 20
550.0
 10
180.0
 20
546.6666666666666
 10
180.0
 20
533.3333333333334
 10
183.33333333333334
 20
530.0
 10
190.0
 20
530.0
 10
193.33333333333334
 20
533.3333333333334
 10
193.33333333333334
 20
540.0
 10
186.66666666666666
 20
540.0
  0
LWPOLYLINE
  5
139
330
17
100
AcDbEntity
  8
PEN
100
AcDbPolyline
 90
2
 70
0
 10
203.33333333333334
 20
550.0
 10
210.0
 20
550.0
  0
LWPOLYLINE
  5
13A
330
17
100
AcDbEntity
  8
PEN
100
AcDbPolyline
 90
2
 70
0
 10
206.66666666666666
 20
550.0
 10
206.66666666666666
 20
530.0
  0
LWPOLYLINE
  5
13B
330
17
100
AcDbEntity
  8
PEN
100
AcDbPolyline
 90
2
 70
0
 10
203.33333333333334
 20
530.0
 10
210.0
 20
530.0
  0
LWPOLYLINE
  5
13C
330
17
100
AcDbEntity
  8
PEN
100
AcDbPolyline
 90
4
 70
0
 10
220.0
 20
530.0
 10
220.0
 20
550.0
 10
233.33333333333334
 20
530.0
 10
233.33333333333334
 20
550.0
  0
LWPOLYLINE
  5
13D
330
17
100
AcDbEntity
  8
PEN
100
AcDbPolyline
 90
4
 70
0
 10
253.33333333333334
 20
550.0
 10
240.0
 20
550.0
 10
240.0
 20
530.0
 10
253.33333333333334
 20
530.0
  0
LWPOLYLINE
  5
13E
330
17
100
AcDbEntity
  8
PEN
100
AcDbPolyline
 90
2
 70
0
 10
240.0
 20
540.0
 10
250.0
 20
540.0
  0
LWPOLYLINE
  5
13F
330
17
100
AcDbEntity
  8
PEN
100
AcDbPolyline
 90
2
 70
0
 10
280.0
 20
550.0
 10
293.3333333333333
 20
550.0
  0
LWPOLYLINE
  5
140
330
17
100
AcDbEntity
  8
PEN
100
AcDbPolyline
 90
2
 70
0
 10
286.6666666666667
 20
550.0
 10
286.6666666666667
 20
530.0
  0
LWPOLYLINE
  5
141
330
17
100
AcDbEntity
  8
PEN
100
AcDbPolyline
 90
4
 70
0
 10
313.3333333333333
 20
550.0
 10
300.0
 20
550.0
 10
300.0
 20
530.0
 10
313.3333333333333
 20
530.0
  0
LWPOLYLINE
  5
142
330
17
100
AcDbEntity
  8
PEN
100
AcDbPolyline
 90
2
 70
0
 10
300.0
 20
540.0
 10
310.0
 20
540.0
  0
LWPOLYLINE
  5
143
330
17
100
AcDbEntity
  8
PEN
100
AcDbPolyline
 90
12
 70
0
 10
333.3333333333333
 20
546.6666666666666
 10
330.0
 20
550.0
 10
323.3333333333333
 20
550.0
 10
320.0
 20
546.6666666666666
 10
320.0
 20
543.3333333333334
 10
323.3333333333333
 20
540.0
 10
330.0
 20
540.0
 10
333.3333333333333
 20
536.6666666666666
 10
333.3333333333333
 20
533.3333333333334
 10
330.0
 20
530.0
 10
323.3333333333333
 20
530.0
 10
320.0
 20
533.3333333333334
  0
LWPOLYLINE
  5
144
330
17
100
AcDbEntity
  8
PEN
100
AcDbPolyline
 90
2
 70
0
 10
340.0
 20
550.0
 10
353.3333333333333
 20
550.0
  0
LWPOLYLINE
  5
145
330
17
100
AcDbEntity
  8
PEN
100
AcDbPolyline
 90
2
 70
0
 10
346.6666666666667
 20
550.0
 10
346.6666666666667
 20
530.0
  0
LWPOLYLINE
  5
146
330
17
100
AcDbEntity
  8
PEN
100
AcDbPolyline
 90
12
 70
0
 10
393.3333333333333
 20
546.6666666666666
 10
390.0
 20
550.0
 10
383.3333333333333
 20
550.0
 10
380.0
 20
546.6666666666666
 10
380.0
 20
543.3333333333334
 10
383.3333333333333
 20
540.0
 10
390.0
 20
540.0
 10
393.3333333333333
 20
536.6666666666666
 10
393.3333333333333
 20
533.3333333333334
 10
390.0
 20
530.0
 10
383.3333333333333
 20
530.0
 10
380.0
 20
533.3333333333334
  0
LWPOLYLINE
  5
147
330
17
100
AcDbEntity
  8
PEN
100
AcDbPolyline
 90
2
 70
0
 10
400.0
 20
530.0
 10
400.0
 20
550.0
  0
LWPOLYLINE
  5
148
330
17
100
AcDbEntity
  8
PEN
100
AcDbPolyline
 90
2
 70
0
 10
413.3333333333333
 20
530.0
 10
413.3333333333333
 20
550.0
  0
LWPOLYLINE
  5
149
330
17
100
AcDbEntity
  8
PEN
100
AcDbPolyline
 90
2
 70
0
 10
400.0
 20
540.0
 10
413.3333333333333
 20
540.0
  0
LWPOLYLINE
  5
14A
330
17
100
AcDbEntity
  8
PEN
100
AcDbPolyline
 90
4
 70
0
 10
433.3333333333333
 20
550.0
 10
420.0
 20
550.0
 10
420.0
 20
530.0
 10
433.3333333333333
 20
530.0
  0
LWPOLYLINE
  5
14B
330
17
100
AcDbEntity
  8
PEN
100
AcDbPolyline
 90
2
 70
0
 10
420.0
 20
540.0
 10
430.0
 20
540.0
  0
LWPOLYLINE
  5
14C
330
17
100
AcDbEntity
  8
PEN
100
AcDbPolyline
 90
4
 70
0
 10
453.3333333333333
 20
550.0
 10
440.0
 20
550.0
 10
440.0
 20
530.0
 10
453.3333333333333
 20
530.0
  0
LWPOLYLINE
  5
14D
330
17
100
AcDbEntity
  8
PEN
100
AcDbPolyline
 90
2
 70
0
 10
440.0
 20
540.0
 10
450.0
 20
540.0
  0
LWPOLYLINE
  5
14E
330
17
100
AcDbEntity
  8
PEN
100
AcDbPolyline
 90
2
 70
0
 10
460.0
 20
550.0
 10
473.3333333333333
 20
550.0
  0
LWPOLYLINE
  5
14F
330
17
100
AcDbEntity
  8
PEN
100
AcDbPolyline
 90
2
 70
0
 10
466.6666666666667
 20
550.0
 10
466.6666666666667
 20
530.0
  0
LWPOLYLINE
  5
150
330
17
100
AcDbEntity
  8
PEN
100
AcDbPolyline
 90
2
 70
0
 10
503.3333333333333
 20
540.0
 10
510.0
 20
540.0
  0
LWPOLYLINE
  5
151
330
17
100
AcDbEntity
  8
PEN
100
AcDbPolyline
 90
3
 70
0
 10
540.0
 20
550.0
 10
546.6666666666666
 20
530.0
 10
553.3333333333334
 20
550.0
  0
LWPOLYLINE
  5
152
330
17
100
AcDbEntity
  8
PEN
100
AcDbPolyline
 90
5
 70
0
 10
560.0
 20
530.0
 10
560.0
 20
543.3333333333334
 10
566.6666666666666
 20
550.0
 10
573.3333333333334
 20
543.3333333333334
 10
573.3333333333334
 20
530.0
  0
LWPOLYLINE
  5
153
330
17
100
AcDbEntity
  8
PEN
100
AcDbPolyline
 90
2
 70
0
 10
560.0
 20
540.0
 10
573.3333333333334
 20
540.0
  0
LWPOLYLINE
  5
154
330
17
100
AcDbEntity
  8
PEN
100
AcDbPolyline
 90
7
 70
0
 10
580.0
 20
530.0
 10
580.0
 20
550.0
 10
590.0
 20
550.0
 10
593.3333333333334
 20
546.6666666666666
 10
593.3333333333334
 20
543.3333333333334
 10
590.0
 20
540.0
 10
580.0
 20
540.0
  0
LWPOLYLINE
  5
155
330
17
100
AcDbEntity
  8
PEN
100
AcDbPolyline
 90
2
 70
0
 10
586.6666666666666
 20
540.0
 10
593.3333333333334
 20
530.0
  0
LWPOLYLINE
  5
156
330
17
100
AcDbEntity
  8
PEN
100
AcDbPolyline
 90
2
 70
0
 10
603.3333333333334
 20
550.0
 10
610.0
 20
550.0
  0
LWPOLYLINE
  5
157
330
17
100
AcDbEntity
  8
PEN
100
AcDbPolyline
 90
2
 70
0
 10
606.6666666666666
 20
550.0
 10
606.6666666666666
 20
530.0
  0
LWPOLYLINE
  5
158
330
17
100
AcDbEntity
  8
PEN
100
AcDbPolyline
 90
2
 70
0
 10
603.3333333333334
 20
530.0
 10
610.0
 20
530.0
  0
LWPOLYLINE
  5
159
330
17
100
AcDbEntity
  8
PEN
100
AcDbPolyline
 90
5
 70
0
 10
620.0
 20
530.0
 10
620.0
 20
543.3333333333334
 10
626.6666666666666
 20
550.0
 10
633.3333333333334
 20
543.3333333333334
 10
633.3333333333334
 20
530.0
  0
LWPOLYLINE
  5
15A
330
17
100
AcDbEntity
  8
PEN
100
AcDbPolyline
 90
2
 70
0
 10
620.0
 20
540.0
 10
633.3333333333334
 20
540.0
  0
LWPOLYLINE
  5
15B
330
17
100
AcDbEntity
  8
PEN
100
AcDbPolyline
 90
4
 70
0
 10
640.0
 20
530.0
 10
640.0
 20
550.0
 10
653.3333333333334
 20
530.0
 10
653.3333333333334
 20
550.0
  0
LWPOLYLINE
  5
15C
330
17
100
AcDbEntity
  8
PEN
100
AcDbPolyline
 90
2
 70
0
 10
660.0
 20
550.0
 10
673.3333333333334
 20
550.0
  0
LWPOLYLINE
  5
15D
330
17
100
AcDbEntity
  8
PEN
100
AcDbPolyline
 90
2
 70
0
 10
666.6666666666666
 20
550.0
 10
666.6666666666666
 20
530.0
  0
LWPOLYLINE
  5
15E
330
17
100
AcDbEntity
  8
PEN
100
AcDbPolyline
 90
8
 70
0
 10
713.3333333333334
 20
546.6666666666666
 10
710.0
 20
550.0
 10
703.3333333333334
 20
550.0
 10
700.0
 20
546.6666666666666
 10
700.0
 20
533.3333333333334
 10
703.3333333333334
 20
530.0
 10
710.0
 20
530.0
 10
713.3333333333334
 20
533.3333333333334
  0
LWPOLYLINE
  5
15F
330
17
100
AcDbEntity
  8
PEN
100
AcDbPolyline
 90
2
 70
0
 10
743.3333333333334
 20
540.0
 10
750.0
 20
540.0
  0
LWPOLYLINE
  5
160
330
17
100
AcDbEntity
  8
PEN
100
AcDbPolyline
 90
2
 70
0
 10
780.0
 20
550.0
 10
793.3333333333334
 20
550.0
  0
LWPOLYLINE
  5
161
330
17
100
AcDbEntity
  8
PEN
100
AcDbPolyline
 90
2
 70
0
 10
786.6666666666666
 20
550.0
 10
786.6666666666666
 20
530.0
  0
LWPOLYLINE
  5
162
330
17
100
AcDbEntity
  8
PEN
100
AcDbPolyline
 90
4
 70
0
 10
813.3333333333334
 20
550.0
 10
800.0
 20
550.0
 10
800.0
 20
530.0
 10
813.3333333333334
 20
530.0
  0
LWPOLYLINE
  5
163
330
17
100
AcDbEntity
  8
PEN
100
AcDbPolyline
 90
2
 70
0
 10
800.0
 20
540.0
 10
810.0
 20
540.0
  0
LWPOLYLINE
  5
164
330
17
100
AcDbEntity
  8
PEN
100
AcDbPolyline
 90
2
 70
0
 10
820.0
 20
530.0
 10
833.3333333333334
 20
550.0
  0
LWPOLYLINE
  5
165
330
17
100
AcDbEntity
  8
PEN
100
AcDbPolyline
 90
2
 70
0
 10
820.0
 20
550.0
 10
833.3333333333334
 20
530.0
  0
LWPOLYLINE
  5
166
330
17
100
AcDbEntity
  8
PEN
100
AcDbPolyline
 90
2
 70
0
 10
840.0
 20
550.0
 10
853.3333333333334
 20
550.0
  0
LWPOLYLINE
  5
167
330
17
100
AcDbEntity
  8
PEN
100
AcDbPolyline
 90
2
 70
0
 10
846.6666666666666
 20
550.0
 10
846.6666666666666
 20
530.0
  0
LWPOLYLINE
  5
168
330
17
100
AcDbEntity
  8
PEN
100
AcDbPolyline
 90
5
 70
0
 10
880.0
 20
530.0
 10
880.0
 20
543.3333333333334
 10
886.6666666666666
 20
550.0
 10
893.3333333333334
 20
543.3333333333334
 10
893.3333333333334
 20
530.0
  0
LWPOLYLINE
  5
169
330
17
100
AcDbEntity
  8
PEN
100
AcDbPolyline
 90
2
 70
0
 10
880.0
 20
540.0
 10
893.3333333333334
 20
540.0
  0
LWPOLYLINE
  5
16A
330
17
100
AcDbEntity
  8
PEN
100
AcDbPolyline
 90
12
 70
0
 10
913.3333333333334
 20
546.6666666666666
 10
910.0
 20
550.0
 10
903.3333333333334
 20
550.0
 10
900.0
 20
546.6666666666666
 10
900.0
 20
543.3333333333334
 10
903.3333333333334
 20
540.0
 10
910.0
 20
540.0
 10
913.3333333333334
 20
536.6666666666666
 10
913.3333333333334
 20
533.3333333333334
 10
910.0
 20
530.0
 10
903.3333333333334
 20
530.0
 10
900.0
 20
533.3333333333334
  0
LWPOLYLINE
  5
16B
330
17
100
AcDbEntity
  8
PEN
100
AcDbPolyline
 90
3
 70
0
 10
940.0
 20
550.0
 10
940.0
 20
530.0
 10
953.3333333333334
 20
530.0
  0
LWPOLYLINE
  5
16C
330
17
100
AcDbEntity
  8
PEN
100
AcDbPolyline
 90
2
 70
0
 10
963.3333333333334
 20
550.0
 10
970.0
 20
550.0
  0
LWPOLYLINE
  5
16D
330
17
100
AcDbEntity
  8
PEN
100
AcDbPolyline
 90
2
 70
0
 10
966.6666666666666
 20
550.0
 10
966.6666666666666
 20
530.0
  0
LWPOLYLINE
  5
16E
330
17
100
AcDbEntity
  8
PEN
100
AcDbPolyline
 90
2
 70
0
 10
963.3333333333334
 20
530.0
 10
970.0
 20
530.0
  0
LWPOLYLINE
  5
16F
330
17
100
AcDbEntity
  8
PEN
100
AcDbPolyline
 90
4
 70
0
 10
980.0
 20
530.0
 10
980.0
 20
550.0
 10
993.3333333333334
 20
530.0
 10
993.3333333333334
 20
550.0
  0
LWPOLYLINE
  5
170
330
17
100
AcDbEntity
  8
PEN
100
AcDbPolyline
 90
4
 70
0
 10
1013.3333333333334
 20
550.0
 10
1000.0
 20
550.0
 10
1000.0
 20
530.0
 10
1013.3333333333334
 20
530.0
  0
LWPOLYLINE
  5
171
330
17
100
AcDbEntity
  8
PEN
100
AcDbPolyline
 90
2
 70
0
 10
1000.0
 20
540.0
 10
1010.0
 20
540.0
  0
LWPOLYLINE
  5
172
330
17
100
AcDbEntity
  8
PEN
100
AcDbPolyline
 90
12
 70
0
 10
1033.3333333333333
 20
546.6666666666666
 10
1030.0
 20
550.0
 10
1023.3333333333334
 20
550.0
 10
1020.0
 20
546.6666666666666
 10
1020.0
 20
543.3333333333334
 10
1023.3333333333334
 20
540.0
 10
1030.0
 20
540.0
 10
1033.3333333333333
 20
536.6666666666666
 10
1033.3333333333333
 20
533.3333333333334
 10
1030.0
 20
530.0
 10
1023.3333333333334
 20
530.0
 10
1020.0
 20
533.3333333333334
  0
ENDSEC
  0
SECTION
  2
OBJECTS
  0
DICTIONARY
  5
A
330
0
100
AcDbDictionary
281
1
  3
ACAD_COLOR
350
B
  3
ACAD_GROUP
350
C
  3
ACAD_LAYOUT
350
D
  3
ACAD_MATERIAL
350
E
  3
ACAD_MLEADERSTYLE
350
F
  3
ACAD_MLINESTYLE
350
10
  3
ACAD_PLOTSETTINGS
350
11
  3
ACAD_PLOTSTYLENAME
350
12
  3
ACAD_SCALELIST
350
14
  3
ACAD_TABLESTYLE
350
15
  3
ACAD_VISUALSTYLE
350
16
  3
EZDXF_META
350
2D
  0
DICTIONARY
  5
B
330
A
100
AcDbDictionary
281
1
  0
DICTIONARY
  5
C
330
A
100
AcDbDictionary
281
1
  0
DICTIONARY
  5
D
330
A
100
AcDbDictionary
281
1
  3
Model
350
1A
  3
Layout1
350
1E
  0
DICTIONARY
  5
E
330
A
100
AcDbDictionary
281
1
  3
ByBlock
350
1F
  3
ByLayer
350
20
  3
Global
350
21
  0
DICTIONARY
  5
F
330
A
100
AcDbDictionary
281
1
  3
Standard
350
2C
  0
DICTIONARY
  5
10
330
A
100
AcDbDictionary
281
1
  3
Standard
350
22
  0
DICTIONARY
  5
11
330
A
100
AcDbDictionary
281
1
  0
ACDBDICTIONARYWDFLT
  5
12
330
A
100
AcDbDictionary
281
1
  3
Normal
350
13
100
AcDbDictionaryWithDefault
340
13
  0
ACDBPLACEHOLDER
  5
13
330
12
  0
DICTIONARY
  5
14
330
A
100
AcDbDictionary
281
1
  0
DICTIONARY
  5
15
330
A
100
AcDbDictionary
281
1
  0
DICTIONARY
  5
16
330
A
100
AcDbDictionary
281
1
  0
LAYOUT
  5
1A
330
D
100
AcDbPlotSettings
  1

  4
A3
  6

 40
7.5
 41
20.0
 42
7.5
 43
20.0
 44
420.0
 45
297.0
 46
0.0
 47
0.0
 48
0.0
 49
0.0
140
0.0
141
0.0
142
1.0
143
1.0
 70
1024
 72
1
 73
0
 74
5
  7

 75
16
 76
0
 77
2
 78
300
147
1.0
148
0.0
149
0.0
100
AcDbLayout
  1
Model
 70
1
 71
0
 10
0.0
 20
0.0
 11
420.0
 21
297.0
 12
0.0
 22
0.0
 32
0.0
 14
1e+20
 24
1e+20
 34
1e+20
 15
-1e+20
 25
-1e+20
 35
-1e+20
146
0.0
 13
0.0
 23
0.0
 33
0.0
 16
1.0
 26
0.0
 36
0.0
 17
0.0
 27
1.0
 37
0.0
 76
1
330
17
  0
LAYOUT
  5
1E
330
D
100
AcDbPlotSettings
  1

  4
A3
  6

 40
7.5
 41
20.0
 42
7.5
 43
20.0
 44
420.0
 45
297.0
 46
0.0
 47
0.0
 48
0.0
 49
0.0
140
0.0
141
0.0
142
1.0
143
1.0
 70
0
 72
1
 73
0
 74
5
  7

 75
16
 76
0
 77
2
 78
300
147
1.0
148
0.0
149
0.0
100
AcDbLayout
  1
Layout1
 70
1
 71
1
 10
0.0
 20
0.0
 11
420.0
 21
297.0
 12
0.0
 22
0.0
 32
0.0
 14
1e+20
 24
1e+20
 34
1e+20
 15
-1e+20
 25
-1e+20
 35
-1e+20
146
0.0
 13
0.0
 23
0.0
 33
0.0
 16
1.0
 26
0.0
 36
0.0
 17
0.0
 27
1.0
 37
0.0
 76
1
330
1B
  0
MATERIAL
  5
1F
102
{ACAD_REACTORS
330
E
102
}
330
E
100
AcDbMaterial
  1
ByBlock
  2

 70
0
 40
1.0
 71
1
 41
1.0
 91
-1023410177
 42
1.0
 72
1
  3

 73
1
 74
1
 75
1
 44
0.5
 73
0
 45
1.0
 46
1.0
 77
1
  4

 78
1
 79
1
170
1
 48
1.0
171
1
  6

172
1
173
1
174
1
140
1.0
141
1.0
175
1
  7

176
1
177
1
178
1
143
1.0
179
1
  8

270
1
271
1
272
1
145
1.0
146
1.0
273
1
  9

274
1
275
1
276
1
 42
1.0
 72
1
  3

 73
1
 74
1
 75
1
 94
63
  0
MATERIAL
  5
20
102
{ACAD_REACTORS
330
E
102
}
330
E
100
AcDbMaterial
  1
ByLayer
  2

 70
0
 40
1.0
 71
1
 41
1.0
 91
-1023410177
 42
1.0
 72
1
  3

 73
1
 74
1
 75
1
 44
0.5
 73
0
 45
1.0
 46
1.0
 77
1
  4

 78
1
 79
1
170
1
 48
1.0
171
1
  6

172
1
173
1
174
1
140
1.0
141
1.0
175
1
  7

176
1
177
1
178
1
143
1.0
179
1
  8

270
1
271
1
272
1
145
1.0
146
1.0
273
1
  9

274
1
275
1
276
1
 42
1.0
 72
1
  3

 73
1
 74
1
 75
1
 94
63
  0
MATERIAL
  5
21
102
{ACAD_REACTORS
330
E
102
}
330
E
100
AcDbMaterial
  1
Global
  2

 70
0
 40
1.0
 71
1
 41
1.0
 91
-1023410177
 42
1.0
 72
1
  3

 73
1
 74
1
 75
1
 44
0.5
 73
0
 45
1.0
 46
1.0
 77
1
  4

 78
1
 79
1
170
1
 48
1.0
171
1
  6

172
1
173
1
174
1
140
1.0
141
1.0
175
1
  7

176
1
177
1
178
1
143
1.0
179
1
  8

270
1
271
1
272
1
145
1.0
146
1.0
273
1
  9

274
1
275
1
276
1
 42
1.0
 72
1
  3

 73
1
 74
1
 75
1
 94
63
  0
MLINESTYLE
  5
22
102
{ACAD_REACTORS
330
10
102
}
330
10
100
AcDbMlineStyle
  2
Standard
 70
0
  3

 62
256
 51
90.0
 52
90.0
 71
2
 49
0.5
 62
256
  6
BYLAYER
 49
-0.5
 62
256
  6
BYLAYER
  0
MLEADERSTYLE
  5
2C
102
{ACAD_REACTORS
330
F
102
}
330
F
100
AcDbMLeaderStyle
179
2
170
2
171
1
172
0
 90
2
 40
0.0
 41
0.0
173
1
 91
-1056964608
 92
-2
290
1
 42
2.0
291
1
 43
8.0
  3
Standard
 44
4.0
300

342
29
174
1
175
1
176
0
178
1
 93
-1056964608
 45
4.0
292
0
297
0
 46
4.0
 94
-1056964608
 47
1.0
 49
1.0
140
1.0
294
1
141
0.0
177
0
142
1.0
295
0
296
0
143
3.75
271
0
272
9
273
9
  0
DICTIONARY
  5
2D
330
A
100
AcDbDictionary
280
1
281
1
  3
CREATED_BY_EZDXF
350
2E
  3
WRITTEN_BY_EZDXF
350
175
  0
DICTIONARYVAR
  5
2E
330
2D
100
DictionaryVariables
280
0
  1
0.0 @ 2000-01-01T00:00:00.000000+00:00
  0
DICTIONARYVAR
  5
175
330
2D
100
DictionaryVariables
280
0
  1
0.0 @ 2000-01-01T00:00:00.000000+00:00
  0
ENDSEC
  0
EOF
