  0
SECTION
  2
HEADER
  9
$ACADVER
  1
AC1024
  9
$ACADMAINTVER
 70
6
  9
$DWGCODEPAGE
  3
ANSI_1252
  9
$LASTSAVEDBY
  1
ezdxf
  9
$INSBASE
 10
0.0
 20
0.0
 30
0.0
  9
$EXTMIN
 10
1e+20
 20
1e+20
 30
1e+20
  9
$EXTMAX
 10
-1e+20
 20
-1e+20
 30
-1e+20
  9
$LIMMIN
 10
0.0
 20
0.0
  9
$LIMMAX
 10
420.0
 20
297.0
  9
$ORTHOMODE
 70
0
  9
$REGENMODE
 70
1
  9
$FILLMODE
 70
1
  9
$QTEXTMODE
 70
0
  9
$MIRRTEXT
 70
1
  9
$LTSCALE
 40
1.0
  9
$ATTMODE
 70
1
  9
$TEXTSIZE
 40
2.5
  9
$TRACEWID
 40
1.0
  9
$TEXTSTYLE
  7
Standard
  9
$CLAYER
  8
0
  9
$CELTYPE
  6
ByLayer
  9
$CECOLOR
 62
256
  9
$CELTSCALE
 40
1.0
  9
$DISPSILH
 70
0
  9
$DIMSCALE
 40
1.0
  9
$DIMASZ
 40
2.5
  9
$DIMEXO
 40
0.625
  9
$DIMDLI
 40
3.75
  9
$DIMRND
 40
0.0
  9
$DIMDLE
 40
0.0
  9
$DIMEXE
 40
1.25
  9
$DIMTP
 40
0.0
  9
$DIMTM
 40
0.0
  9
$DIMTXT
 40
2.5
  9
$DIMCEN
 40
2.5
  9
$DIMTSZ
 40
0.0
  9
$DIMTOL
 70
0
  9
$DIMLIM
 70
0
  9
$DIMTIH
 70
0
  9
$DIMTOH
 70
0
  9
$DIMSE1
 70
0
  9
$DIMSE2
 70
0
  9
$DIMTAD
 70
1
  9
$DIMZIN
 70
8
  9
$DIMBLK
  1

  9
$DIMASO
 70
1
  9
$DIMSHO
 70
1
  9
$DIMPOST
  1

  9
$DIMAPOST
  1

  9
$DIMALT
 70
0
  9
$DIMALTD
 70
3
  9
$DIMALTF
 40
0.03937007874
  9
$DIMLFAC
 40
1.0
  9
$DIMTOFL
 70
1
  9
$DIMTVP
 40
0.0
  9
$DIMTIX
 70
0
  9
$DIMSOXD
 70
0
  9
$DIMSAH
 70
0
  9
$DIMBLK1
  1

  9
$DIMBLK2
  1

  9
$DIMSTYLE
  2
ISO-25
  9
$DIMCLRD
 70
0
  9
$DIMCLRE
 70
0
  9
$DIMCLRT
 70
0
  9
$DIMTFAC
 40
1.0
  9
$DIMGAP
 40
0.625
  9
$DIMJUST
 70
0
  9
$DIMSD1
 70
0
  9
$DIMSD2
 70
0
  9
$DIMTOLJ
 70
0
  9
$DIMTZIN
 70
8
  9
$DIMALTZ
 70
0
  9
$DIMALTTZ
 70
0
  9
$DIMUPT
 70
0
  9
$DIMDEC
 70
2
  9
$DIMTDEC
 70
2
  9
$DIMALTU
 70
2
  9
$DIMALTTD
 70
3
  9
$DIMTXSTY
  7
Standard
  9
$DIMAUNIT
 70
0
  9
$DIMADEC
 70
0
  9
$DIMALTRND
 40
0.0
  9
$DIMAZIN
 70
0
  9
$DIMDSEP
 70
44
  9
$DIMATFIT
 70
3
  9
$DIMFRAC
 70
0
  9
$DIMLDRBLK
  1

  9
$DIMLUNIT
 70
2
  9
$DIMLWD
 70
-2
  9
$DIMLWE
 70
-2
  9
$DIMTMOVE
 70
0
  9
$DIMFXL
 40
1.0
  9
$DIMFXLON
 70
0
  9
$DIMJOGANG
 40
0.785398163397
  9
$DIMTFILL
 70
0
  9
$DIMTFILLCLR
 70
0
  9
$DIMARCSYM
 70
0
  9
$DIMLTYPE
  6

  9
$DIMLTEX1
  6

  9
$DIMLTEX2
  6

  9
$DIMTXTDIRECTION
 70
0
  9
$LUNITS
 70
2
  9
$LUPREC
 70
4
  9
$SKETCHINC
 40
1.0
  9
$FILLETRAD
 40
10.0
  9
$AUNITS
 70
0
  9
$AUPREC
 70
2
  9
$MENU
  1
.
  9
$ELEVATION
 40
0.0
  9
$PELEVATION
 40
0.0
  9
$THICKNESS
 40
0.0
  9
$LIMCHECK
 70
0
  9
$CHAMFERA
 40
0.0
  9
$CHAMFERB
 40
0.0
  9
$CHAMFERC
 40
0.0
  9
$CHAMFERD
 40
0.0
  9
$SKPOLY
 70
0
  9
$TDCREATE
 40
2451545.0
  9
$TDUCREATE
 40
2451545.0
  9
$TDUPDATE
 40
2451545.0
  9
$TDUUPDATE
 40
2451545.0
  9
$TDINDWG
 40
0.0
  9
$TDUSRTIMER
 40
0.0
  9
$USRTIMER
 70
1
  9
$ANGBASE
 50
0.0
  9
$ANGDIR
 70
0
  9
$PDMODE
 70
0
  9
$PDSIZE
 40
0.0
  9
$PLINEWID
 40
0.0
  9
$SPLFRAME
 70
0
  9
$SPLINETYPE
 70
6
  9
$SPLINESEGS
 70
8
  9
$HANDSEED
  5
62
  9
$SURFTAB1
 70
6
  9
$SURFTAB2
 70
6
  9
$SURFTYPE
 70
6
  9
$SURFU
 70
6
  9
$SURFV
 70
6
  9
$UCSBASE
  2

  9
$UCSNAME
  2

  9
$UCSORG
 10
0.0
 20
0.0
 30
0.0
  9
$UCSXDIR
 10
1.0
 20
0.0
 30
0.0
  9
$UCSYDIR
 10
0.0
 20
1.0
 30
0.0
  9
$UCSORTHOREF
  2

  9
$UCSORTHOVIEW
 70
0
  9
$UCSORGTOP
 10
0.0
 20
0.0
 30
0.0
  9
$UCSORGBOTTOM
 10
0.0
 20
0.0
 30
0.0
  9
$UCSORGLEFT
 10
0.0
 20
0.0
 30
0.0
  9
$UCSORGRIGHT
 10
0.0
 20
0.0
 30
0.0
  9
$UCSORGFRONT
 10
0.0
 20
0.0
 30
0.0
  9
$UCSORGBACK
 10
0.0
 20
0.0
 30
0.0
  9
$PUCSBASE
  2

  9
$PUCSNAME
  2

  9
$PUCSORG
 10
0.0
 20
0.0
 30
0.0
  9
$PUCSXDIR
 10
1.0
 20
0.0
 30
0.0
  9
$PUCSYDIR
 10
0.0
 20
1.0
 30
0.0
  9
$PUCSORTHOREF
  2

  9
$PUCSORTHOVIEW
 70
0
  9
$PUCSORGTOP
 10
0.0
 20
0.0
 30
0.0
  9
$PUCSORGBOTTOM
 10
0.0
 20
0.0
 30
0.0
  9
$PUCSORGLEFT
 10
0.0
 20
0.0
 30
0.0
  9
$PUCSORGRIGHT
 10
0.0
 20
0.0
 30
0.0
  9
$PUCSORGFRONT
 10
0.0
 20
0.0
 30
0.0
  9
$PUCSORGBACK
 10
0.0
 20
0.0
 30
0.0
  9
$USERI1
 70
0
  9
$USERI2
 70
0
  9
$USERI3
 70
0
  9
$USERI4
 70
0
  9
$USERI5
 70
0
  9
$USERR1
 40
0.0
  9
$USERR2
 40
0.0
  9
$USERR3
 40
0.0
  9
$USERR4
 40
0.0
  9
$USERR5
 40
0.0
  9
$WORLDVIEW
 70
1
  9
$SHADEDGE
 70
3
  9
$SHADEDIF
 70
70
  9
$TILEMODE
 70
1
  9
$MAXACTVP
 70
64
  9
$PINSBASE
 10
0.0
 20
0.0
 30
0.0
  9
$PLIMCHECK
 70
0
  9
$PEXTMIN
 10
1e+20
 20
1e+20
 30
1e+20
  9
$PEXTMAX
 10
-1e+20
 20
-1e+20
 30
-1e+20
  9
$PLIMMIN
 10
0.0
 20
0.0
  9
$PLIMMAX
 10
420.0
 20
297.0
  9
$UNITMODE
 70
0
  9
$VISRETAIN
 70
1
  9
$PLINEGEN
 70
0
  9
$PSLTSCALE
 70
1
  9
$TREEDEPTH
 70
3020
  9
$CMLSTYLE
  2
Standard
  9
$CMLJUST
 70
0
  9
$CMLSCALE
 40
20.0
  9
$PROXYGRAPHICS
 70
1
  9
$MEASUREMENT
 70
1
  9
$CELWEIGHT
370
-1
  9
$ENDCAPS
280
0
  9
$JOINSTYLE
280
0
  9
$LWDISPLAY
290
0
  9
$INSUNITS
 70
4
  9
$HYPERLINKBASE
  1

  9
$STYLESHEET
  1

  9
$XEDIT
290
1
  9
$CEPSNTYPE
380
0
  9
$PSTYLEMODE
290
1
  9
$FINGERPRINTGUID
  2
{00000000-0000-0000-0000-000000000000}
  9
$VERSIONGUID
  2
{00000000-0000-0000-0000-000000000000}
  9
$EXTNAMES
290
1
  9
$PSVPSCALE
 40
0.0
  9
$OLESTARTUP
290
0
  9
$SORTENTS
280
127
  9
$INDEXCTL
280
0
  9
$HIDETEXT
280
1
  9
$XCLIPFRAME
280
1
  9
$HALOGAP
280
0
  9
$OBSCOLOR
 70
257
  9
$OBSLTYPE
280
0
  9
$INTERSECTIONDISPLAY
280
0
  9
$INTERSECTIONCOLOR
 70
257
  9
$DIMASSOC
280
2
  9
$PROJECTNAME
  1

  9
$CAMERADISPLAY
290
0
  9
$LENSLENGTH
 40
50.0
  9
$CAMERAHEIGHT
 40
0.0
  9
$STEPSPERSEC
 40
24.0
  9
$STEPSIZE
 40
100.0
  9
$3DDWFPREC
 40
2.0
  9
$PSOLWIDTH
 40
0.005
  9
$PSOLHEIGHT
 40
0.08
  9
$LOFTANG1
 40
1.570796326795
  9
$LOFTANG2
 40
1.570796326795
  9
$LOFTMAG1
 40
0.0
  9
$LOFTMAG2
 40
0.0
  9
$LOFTPARAM
 70
7
  9
$LOFTNORMALS
280
1
  9
$LATITUDE
 40
37.795
  9
$LONGITUDE
 40
-122.394
  9
$NORTHDIRECTION
 40
0.0
  9
$TIMEZONE
 70
-8000
  9
$LIGHTGLYPHDISPLAY
280
1
  9
$TILEMODELIGHTSYNCH
280
1
  9
$CMATERIAL
347
20
  9
$SOLIDHIST
280
0
  9
$SHOWHIST
280
1
  9
$DWFFRAME
280
2
  9
$DGNFRAME
280
2
  9
$REALWORLDSCALE
290
1
  9
$INTERFERECOLOR
 62
256
  9
$CSHADOW
280
0
  9
$SHADOWPLANELOCATION
 40
0.0
  0
ENDSEC
  0
SECTION
  2
CLASSES
  0
CLASS
  1
ACDBDETAILVIEWSTYLE
  2
AcDbDetailViewStyle
  3
ObjectDBX Classes
 90
1025
 91
0
280
0
281
0
  0
CLASS
  1
ACDBDICTIONARYWDFLT
  2
AcDbDictionaryWithDefault
  3
ObjectDBX Classes
 90
0
 91
0
280
0
281
0
  0
CLASS
  1
ACDBPLACEHOLDER
  2
AcDbPlaceHolder
  3
ObjectDBX Classes
 90
0
 91
0
280
0
281
0
  0
CLASS
  1
ACDBSECTIONVIEWSTYLE
  2
AcDbSectionViewStyle
  3
ObjectDBX Classes
 90
1025
 91
0
280
0
281
0
  0
CLASS
  1
CELLSTYLEMAP
  2
AcDbCellStyleMap
  3
ObjectDBX Classes
 90
1152
 91
0
280
0
281
0
  0
CLASS
  1
DICTIONARYVAR
  2
AcDbDictionaryVar
  3
ObjectDBX Classes
 90
0
 91
0
280
0
281
0
  0
CLASS
  1
LAYOUT
  2
AcDbLayout
  3
ObjectDBX Classes
 90
0
 91
0
280
0
281
0
  0
CLASS
  1
MATERIAL
  2
AcDbMaterial
  3
ObjectDBX Classes
 90
1153
 91
0
280
0
281
0
  0
CLASS
  1
MENTALRAYRENDERSETTINGS
  2
AcDbMentalRayRenderSettings
  3
SCENEOE
 90
1024
 91
0
280
0
281
0
  0
CLASS
  1
MLEADERSTYLE
  2
AcDbMLeaderStyle
  3
ACDB_MLEADERSTYLE_CLASS
 90
4095
 91
0
280
0
281
0
  0
CLASS
  1
RASTERVARIABLES
  2
AcDbRasterVariables
  3
ISM
 90
0
 91
0
280
0
281
0
  0
CLASS
  1
SCALE
  2
AcDbScale
  3
ObjectDBX Classes
 90
1153
 91
0
280
0
281
0
  0
CLASS
  1
SUN
  2
AcDbSun
  3
SCENEOE
 90
1153
 91
0
280
0
281
0
  0
CLASS
  1
TABLESTYLE
  2
AcDbTableStyle
  3
ObjectDBX Classes
 90
4095
 91
0
280
0
281
0
  0
CLASS
  1
VISUALSTYLE
  2
AcDbVisualStyle
  3
ObjectDBX Classes
 90
4095
 91
0
280
0
281
0
  0
ENDSEC
  0
SECTION
  2
TABLES
  0
TABLE
  2
VPORT
  5
8
330
0
100
AcDbSymbolTable
 70
1
  0
VPORT
  5
23
330
8
100
AcDbSymbolTableRecord
100
AcDbViewportTableRecord
  2
*Active
 70
0
 10
0.0
 20
0.0
 11
1.0
 21
1.0
 12
0.0
 22
0.0
 13
0.0
 23
0.0
 14
0.5
 24
0.5
 15
0.5
 25
0.5
 16
0.0
 26
0.0
 36
1.0
 17
0.0
 27
0.0
 37
0.0
 40
1000.0
 41
1.34
 42
50.0
 43
0.0
 44
0.0
 50
0.0
 51
0.0
 71
0
 72
1000
 73
1
 74
3
 75
0
 76
0
 77
0
 78
0
281
0
 65
0
146
0.0
  0
ENDTAB
  0
TABLE
  2
LTYPE
  5
2
330
0
100
AcDbSymbolTable
 70
3
  0
LTYPE
  5
24
330
2
100
AcDbSymbolTableRecord
100
AcDbLinetypeTableRecord
  2
ByBlock
 70
0
  3

 72
65
 73
0
 40
0.0
  0
LTYPE
  5
25
330
2
100
AcDbSymbolTableRecord
100
AcDbLinetypeTableRecord
  2
ByLayer
 70
0
  3

 72
65
 73
0
 40
0.0
  0
LTYPE
  5
26
330
2
100
AcDbSymbolTableRecord
100
AcDbLinetypeTableRecord
  2
Continuous
 70
0
  3

 72
65
 73
0
 40
0.0
  0
ENDTAB
  0
TABLE
  2
LAYER
  5
1
330
0
100
AcDbSymbolTable
 70
2
  0
LAYER
  5
27
330
1
100
AcDbSymbolTableRecord
100
AcDbLayerTableRecord
  2
0
 70
0
 62
7
  6
Continuous
370
-3
390
13
347
21
  0
LAYER
  5
28
330
1
100
AcDbSymbolTableRecord
100
AcDbLayerTableRecord
  2
Defpoints
 70
0
 62
7
  6
Continuous
290
0
370
-3
390
13
347
21
  0
ENDTAB
  0
TABLE
  2
STYLE
  5
5
330
0
100
AcDbSymbolTable
 70
1
  0
STYLE
  5
29
330
5
100
AcDbSymbolTableRecord
100
AcDbTextStyleTableRecord
  2
Standard
 70
0
 40
0.0
 41
1.0
 50
0.0
 71
0
 42
2.5
  3
txt
  4

  0
ENDTAB
  0
TABLE
  2
VIEW
  5
7
330
0
100
AcDbSymbolTable
 70
0
  0
ENDTAB
  0
TABLE
  2
UCS
  5
6
330
0
100
AcDbSymbolTable
 70
0
  0
ENDTAB
  0
TABLE
  2
APPID
  5
3
330
0
100
AcDbSymbolTable
 70
3
  0
APPID
  5
2A
330
3
100
AcDbSymbolTableRecord
100
AcDbRegAppTableRecord
  2
ACAD
 70
0
  0
APPID
  5
5F
330
3
100
AcDbSymbolTableRecord
100
AcDbRegAppTableRecord
  2
HATCHBACKGROUNDCOLOR
 70
0
  0
APPID
  5
60
330
3
100
AcDbSymbolTableRecord
100
AcDbRegAppTableRecord
  2
EZDXF
 70
0
  0
ENDTAB
  0
TABLE
  2
DIMSTYLE
  5
4
330
0
100
AcDbSymbolTable
 70
1
100
AcDbDimStyleTable
  0
DIMSTYLE
105
2B
330
4
100
AcDbSymbolTableRecord
100
AcDbDimStyleTableRecord
  2
Standard
 70
0
 40
1.0
 41
2.5
 42
0.625
 43
3.75
 44
1.25
 45
0.0
 46
0.0
 47
0.0
 48
0.0
 49
2.5
140
2.5
141
2.5
142
0.0
143
0.03937007874
144
1.0
145
0.0
146
1.0
147
0.625
148
0.0
 69
0
 70
0
 71
0
 72
0
 73
0
 74
0
 75
0
 76
0
 77
1
 78
8
 79
3
170
0
171
3
172
1
173
0
174
0
175
0
176
0
177
0
178
0
179
2
271
2
272
2
273
2
274
3
275
0
276
0
277
2
278
44
279
0
280
0
281
0
282
0
283
0
284
8
285
0
286
0
288
0
289
3
290
0
371
-2
372
-2
  0
ENDTAB
  0
TABLE
  2
BLOCK_RECORD
  5
9
330
0
100
AcDbSymbolTable
 70
2
  0
BLOCK_RECORD
  5
17
330
9
100
AcDbSymbolTableRecord
100
AcDbBlockTableRecord
  2
*Model_Space
340
1A
 70
0
280
1
281
0
  0
BLOCK_RECORD
  5
1B
330
9
100
AcDbSymbolTableRecord
100
AcDbBlockTableRecord
  2
*Paper_Space
340
1E
 70
0
280
1
281
0
  0
ENDTAB
  0
ENDSEC
  0
SECTION
  2
BLOCKS
  0
BLOCK
  5
18
330
17
100
AcDbEntity
  8
0
100
AcDbBlockBegin
  2
*Model_Space
 70
0
 10
0.0
 20
0.0
 30
0.0
  3
*Model_Space
  1

  0
ENDBLK
  5
19
330
17
100
AcDbEntity
  8
0
100
AcDbBlockEnd
  0
BLOCK
  5
1C
330
1B
100
AcDbEntity
  8
0
100
AcDbBlockBegin
  2
*Paper_Space
 70
0
 10
0.0
 20
0.0
 30
0.0
  3
*Paper_Space
  1

  0
ENDBLK
  5
1D
330
1B
100
AcDbEntity
  8
0
100
AcDbBlockEnd
  0
ENDSEC
  0
SECTION
  2
ENTITIES
  0
LWPOLYLINE
  5
2F
330
17
100
AcDbEntity
  8
0
 62
1
100
AcDbPolyline
 90
4
 70
1
 10
20.0
 20
20.0
 10
1020.0
 20
20.0
 10
1020.0
 20
120.0
 10
20.0
 20
120.0
  0
LWPOLYLINE
  5
30
330
17
100
AcDbEntity
  8
0
 62
1
100
AcDbPolyline
 90
4
 70
1
 10
20.0
 20
160.0
 10
220.0
 20
160.0
 10
220.0
 20
360.0
 10
20.0
 20
360.0
  0
LWPOLYLINE
  5
31
330
17
100
AcDbEntity
  8
0
 62
1
100
AcDbPolyline
 90
8
 70
1
 10
270.0
 20
160.0
 10
370.0
 20
160.0
 42
0.41421356237309503
 10
380.0
 20
170.0
 10
380.0
 20
210.0
 42
0.41421356237309503
 10
370.0
 20
220.0
 10
270.0
 20
220.0
 42
0.41421356237309503
 10
260.0
 20
210.0
 10
260.0
 20
170.0
 42
0.41421356237309503
  0
CIRCLE
  5
32
330
17
100
AcDbEntity
  8
0
 62
1
100
AcDbCircle
 10
520.0
 20
260.0
 30
0.0
 40
100.0
  0
LWPOLYLINE
  5
33
330
17
100
AcDbEntity
  8
0
 62
1
100
AcDbPolyline
 90
2
 70
1
 10
860.0
 20
260.0
 42
1.0
 10
660.0
 20
260.0
 42
1.0
  0
LWPOLYLINE
  5
34
330
17
100
AcDbEntity
  8
0
 62
1
100
AcDbPolyline
 90
72
 70
1
 10
1100.0
 20
260.0
 10
1099.6194698091745
 20
268.7155742747658
 10
1098.4807753012208
 20
277.364817766693
 10
1096.5925826289067
 20
285.88190451025207
 10
1093.9692620785909
 20
294.2020143325669
 10
1090.6307787036649
 20
302.26182617406994
 10
1086.6025403784438
 20
310.0
 10
1081.9152044288992
 20
317.35764363510464
 10
1076.6044443118979
 20
324.27876096865396
 10
1070.7106781186549
 20
330.71067811865476
 10
1064.2787609686538
 20
336.6044443118978
 10
1057.3576436351045
 20
341.9152044288992
 10
1050.0
 20
346.60254037844385
 10
1042.26182617407
 20
350.630778703665
 10
1034.202014332567
 20
353.9692620785908
 10
1025.881904510252
 20
356.5925826289068
 10
1017.364817766693
 20
358.4807753012208
 10
1008.7155742747658
 20
359.6194698091746
 10
1000.0
 20
360.0
 10
991.2844257252342
 20
359.6194698091746
 10
982.635182233307
 20
358.4807753012208
 10
974.1180954897479
 20
356.5925826289068
 10
965.7979856674332
 20
353.9692620785909
 10
957.7381738259301
 20
350.630778703665
 10
950.0
 20
346.6025403784439
 10
942.6423563648954
 20
341.9152044288992
 10
935.721239031346
 20
336.6044443118978
 10
929.2893218813452
 20
330.71067811865476
 10
923.3955556881021
 20
324.27876096865396
 10
918.0847955711008
 20
317.3576436351046
 10
913.3974596215561
 20
310.0
 10
909.369221296335
 20
302.26182617406994
 10
906.0307379214091
 20
294.2020143325669
 10
903.4074173710932
 20
285.8819045102521
 10
901.5192246987792
 20
277.364817766693
 10
900.3805301908254
 20
268.7155742747658
 10
900.0
 20
260.0
 10
900.3805301908254
 20
251.2844257252342
 10
901.5192246987792
 20
242.63518223330695
 10
903.4074173710932
 20
234.11809548974793
 10
906.0307379214091
 20
225.79798566743312
 10
909.369221296335
 20
217.73817382593006
 10
913.3974596215561
 20
210.0
 10
918.0847955711008
 20
202.6423563648954
 10
923.3955556881021
 20
195.72123903134607
 10
929.2893218813452
 20
189.28932188134524
 10
935.721239031346
 20
183.3955556881022
 10
942.6423563648954
 20
178.08479557110084
 10
950.0
 20
173.39745962155615
 10
957.7381738259301
 20
169.369221296335
 10
965.7979856674332
 20
166.03073792140916
 10
974.1180954897479
 20
163.40741737109317
 10
982.635182233307
 20
161.5192246987792
 10
991.2844257252342
 20
160.38053019082543
 10
1000.0
 20
160.0
 10
1008.7155742747658
 20
160.38053019082543
 10
1017.364817766693
 20
161.51922469877917
 10
1025.881904510252
 20
163.40741737109317
 10
1034.202014332567
 20
166.03073792140918
 10
1042.26182617407
 20
169.369221296335
 10
1050.0
 20
173.39745962155615
 10
1057.3576436351045
 20
178.0847955711008
 10
1064.2787609686538
 20
183.3955556881022
 10
1070.7106781186546
 20
189.28932188134524
 10
1076.6044443118979
 20
195.72123903134604
 10
1081.9152044288992
 20
202.64235636489536
 10
1086.6025403784438
 20
209.99999999999994
 10
1090.630778703665
 20
217.73817382593006
 10
1093.9692620785909
 20
225.79798566743312
 10
1096.5925826289067
 20
234.11809548974793
 10
1098.4807753012208
 20
242.63518223330695
 10
1099.6194698091745
 20
251.28442572523417
  0
TEXT
  5
35
330
17
100
AcDbEntity
  8
0
 62
5
100
AcDbText
 10
40.0
 20
80.0
 30
0.0
 40
15.0
  1
R1 1000 X 100
 11
40.0
 21
80.0
 31
0.0
100
AcDbText
  0
TEXT
  5
36
330
17
100
AcDbEntity
  8
0
 62
5
100
AcDbText
 10
40.0
 20
40.0
 30
0.0
 40
8.0
  1
SMALL TEXT 8 MM - SCALE STRIP R1
 11
40.0
 21
40.0
 31
0.0
100
AcDbText
  0
TEXT
  5
37
330
17
100
AcDbEntity
  8
0
 62
5
100
AcDbText
 10
45.0
 20
300.0
 30
0.0
 40
12.0
  1
R2 200 X 200
 11
45.0
 21
300.0
 31
0.0
100
AcDbText
  0
TEXT
  5
38
330
17
100
AcDbEntity
  8
0
 62
5
100
AcDbText
 10
45.0
 20
280.0
 30
0.0
 40
8.0
  1
PEN LINE 20 INSIDE
 11
45.0
 21
280.0
 31
0.0
100
AcDbText
  0
TEXT
  5
39
330
17
100
AcDbEntity
  8
0
 62
5
100
AcDbText
 10
270.0
 20
185.0
 30
0.0
 40
8.0
  1
R3 120X60 R10
 11
270.0
 21
185.0
 31
0.0
100
AcDbText
  0
TEXT
  5
3A
330
17
100
AcDbEntity
  8
0
 62
5
100
AcDbText
 10
450.0
 20
255.0
 30
0.0
 40
15.0
  1
O1 CIRCLE
 11
450.0
 21
255.0
 31
0.0
100
AcDbText
  0
TEXT
  5
3B
330
17
100
AcDbEntity
  8
0
 62
5
100
AcDbText
 10
690.0
 20
255.0
 30
0.0
 40
15.0
  1
O2 BULGE
 11
690.0
 21
255.0
 31
0.0
100
AcDbText
  0
TEXT
  5
3C
330
17
100
AcDbEntity
  8
0
 62
5
100
AcDbText
 10
925.0
 20
255.0
 30
0.0
 40
15.0
  1
O3 72 SEG
 11
925.0
 21
255.0
 31
0.0
100
AcDbText
  0
TEXT
  5
3D
330
17
100
AcDbEntity
  8
0
 62
5
100
AcDbText
 10
470.0
 20
225.0
 30
0.0
 40
8.0
  1
D200 ENTITY
 11
470.0
 21
225.0
 31
0.0
100
AcDbText
  0
TEXT
  5
3E
330
17
100
AcDbEntity
  8
0
 62
5
100
AcDbText
 10
715.0
 20
225.0
 30
0.0
 40
8.0
  1
D200 2 ARCS
 11
715.0
 21
225.0
 31
0.0
100
AcDbText
  0
TEXT
  5
3F
330
17
100
AcDbEntity
  8
0
 62
5
100
AcDbText
 10
945.0
 20
225.0
 30
0.0
 40
8.0
  1
D200 LINES
 11
945.0
 21
225.0
 31
0.0
100
AcDbText
  0
LINE
  5
40
330
17
100
AcDbEntity
  8
0
 62
5
100
AcDbLine
 10
70.0
 20
160.0
 30
0.0
 11
70.0
 21
170.0
 31
0.0
  0
LINE
  5
41
330
17
100
AcDbEntity
  8
0
 62
5
100
AcDbLine
 10
70.0
 20
360.0
 30
0.0
 11
70.0
 21
350.0
 31
0.0
  0
LINE
  5
42
330
17
100
AcDbEntity
  8
0
 62
5
100
AcDbLine
 10
120.0
 20
160.0
 30
0.0
 11
120.0
 21
170.0
 31
0.0
  0
LINE
  5
43
330
17
100
AcDbEntity
  8
0
 62
5
100
AcDbLine
 10
120.0
 20
360.0
 30
0.0
 11
120.0
 21
350.0
 31
0.0
  0
LINE
  5
44
330
17
100
AcDbEntity
  8
0
 62
5
100
AcDbLine
 10
170.0
 20
160.0
 30
0.0
 11
170.0
 21
170.0
 31
0.0
  0
LINE
  5
45
330
17
100
AcDbEntity
  8
0
 62
5
100
AcDbLine
 10
170.0
 20
360.0
 30
0.0
 11
170.0
 21
350.0
 31
0.0
  0
LINE
  5
46
330
17
100
AcDbEntity
  8
0
 62
5
100
AcDbLine
 10
20.0
 20
210.0
 30
0.0
 11
30.0
 21
210.0
 31
0.0
  0
LINE
  5
47
330
17
100
AcDbEntity
  8
0
 62
5
100
AcDbLine
 10
220.0
 20
210.0
 30
0.0
 11
210.0
 21
210.0
 31
0.0
  0
LINE
  5
48
330
17
100
AcDbEntity
  8
0
 62
5
100
AcDbLine
 10
20.0
 20
260.0
 30
0.0
 11
30.0
 21
260.0
 31
0.0
  0
LINE
  5
49
330
17
100
AcDbEntity
  8
0
 62
5
100
AcDbLine
 10
220.0
 20
260.0
 30
0.0
 11
210.0
 21
260.0
 31
0.0
  0
LINE
  5
4A
330
17
100
AcDbEntity
  8
0
 62
5
100
AcDbLine
 10
20.0
 20
310.0
 30
0.0
 11
30.0
 21
310.0
 31
0.0
  0
LINE
  5
4B
330
17
100
AcDbEntity
  8
0
 62
5
100
AcDbLine
 10
220.0
 20
310.0
 30
0.0
 11
210.0
 21
310.0
 31
0.0
  0
LWPOLYLINE
  5
4C
330
17
100
AcDbEntity
  8
0
 62
5
100
AcDbPolyline
 90
4
 70
1
 10
40.0
 20
180.0
 10
200.0
 20
180.0
 10
200.0
 20
340.0
 10
40.0
 20
340.0
  0
ARC
  5
4D
330
17
100
AcDbEntity
  8
0
 62
5
100
AcDbCircle
 10
480.0
 20
400.0
 30
0.0
 40
100.0
100
AcDbArc
 50
30.0
 51
150.0
  0
LWPOLYLINE
  5
4E
330
17
100
AcDbEntity
  8
0
 62
5
100
AcDbPolyline
 90
33
 70
0
 10
866.6025403784439
 20
450.0
 10
863.1469612302545
 20
455.5570233019602
 10
859.3353340291235
 20
460.8761429008721
 10
855.1839807478977
 20
465.93458151000686
 10
850.7106781186548
 20
470.71067811865476
 10
845.9345815100069
 20
475.18398074789775
 10
840.8761429008721
 20
479.3353340291235
 10
835.5570233019603
 20
483.14696123025453
 10
830.0
 20
486.60254037844385
 10
824.2288690219001
 20
489.68727415326885
 10
818.2683432365089
 20
492.3879532511287
 10
812.1439465303162
 20
494.69301294951055
 10
805.8819045102521
 20
496.5925826289068
 10
799.5090322016129
 20
498.078528040323
 10
793.0526192220052
 20
499.144486137381
 10
786.5403129230143
 20
499.78589232386037
 10
780.0
 20
500.0
 10
773.4596870769857
 20
499.78589232386037
 10
766.9473807779948
 20
499.144486137381
 10
760.4909677983871
 20
498.078528040323
 10
754.1180954897479
 20
496.5925826289068
 10
747.8560534696838
 20
494.6930129495106
 10
741.7316567634911
 20
492.3879532511287
 10
735.7711309780999
 20
489.68727415326885
 10
730.0
 20
486.6025403784439
 10
724.4429766980397
 20
483.14696123025453
 10
719.1238570991279
 20
479.3353340291235
 10
714.0654184899931
 20
475.18398074789775
 10
709.2893218813452
 20
470.71067811865476
 10
704.8160192521023
 20
465.93458151000686
 10
700.6646659708765
 20
460.8761429008721
 10
696.8530387697455
 20
455.5570233019602
 10
693.3974596215561
 20
450.0
  0
TEXT
  5
4F
330
17
100
AcDbEntity
  8
0
 62
5
100
AcDbText
 10
430.0
 20
415.0
 30
0.0
 40
8.0
  1
G1 ARC
 11
430.0
 21
415.0
 31
0.0
100
AcDbText
  0
TEXT
  5
50
330
17
100
AcDbEntity
  8
0
 62
5
100
AcDbText
 10
720.0
 20
415.0
 30
0.0
 40
8.0
  1
G2 LINES
 11
720.0
 21
415.0
 31
0.0
100
AcDbText
  0
LINE
  5
51
330
17
100
AcDbEntity
  8
0
 62
5
100
AcDbLine
 10
20.0
 20
420.0
 30
0.0
 11
120.0
 21
420.0
 31
0.0
  0
LINE
  5
52
330
17
100
AcDbEntity
  8
0
 62
5
100
AcDbLine
 10
20.0
 20
420.0
 30
0.0
 11
20.0
 21
430.0
 31
0.0
  0
LINE
  5
53
330
17
100
AcDbEntity
  8
0
 62
5
100
AcDbLine
 10
30.0
 20
420.0
 30
0.0
 11
30.0
 21
425.0
 31
0.0
  0
LINE
  5
54
330
17
100
AcDbEntity
  8
0
 62
5
100
AcDbLine
 10
40.0
 20
420.0
 30
0.0
 11
40.0
 21
425.0
 31
0.0
  0
LINE
  5
55
330
17
100
AcDbEntity
  8
0
 62
5
100
AcDbLine
 10
50.0
 20
420.0
 30
0.0
 11
50.0
 21
425.0
 31
0.0
  0
LINE
  5
56
330
17
100
AcDbEntity
  8
0
 62
5
100
AcDbLine
 10
60.0
 20
420.0
 30
0.0
 11
60.0
 21
425.0
 31
0.0
  0
LINE
  5
57
330
17
100
AcDbEntity
  8
0
 62
5
100
AcDbLine
 10
70.0
 20
420.0
 30
0.0
 11
70.0
 21
430.0
 31
0.0
  0
LINE
  5
58
330
17
100
AcDbEntity
  8
0
 62
5
100
AcDbLine
 10
80.0
 20
420.0
 30
0.0
 11
80.0
 21
425.0
 31
0.0
  0
LINE
  5
59
330
17
100
AcDbEntity
  8
0
 62
5
100
AcDbLine
 10
90.0
 20
420.0
 30
0.0
 11
90.0
 21
425.0
 31
0.0
  0
LINE
  5
5A
330
17
100
AcDbEntity
  8
0
 62
5
100
AcDbLine
 10
100.0
 20
420.0
 30
0.0
 11
100.0
 21
425.0
 31
0.0
  0
LINE
  5
5B
330
17
100
AcDbEntity
  8
0
 62
5
100
AcDbLine
 10
110.0
 20
420.0
 30
0.0
 11
110.0
 21
425.0
 31
0.0
  0
LINE
  5
5C
330
17
100
AcDbEntity
  8
0
 62
5
100
AcDbLine
 10
120.0
 20
420.0
 30
0.0
 11
120.0
 21
430.0
 31
0.0
  0
TEXT
  5
5D
330
17
100
AcDbEntity
  8
0
 62
5
100
AcDbText
 10
20.0
 20
440.0
 30
0.0
 40
8.0
  1
100 MM
 11
20.0
 21
440.0
 31
0.0
100
AcDbText
  0
TEXT
  5
5E
330
17
100
AcDbEntity
  8
0
 62
5
100
AcDbText
 10
20.0
 20
530.0
 30
0.0
 40
20.0
  1
COVER ENGINE TEST SHEET - VARIANT D - LAYER 0 RED CUT BLUE PEN
 11
20.0
 21
530.0
 31
0.0
100
AcDbText
  0
ENDSEC
  0
SECTION
  2
OBJECTS
  0
DICTIONARY
  5
A
330
0
100
AcDbDictionary
281
1
  3
ACAD_COLOR
350
B
  3
ACAD_GROUP
350
C
  3
ACAD_LAYOUT
350
D
  3
ACAD_MATERIAL
350
E
  3
ACAD_MLEADERSTYLE
350
F
  3
ACAD_MLINESTYLE
350
10
  3
ACAD_PLOTSETTINGS
350
11
  3
ACAD_PLOTSTYLENAME
350
12
  3
ACAD_SCALELIST
350
14
  3
ACAD_TABLESTYLE
350
15
  3
ACAD_VISUALSTYLE
350
16
  3
EZDXF_META
350
2D
  0
DICTIONARY
  5
B
330
A
100
AcDbDictionary
281
1
  0
DICTIONARY
  5
C
330
A
100
AcDbDictionary
281
1
  0
DICTIONARY
  5
D
330
A
100
AcDbDictionary
281
1
  3
Model
350
1A
  3
Layout1
350
1E
  0
DICTIONARY
  5
E
330
A
100
AcDbDictionary
281
1
  3
ByBlock
350
1F
  3
ByLayer
350
20
  3
Global
350
21
  0
DICTIONARY
  5
F
330
A
100
AcDbDictionary
281
1
  3
Standard
350
2C
  0
DICTIONARY
  5
10
330
A
100
AcDbDictionary
281
1
  3
Standard
350
22
  0
DICTIONARY
  5
11
330
A
100
AcDbDictionary
281
1
  0
ACDBDICTIONARYWDFLT
  5
12
330
A
100
AcDbDictionary
281
1
  3
Normal
350
13
100
AcDbDictionaryWithDefault
340
13
  0
ACDBPLACEHOLDER
  5
13
330
12
  0
DICTIONARY
  5
14
330
A
100
AcDbDictionary
281
1
  0
DICTIONARY
  5
15
330
A
100
AcDbDictionary
281
1
  0
DICTIONARY
  5
16
330
A
100
AcDbDictionary
281
1
  0
LAYOUT
  5
1A
330
D
100
AcDbPlotSettings
  1

  4
A3
  6

 40
7.5
 41
20.0
 42
7.5
 43
20.0
 44
420.0
 45
297.0
 46
0.0
 47
0.0
 48
0.0
 49
0.0
140
0.0
141
0.0
142
1.0
143
1.0
 70
1024
 72
1
 73
0
 74
5
  7

 75
16
 76
0
 77
2
 78
300
147
1.0
148
0.0
149
0.0
100
AcDbLayout
  1
Model
 70
1
 71
0
 10
0.0
 20
0.0
 11
420.0
 21
297.0
 12
0.0
 22
0.0
 32
0.0
 14
1e+20
 24
1e+20
 34
1e+20
 15
-1e+20
 25
-1e+20
 35
-1e+20
146
0.0
 13
0.0
 23
0.0
 33
0.0
 16
1.0
 26
0.0
 36
0.0
 17
0.0
 27
1.0
 37
0.0
 76
1
330
17
  0
LAYOUT
  5
1E
330
D
100
AcDbPlotSettings
  1

  4
A3
  6

 40
7.5
 41
20.0
 42
7.5
 43
20.0
 44
420.0
 45
297.0
 46
0.0
 47
0.0
 48
0.0
 49
0.0
140
0.0
141
0.0
142
1.0
143
1.0
 70
0
 72
1
 73
0
 74
5
  7

 75
16
 76
0
 77
2
 78
300
147
1.0
148
0.0
149
0.0
100
AcDbLayout
  1
Layout1
 70
1
 71
1
 10
0.0
 20
0.0
 11
420.0
 21
297.0
 12
0.0
 22
0.0
 32
0.0
 14
1e+20
 24
1e+20
 34
1e+20
 15
-1e+20
 25
-1e+20
 35
-1e+20
146
0.0
 13
0.0
 23
0.0
 33
0.0
 16
1.0
 26
0.0
 36
0.0
 17
0.0
 27
1.0
 37
0.0
 76
1
330
1B
  0
MATERIAL
  5
1F
102
{ACAD_REACTORS
330
E
102
}
330
E
100
AcDbMaterial
  1
ByBlock
  2

 70
0
 40
1.0
 71
1
 41
1.0
 91
-1023410177
 42
1.0
 72
1
  3

 73
1
 74
1
 75
1
 44
0.5
 73
0
 45
1.0
 46
1.0
 77
1
  4

 78
1
 79
1
170
1
 48
1.0
171
1
  6

172
1
173
1
174
1
140
1.0
141
1.0
175
1
  7

176
1
177
1
178
1
143
1.0
179
1
  8

270
1
271
1
272
1
145
1.0
146
1.0
273
1
  9

274
1
275
1
276
1
 42
1.0
 72
1
  3

 73
1
 74
1
 75
1
 94
63
  0
MATERIAL
  5
20
102
{ACAD_REACTORS
330
E
102
}
330
E
100
AcDbMaterial
  1
ByLayer
  2

 70
0
 40
1.0
 71
1
 41
1.0
 91
-1023410177
 42
1.0
 72
1
  3

 73
1
 74
1
 75
1
 44
0.5
 73
0
 45
1.0
 46
1.0
 77
1
  4

 78
1
 79
1
170
1
 48
1.0
171
1
  6

172
1
173
1
174
1
140
1.0
141
1.0
175
1
  7

176
1
177
1
178
1
143
1.0
179
1
  8

270
1
271
1
272
1
145
1.0
146
1.0
273
1
  9

274
1
275
1
276
1
 42
1.0
 72
1
  3

 73
1
 74
1
 75
1
 94
63
  0
MATERIAL
  5
21
102
{ACAD_REACTORS
330
E
102
}
330
E
100
AcDbMaterial
  1
Global
  2

 70
0
 40
1.0
 71
1
 41
1.0
 91
-1023410177
 42
1.0
 72
1
  3

 73
1
 74
1
 75
1
 44
0.5
 73
0
 45
1.0
 46
1.0
 77
1
  4

 78
1
 79
1
170
1
 48
1.0
171
1
  6

172
1
173
1
174
1
140
1.0
141
1.0
175
1
  7

176
1
177
1
178
1
143
1.0
179
1
  8

270
1
271
1
272
1
145
1.0
146
1.0
273
1
  9

274
1
275
1
276
1
 42
1.0
 72
1
  3

 73
1
 74
1
 75
1
 94
63
  0
MLINESTYLE
  5
22
102
{ACAD_REACTORS
330
10
102
}
330
10
100
AcDbMlineStyle
  2
Standard
 70
0
  3

 62
256
 51
90.0
 52
90.0
 71
2
 49
0.5
 62
256
  6
BYLAYER
 49
-0.5
 62
256
  6
BYLAYER
  0
MLEADERSTYLE
  5
2C
102
{ACAD_REACTORS
330
F
102
}
330
F
100
AcDbMLeaderStyle
179
2
170
2
171
1
172
0
 90
2
 40
0.0
 41
0.0
173
1
 91
-1056964608
 92
-2
290
1
 42
2.0
291
1
 43
8.0
  3
Standard
 44
4.0
300

342
29
174
1
175
1
176
0
178
1
 93
-1056964608
 45
4.0
292
0
297
0
 46
4.0
 94
-1056964608
 47
1.0
 49
1.0
140
1.0
294
1
141
0.0
177
0
142
1.0
295
0
296
0
143
3.75
271
0
272
9
273
9
  0
DICTIONARY
  5
2D
330
A
100
AcDbDictionary
280
1
281
1
  3
CREATED_BY_EZDXF
350
2E
  3
WRITTEN_BY_EZDXF
350
61
  0
DICTIONARYVAR
  5
2E
330
2D
100
DictionaryVariables
280
0
  1
0.0 @ 2000-01-01T00:00:00.000000+00:00
  0
DICTIONARYVAR
  5
61
330
2D
100
DictionaryVariables
280
0
  1
0.0 @ 2000-01-01T00:00:00.000000+00:00
  0
ENDSEC
  0
EOF
